<svg xmlns="http://www.w3.org/2000/svg" xmlns:xlink="http://www.w3.org/1999/xlink" width="81" height="80" viewBox="0 0 81 80">
    <defs>
        <path id="prefix__a" d="M68.333 30.313c.442 0 .8.358.8.8v40.554c0 .441-.358.8-.8.8H11.667c-.442 0-.8-.359-.8-.8V31.112c0-.441.358-.8.8-.8.441 0 .8.359.8.8v39.755h8.4v-29.2c0-.442.358-.8.8-.8h36.666c.442 0 .8.358.8.8v29.2h8.4V31.112c0-.441.359-.8.8-.8zM39.2 42.466H22.467v28.4H39.2v-28.4zm18.333 0H40.8v28.4h16.733v-28.4zM28.984 28.375c.235-.374.729-.488 1.103-.253.375.234.488.728.254 1.103-1.261 2.013-3.47 3.236-5.845 3.236-2.376 0-4.584-1.223-5.845-3.236-.234-.375-.12-.869.254-1.103.374-.235.868-.121 1.102.253.968 1.547 2.664 2.486 4.489 2.486 1.824 0 3.52-.94 4.488-2.486zM66.58 7.533c2.19 0 4.053 1.597 4.39 3.787l1.558 12.792.006.096v1.35c0 3.849-2.917 6.909-6.7 6.909-1.997-.002-3.874-.866-5.17-2.338-1.295 1.47-3.172 2.332-5.167 2.332-1.993 0-3.869-.86-5.166-2.327-1.295 1.466-3.17 2.327-5.163 2.327-1.996 0-3.873-.863-5.17-2.332-1.295 1.47-3.172 2.332-5.168 2.332-2.375 0-4.584-1.223-5.845-3.236-.234-.375-.12-.869.254-1.103.374-.235.868-.121 1.103.253.968 1.547 2.664 2.486 4.488 2.486 1.825 0 3.52-.94 4.489-2.486.104-.166.26-.281.433-.337l.043-.011c.016-.005.033-.01.05-.013l.05-.007c.017-.003.034-.004.052-.005l.052-.002c.017 0 .035 0 .052.002.017 0 .034.002.051.004l.05.009.052.011.041.013c.174.055.33.17.434.336.968 1.547 2.664 2.486 4.489 2.486 1.824 0 3.52-.94 4.488-2.486l-.035.054c.064-.122.16-.229.285-.307l.047-.028c.006 0 .012-.004.018-.007.087-.046.18-.072.273-.083.009 0 .018 0 .027-.002l.061-.002c.02 0 .042 0 .063.002l.025.003c.116.012.232.05.339.117.124.078.22.184.284.306.972 1.515 2.65 2.433 4.454 2.433 1.824 0 3.52-.94 4.488-2.486.105-.167.262-.282.437-.338.012-.002.024-.006.036-.01.02-.005.038-.01.058-.013l.045-.007.054-.006.051-.001c.017 0 .034 0 .05.002.02 0 .037.002.055.005l.045.007.058.013.034.011c.176.054.333.17.438.338.967 1.548 2.663 2.49 4.488 2.49 2.882 0 5.1-2.326 5.1-5.308v-1.301l-.219-1.79H9.324l-.212 1.788v1.301c-.007 2.993 2.176 5.31 5.055 5.31 1.824 0 3.52-.94 4.488-2.486.234-.375.728-.488 1.103-.254.374.234.488.728.254 1.103-1.26 2.014-3.47 3.237-5.845 3.238-3.785 0-6.664-3.056-6.655-6.913v-1.346l.006-.094 1.516-12.82c.334-2.164 2.197-3.761 4.387-3.76zm0 1.6H13.421c-1.4 0-2.592 1.021-2.802 2.378l-1.106 9.355H70.52l-1.135-9.327c-.204-1.327-1.307-2.32-2.63-2.4l-.175-.006z"/>
    </defs>
    <g fill="none" fill-rule="evenodd" transform="translate(.58)">
        <path d="M0 0H80V80H0z"/>
        <mask id="prefix__b" fill="#fff">
            <use xlink:href="#prefix__a"/>
        </mask>
        <use fill="#333" fill-rule="nonzero" xlink:href="#prefix__a"/>
        <g fill="#282828" mask="url(#prefix__b)">
            <path d="M0 0H80V80H0z"/>
        </g>
    </g>
</svg>
