<svg xmlns="http://www.w3.org/2000/svg" xmlns:xlink="http://www.w3.org/1999/xlink" width="40" height="40" viewBox="0 0 40 40">
    <defs>
        <path id="u4wtb84jja" d="M19.642 6.784c.225-.112.49-.112.716 0l2.486 1.244 11.667 5.565c.293.14.462.435.456.74v14.875c0 .31-.178.591-.458.723l-14.131 6.694c-.217.103-.468.103-.685 0L5.535 29.932c-.28-.133-.458-.414-.458-.724V14.315c0-.308.177-.589.455-.722l11.61-5.559zM20 8.394l-2.155 1.078-11.168 5.347v13.883l13.358 6.315 13.332-6.315V14.82L22.142 9.466 20 8.394zm9.679-2.967c1.699 1.416 1.175 4.069-.896 5.796-.815.68-2.575 1.384-5.04 2.143-.492.152-.992.299-1.49.44l5.548 2.637 6.023-2.851c.366-.174.798-.045 1.013.285l.053.095c.189.4.018.877-.381 1.066l-5.976 2.829v14.348c0 .407-.305.744-.7.793l-.1.007c-.441 0-.8-.359-.8-.8v-13.59l-6.098 2.887v14.01c0 .409-.305.745-.7.795l-.1.006c-.441 0-.8-.358-.8-.8v-14.01l-6.1-2.883v13.585c0 .407-.305.744-.7.793l-.1.007c-.441 0-.8-.359-.8-.8V17.874l-6-2.836c-.366-.173-.54-.588-.421-.964l.04-.101c.189-.4.665-.57 1.065-.382l6.042 2.856 5.53-2.629c-.512-.144-1.027-.296-1.534-.452-2.465-.76-4.225-1.464-5.04-2.143-2.071-1.727-2.595-4.38-.896-5.796 1.709-1.424 4.317-1.087 6.078.674.716.715 1.669 2.187 2.797 4.187.274.486.544.978.805 1.464l-.316.593c.355-.675.733-1.373 1.119-2.057 1.128-2 2.081-3.472 2.797-4.187 1.761-1.761 4.37-2.098 6.078-.674zm-9.644 9.094L14.13 17.33l5.905 2.791 5.899-2.793-5.899-2.807zm4.697-7.289c-.574.575-1.482 1.976-2.534 3.842-.24.425-.477.856-.708 1.284.594-.165 1.194-.34 1.782-.521 2.24-.69 3.9-1.355 4.487-1.843 1.393-1.162 1.692-2.674.895-3.338-1.024-.854-2.71-.636-3.922.576zm-13.387-.576c-.796.664-.497 2.176.896 3.338.586.488 2.248 1.153 4.487 1.843.588.181 1.188.356 1.782.52-.23-.427-.468-.858-.707-1.283-1.053-1.866-1.961-3.267-2.535-3.842-1.213-1.212-2.898-1.43-3.923-.576z"/>
    </defs>
    <g fill="none" fill-rule="evenodd">
        <path d="M0 0H40V40H0z"/>
        <mask id="fivbl0hr0b" fill="#fff">
            <use xlink:href="#u4wtb84jja"/>
        </mask>
        <use fill="#333" fill-rule="nonzero" xlink:href="#u4wtb84jja"/>
        <g fill="#282828" mask="url(#fivbl0hr0b)">
            <path d="M0 0H40V40H0z"/>
        </g>
    </g>
</svg>
