<svg xmlns="http://www.w3.org/2000/svg" xmlns:xlink="http://www.w3.org/1999/xlink" width="30" height="30" viewBox="0 0 30 30">
    <defs>
        <path id="prefix__a" d="M15 2.525c6.89 0 12.475 5.585 12.475 12.475S21.89 27.475 15 27.475 2.525 21.89 2.525 15 8.11 2.525 15 2.525zm0 1.2C8.773 3.725 3.725 8.773 3.725 15S8.773 26.275 15 26.275 26.275 21.227 26.275 15 21.227 3.725 15 3.725zm0 16.612c.504 0 .912.409.912.913s-.408.913-.912.913-.912-.409-.912-.913.408-.913.912-.913zm.003-12.225c3.078.015 4.555 3.865 2.629 5.825-.553.565-1.068 1.076-1.586 1.58-.286.281-.447.665-.446 1.067v1.208c0 .332-.269.6-.6.6-.331 0-.6-.268-.6-.6v-1.207c-.001-.723.289-1.416.807-1.926.514-.5 1.022-1.004 1.568-1.562 1.198-1.219.217-3.775-1.778-3.785-1.002-.004-1.673.334-2.119.905-.155.198-.271.413-.353.627-.048.123-.072.212-.079.249-.06.326-.374.54-.7.48-.326-.061-.54-.375-.48-.7.02-.105.063-.264.139-.46.122-.319.295-.637.528-.935.67-.858 1.689-1.372 3.07-1.366z"/>
    </defs>
    <g fill="none" fill-rule="evenodd">
        <mask id="prefix__b" fill="#fff">
            <use xlink:href="#prefix__a"/>
        </mask>
        <use fill="#333" fill-rule="nonzero" xlink:href="#prefix__a"/>
        <g fill="#000" mask="url(#prefix__b)">
            <path d="M0 0H30V30H0z"/>
        </g>
        <path d="M0 0H30V30H0z" mask="url(#prefix__b)"/>
    </g>
</svg>
