<svg xmlns="http://www.w3.org/2000/svg" width="30" height="30" viewBox="0 0 30 30">
    <g fill="none" fill-rule="evenodd">
        <path d="M0 0H30V30H0z"/>
        <path fill="#000" fill-rule="nonzero" d="M15 6.125c.38 0 .693.282.743.648l.007.102v7.375h7.375c.414 0 .75.336.75.75 0 .38-.282.693-.648.743l-.102.007H15.75v7.375c0 .414-.336.75-.75.75-.38 0-.693-.282-.743-.648l-.007-.102V15.75H6.875c-.414 0-.75-.336-.75-.75 0-.38.282-.693.648-.743l.102-.007h7.375V6.875c0-.414.336-.75.75-.75z"/>
    </g>
</svg>
