<?xml version="1.0" encoding="UTF-8"?>
<svg width="40px" height="40px" viewBox="0 0 40 40" version="1.1" xmlns="http://www.w3.org/2000/svg" xmlns:xlink="http://www.w3.org/1999/xlink">
    <title>Icons/Miscellaneous/V by Vodacom/alarm-system</title>
    <g id="Icons/Miscellaneous/V-by-Vodacom/alarm-system" stroke="none" stroke-width="1" fill="none" fill-rule="evenodd">
        <g id="Icons/...More/V-by-Vodacom/alarm-system/Vector">
            <path d="M32.5,19.1666667 L35.8333333,19.1666667 L32.5,15.8083333 L32.5,5.83333333 L27.5,5.83333333 L27.5,10.8333333 L21.8625,4.86458333 C20.9708333,3.91458333 18.9916667,3.95208333 18.1375,4.86458333 L4.16666667,19.1666667 L7.5,19.1666667 L7.5,34.1666667 C7.5,35.0871412 8.24619208,35.8333333 9.16666667,35.8333333 L30.4416667,35.8333333 C31.3625,35.8333333 32.5,34.8791667 32.5,33.9583333 L32.5,19.1666667" id="fd1ba51f-c3bb-4729-bc5d-7382b4371f11" stroke="#FFFFFF" stroke-width="1.2" stroke-linecap="round" stroke-linejoin="round"></path>
            <rect id="Rectangle" x="0" y="0" width="40" height="40"></rect>
            <path d="M17.71875,21.9125 C17.0330293,22.5964894 16.6476495,23.5252179 16.6476495,24.49375 C16.6476495,25.4622821 17.0330293,26.3910106 17.71875,27.075" id="Path" stroke="#FFFFFF" stroke-width="1.2" stroke-linecap="round" stroke-linejoin="round"></path>
            <path d="M15.6104167,20.06875 C14.4355339,21.2412196 13.7752884,22.8328787 13.7752884,24.4927083 C13.7752884,26.152538 14.4355339,27.7441971 15.6104167,28.9166667" id="Path" stroke="#FFFFFF" stroke-width="1.2" stroke-linecap="round" stroke-linejoin="round"></path>
            <path d="M13.5041667,18.225 C11.8394834,19.8860335 10.9039667,22.1410701 10.9039667,24.4927083 C10.9039667,26.8443466 11.8394834,29.0993832 13.5041667,30.7604167" id="Path" stroke="#FFFFFF" stroke-width="1.2" stroke-linecap="round" stroke-linejoin="round"></path>
            <path d="M22.28125,21.9125 C22.9669707,22.5964894 23.3523505,23.5252179 23.3523505,24.49375 C23.3523505,25.4622821 22.9669707,26.3910106 22.28125,27.075" id="Path" stroke="#FFFFFF" stroke-width="1.2" stroke-linecap="round" stroke-linejoin="round"></path>
            <path d="M24.3895833,20.06875 C25.5644661,21.2412196 26.2247116,22.8328787 26.2247116,24.4927083 C26.2247116,26.152538 25.5644661,27.7441971 24.3895833,28.9166667" id="Path" stroke="#FFFFFF" stroke-width="1.2" stroke-linecap="round" stroke-linejoin="round"></path>
            <path d="M26.4958333,18.225 C28.1605166,19.8860335 29.0960333,22.1410701 29.0960333,24.4927083 C29.0960333,26.8443466 28.1605166,29.0993832 26.4958333,30.7604167" id="Path" stroke="#FFFFFF" stroke-width="1.2" stroke-linecap="round" stroke-linejoin="round"></path>
            <circle id="Oval" stroke="#FFFFFF" stroke-width="1.2" stroke-linecap="round" stroke-linejoin="round" cx="20" cy="24.4708333" r="1"></circle>
            <circle id="Oval" stroke="#FFFFFF" stroke-width="1.2" stroke-linecap="round" stroke-linejoin="round" cx="20" cy="24.4708333" r="1"></circle>
        </g>
    </g>
</svg>