<svg width="100" height="100" viewBox="0 0 100 100" fill="none" xmlns="http://www.w3.org/2000/svg">
<path fill-rule="evenodd" clip-rule="evenodd" d="M21.7292 56.25V63.0637L29.9611 54.8355C30.3362 54.4606 30.8447 54.25 31.375 54.25H37.5834V45.8333C37.5834 41.277 41.277 37.5833 45.8334 37.5833H58.4167V25C58.4167 22.6528 56.5139 20.75 54.1667 20.75H16.6667C14.3195 20.75 12.4167 22.6528 12.4167 25V50C12.4167 52.3472 14.3195 54.25 16.6667 54.25H19.7292C20.8338 54.25 21.7292 55.1454 21.7292 56.25ZM62.4167 37.5833V25C62.4167 20.4437 58.723 16.75 54.1667 16.75H16.6667C12.1103 16.75 8.41669 20.4437 8.41669 25V50C8.41669 54.5564 12.1103 58.25 16.6667 58.25H17.7292V67.8906C17.7292 69.6722 19.883 70.5647 21.1431 69.3052L32.2032 58.25H37.5834V70.8333C37.5834 75.3897 41.277 79.0833 45.8334 79.0833H67.7966L78.8514 90.1382C80.1114 91.3981 82.2656 90.5058 82.2656 88.724V79.0833H83.3334C87.8897 79.0833 91.5834 75.3897 91.5834 70.8333V45.8333C91.5834 41.277 87.8897 37.5833 83.3334 37.5833H62.4167ZM78.2656 83.8955L70.0392 75.6691C69.6642 75.294 69.1555 75.0833 68.625 75.0833H45.8334C43.4861 75.0833 41.5834 73.1805 41.5834 70.8333V45.8333C41.5834 43.4861 43.4861 41.5833 45.8334 41.5833H83.3334C85.6806 41.5833 87.5834 43.4861 87.5834 45.8333V70.8333C87.5834 73.1805 85.6806 75.0833 83.3334 75.0833H80.2656C79.1611 75.0833 78.2656 75.9788 78.2656 77.0833V83.8955ZM77.0834 50.0833H52.0834C50.9788 50.0833 50.0834 50.9788 50.0834 52.0833C50.0834 53.1879 50.9788 54.0833 52.0834 54.0833H77.0834C78.1879 54.0833 79.0834 53.1879 79.0834 52.0833C79.0834 50.9788 78.1879 50.0833 77.0834 50.0833ZM52.0834 62.5833H77.0834C78.1879 62.5833 79.0834 63.4788 79.0834 64.5833C79.0834 65.6879 78.1879 66.5833 77.0834 66.5833H52.0834C50.9788 66.5833 50.0834 65.6879 50.0834 64.5833C50.0834 63.4788 50.9788 62.5833 52.0834 62.5833Z" fill="#333333"/>
<mask id="mask0" mask-type="alpha" maskUnits="userSpaceOnUse" x="8" y="16" width="84" height="75">
<path fill-rule="evenodd" clip-rule="evenodd" d="M21.7292 56.25V63.0637L29.9611 54.8355C30.3362 54.4606 30.8447 54.25 31.375 54.25H37.5834V45.8333C37.5834 41.277 41.277 37.5833 45.8334 37.5833H58.4167V25C58.4167 22.6528 56.5139 20.75 54.1667 20.75H16.6667C14.3195 20.75 12.4167 22.6528 12.4167 25V50C12.4167 52.3472 14.3195 54.25 16.6667 54.25H19.7292C20.8338 54.25 21.7292 55.1454 21.7292 56.25ZM62.4167 37.5833V25C62.4167 20.4437 58.723 16.75 54.1667 16.75H16.6667C12.1103 16.75 8.41669 20.4437 8.41669 25V50C8.41669 54.5564 12.1103 58.25 16.6667 58.25H17.7292V67.8906C17.7292 69.6722 19.883 70.5647 21.1431 69.3052L32.2032 58.25H37.5834V70.8333C37.5834 75.3897 41.277 79.0833 45.8334 79.0833H67.7966L78.8514 90.1382C80.1114 91.3981 82.2656 90.5058 82.2656 88.724V79.0833H83.3334C87.8897 79.0833 91.5834 75.3897 91.5834 70.8333V45.8333C91.5834 41.277 87.8897 37.5833 83.3334 37.5833H62.4167ZM78.2656 83.8955L70.0392 75.6691C69.6642 75.294 69.1555 75.0833 68.625 75.0833H45.8334C43.4861 75.0833 41.5834 73.1805 41.5834 70.8333V45.8333C41.5834 43.4861 43.4861 41.5833 45.8334 41.5833H83.3334C85.6806 41.5833 87.5834 43.4861 87.5834 45.8333V70.8333C87.5834 73.1805 85.6806 75.0833 83.3334 75.0833H80.2656C79.1611 75.0833 78.2656 75.9788 78.2656 77.0833V83.8955ZM77.0834 50.0833H52.0834C50.9788 50.0833 50.0834 50.9788 50.0834 52.0833C50.0834 53.1879 50.9788 54.0833 52.0834 54.0833H77.0834C78.1879 54.0833 79.0834 53.1879 79.0834 52.0833C79.0834 50.9788 78.1879 50.0833 77.0834 50.0833ZM52.0834 62.5833H77.0834C78.1879 62.5833 79.0834 63.4788 79.0834 64.5833C79.0834 65.6879 78.1879 66.5833 77.0834 66.5833H52.0834C50.9788 66.5833 50.0834 65.6879 50.0834 64.5833C50.0834 63.4788 50.9788 62.5833 52.0834 62.5833Z" fill="white"/>
</mask>
<g mask="url(#mask0)">
<rect width="100" height="100" fill="#282828"/>
</g>
</svg>
