<?xml version="1.0" encoding="UTF-8"?>
<svg width="120px" height="43px" viewBox="0 0 120 43" version="1.1" xmlns="http://www.w3.org/2000/svg" xmlns:xlink="http://www.w3.org/1999/xlink">
    <title>925F0521-A490-4455-B258-FFEE08F739EA</title>
    <g id="CBU_Homepage" stroke="none" stroke-width="1" fill="none" fill-rule="evenodd">
        <g id="CBU/Homepage/Desktop/other-tab" transform="translate(-269.000000, -6990.000000)" fill="#FFFFFF" fill-rule="nonzero">
            <g id="App" transform="translate(78.000000, 6425.000000)">
                <g id="🔗-Templates/Banner-content/Image-with-appstore-cta/Desktop" transform="translate(0.000000, 112.000000)">
                    <g id="Group">
                        <g id="App-store" transform="translate(191.525114, 453.000000)">
                            <path d="M113.473992,0.75 C116.237256,0.75 118.481735,3.06824329 118.481735,5.92 L118.481735,5.92 L118.481735,37.08 C118.481735,39.9317567 116.237256,42.25 113.473992,42.25 L113.473992,42.25 L5.74061948,42.25 C2.97735583,42.25 0.732876712,39.9317567 0.732876712,37.08 L0.732876712,37.08 L0.732876712,5.92 C0.732876712,3.06824329 2.97735583,0.75 5.74061948,0.75 L5.74061948,0.75 Z M113.473992,1.25 L5.74061948,1.25 C3.24820938,1.25 1.22146119,3.34335671 1.22146119,5.92 L1.22146119,5.92 L1.22146119,37.08 C1.22146119,39.6566433 3.24820938,41.75 5.74061948,41.75 L5.74061948,41.75 L113.473992,41.75 C115.966402,41.75 117.993151,39.6566433 117.993151,37.08 L117.993151,37.08 L117.993151,5.92 C117.993151,3.34335671 115.966402,1.25 113.473992,1.25 L113.473992,1.25 Z M53.4532902,22.4329709 C54.4620756,22.4329709 55.2947238,22.8556514 55.9672474,23.6925586 C56.6557835,24.5379194 56.9920453,25.6368885 56.9920453,27.0148266 C56.9920453,28.5449297 56.5997399,29.7537957 55.8071228,30.6414246 C55.1025742,31.4360637 54.2218886,31.8249297 53.1810782,31.8249297 C52.0521993,31.8249297 51.2435698,31.4022493 50.7471833,30.5484349 L50.7471833,35.2740019 L48.849706,35.2740019 L48.849706,25.5777132 C48.849706,24.6140019 48.8256873,23.6333833 48.7776499,22.6189503 L50.4429464,22.6189503 L50.5470275,24.0476101 L50.5790524,24.0476101 C51.2115448,22.9740019 52.1722928,22.4329709 53.4532902,22.4329709 Z M63.2529198,22.4329709 C64.2617052,22.4329709 65.0943535,22.8556514 65.7668771,23.6925586 C66.4554131,24.5379194 66.7916749,25.6368885 66.7916749,27.0148266 C66.7916749,28.5449297 66.3993695,29.7537957 65.6067524,30.6414246 C64.9022039,31.4360637 64.0215182,31.8249297 62.9807078,31.8249297 C61.8518289,31.8249297 61.0431994,31.4022493 60.5468129,30.5484349 L60.5468129,35.2740019 L58.6493356,35.2740019 L58.6493356,25.5777132 C58.6493356,24.6140019 58.6253169,23.6333833 58.5772795,22.6189503 L60.242576,22.6189503 L60.3466571,24.0476101 L60.378682,24.0476101 C61.0111744,22.9740019 61.9719224,22.4329709 63.2529198,22.4329709 Z M89.3292218,22.4414246 C90.5781942,22.4414246 91.5869796,22.8810122 92.3475718,23.7601874 C93.076139,24.6055483 93.4364195,25.7045173 93.4364195,27.048641 C93.4364195,28.4350328 93.0601265,29.5678163 92.3155468,30.4554452 C91.530936,31.3684349 90.4901256,31.8249297 89.1931158,31.8249297 C87.9441434,31.8249297 86.9433643,31.3853421 86.1987846,30.5146204 C85.4542049,29.6438988 85.0859181,28.5364761 85.0859181,27.200806 C85.0859181,25.8059606 85.4702173,24.6647235 86.2308095,23.7770947 C86.9994079,22.8894658 88.032212,22.4414246 89.3292218,22.4414246 Z M81.9474747,20.3787441 L81.9474747,22.6189503 L84.0371016,22.6189503 L84.0371016,24.1236926 L81.9474747,24.1236926 L81.9474747,28.4942081 C81.9474747,29.6016307 82.3157614,30.1595689 83.0523349,30.1595689 C83.3885967,30.1595689 83.6688148,30.1257545 83.8929894,30.0665792 L83.949033,31.5882287 C83.57274,31.73194 83.0843598,31.8080225 82.4758861,31.8080225 C81.7233001,31.8080225 81.1468513,31.5628679 80.7225209,31.0810122 C80.2981906,30.5991565 80.0900285,29.7876101 80.0900285,28.6548266 L80.0900285,24.115239 L78.8490623,24.115239 L78.8490623,22.6189503 L80.0900285,22.6189503 L80.0900285,20.9704967 L81.9474747,20.3787441 Z M74.6377836,18.958538 C75.7106189,18.958538 76.607317,19.1529709 77.3198718,19.5502905 L76.8394978,21.1733833 C76.1669742,20.7929709 75.4143882,20.598538 74.5657275,20.598538 C73.9012101,20.598538 73.3727987,20.7760637 72.9965058,21.1142081 C72.6842627,21.4269916 72.524138,21.7989503 72.524138,22.2469916 C72.524138,22.7373008 72.7082814,23.1515276 73.0685619,23.4643112 C73.380805,23.7601874 73.9572538,24.0814246 74.789902,24.4280225 C75.8066937,24.8591565 76.5512734,25.366373 77.0316474,25.949672 C77.5200276,26.5329709 77.7602146,27.2599813 77.7602146,28.1222493 C77.7602146,29.1874039 77.4079403,30.049672 76.711398,30.717507 C75.9427996,31.4445173 74.8699644,31.8080225 73.4928922,31.8080225 C72.2199011,31.8080225 71.2031095,31.5459606 70.4345111,31.0302905 L70.8748539,29.3649297 C71.7075022,29.8805998 72.6202128,30.1426617 73.6129857,30.1426617 C74.3255405,30.1426617 74.8859768,29.9735895 75.2782823,29.6354452 C75.6785939,29.2973008 75.8787498,28.840806 75.8787498,28.2744142 C75.8787498,27.7671978 75.7106189,27.3445173 75.3903695,26.9979194 C75.062114,26.6513215 74.5176901,26.3300843 73.7570979,26.0342081 C71.667471,25.2142081 70.6346669,24.0222493 70.6346669,22.4583318 C70.6346669,21.4354452 71.0029537,20.598538 71.7315209,19.9391565 C72.4600881,19.2882287 73.4288424,18.958538 74.6377836,18.958538 Z M104.525053,22.4076101 C105.750006,22.4076101 106.686736,22.8894658 107.311222,23.8531771 C107.815615,24.6309091 108.071814,25.5692596 108.071814,26.6935895 C108.071814,27.048641 108.047795,27.3529709 107.999758,27.5981256 L102.315332,27.5981256 C102.339351,28.4857545 102.611563,29.1704967 103.139974,29.6354452 C103.620348,30.049672 104.236828,30.2610122 104.99742,30.2610122 C105.838075,30.2610122 106.606673,30.1173008 107.295209,29.8383318 L107.59144,31.2247235 C106.78281,31.5966823 105.830069,31.7826617 104.733215,31.7826617 C103.412186,31.7826617 102.371376,31.3684349 101.61879,30.5484349 C100.866204,29.7284349 100.489911,28.6210122 100.489911,27.243074 C100.489911,25.8904967 100.842185,24.7577132 101.546734,23.8531771 C102.283307,22.8894658 103.27608,22.4076101 104.525053,22.4076101 Z M99.1208452,22.4329709 C99.2969823,22.4329709 99.457107,22.4498782 99.5932129,22.4667854 L99.6012192,24.3773008 C99.4170758,24.3434864 99.21692,24.3265792 99.0007517,24.3265792 C98.3362343,24.3265792 97.8158291,24.588641 97.4555486,25.1212184 C97.1433055,25.5861668 96.9831809,26.186373 96.9831809,26.8964761 L96.9831809,31.6220431 L95.0857036,31.6220431 L95.0857036,25.4509091 C95.0857036,24.4111153 95.0696911,23.4643112 95.0296599,22.6189503 L96.678944,22.6189503 L96.7510001,24.3434864 L96.8070437,24.3434864 C97.0071996,23.7517338 97.3194427,23.2698782 97.7517793,22.9148266 C98.1761096,22.5935895 98.6324649,22.4329709 99.1208452,22.4329709 Z M43.3974611,19.1360637 L47.2164344,31.6220431 L45.1988636,31.6220431 L44.0940034,27.9531771 L40.2510114,27.9531771 L39.2021948,31.6220431 L37.2406676,31.6220431 L41.0436285,19.1360637 L43.3974611,19.1360637 Z M24.0606667,13.2649645 L24.3393691,13.2829385 C25.0775498,13.3073496 27.1866373,13.5840077 28.5494323,15.5694366 C28.4439779,15.6345327 26.0428629,17.0503713 26.0671985,19.9634187 C26.099646,23.4460563 29.1091517,24.6015109 29.149711,24.6177849 C29.1334873,24.6991549 28.6792223,26.2858707 27.5516717,27.8888604 C26.6025823,29.3046991 25.6210454,30.6879898 24.0473416,30.7124008 C22.5223091,30.7449488 22.011261,29.8091933 20.259096,29.8091933 C18.4988191,29.8091933 17.9472116,30.6879898 16.4870741,30.7449488 C14.9863772,30.8019078 13.8507147,29.2314661 12.8691778,27.8319014 C10.9142159,24.9676761 9.39729526,19.7599936 11.4333759,16.2203969 C12.4149128,14.4790781 14.2238609,13.3643086 16.1463753,13.3317606 C17.6389603,13.3073496 19.0342028,14.348886 19.9508447,14.348886 C20.756482,14.348886 22.2180127,13.3457129 23.7834473,13.2685721 L24.0606667,13.2649645 Z M89.2651719,23.8954452 C88.5045798,23.8954452 87.9201247,24.2504967 87.5278193,24.9690534 C87.1835513,25.560806 87.0234266,26.2793627 87.0234266,27.1331771 C87.0234266,27.9616307 87.1915575,28.6717338 87.5278193,29.2550328 C87.9361372,29.9735895 88.512586,30.328641 89.2491595,30.328641 C89.9697205,30.328641 90.538163,29.9651359 90.9544872,29.2381256 C91.2987552,28.6294658 91.4748923,27.9193627 91.4748923,27.0909091 C91.4748923,26.2624555 91.3067614,25.560806 90.9704996,24.9690534 C90.570188,24.2504967 90.0017454,23.8954452 89.2651719,23.8954452 Z M52.8528227,24.0307029 C52.3884611,24.0307029 51.9641308,24.1997751 51.5798316,24.5210122 C51.2035386,24.8507029 50.9473391,25.2733833 50.8352519,25.8059606 C50.7792082,26.0511153 50.7471833,26.2540019 50.7471833,26.4146204 L50.7471833,27.9193627 C50.7471833,28.5702905 50.9393329,29.1282287 51.3156259,29.5762699 C51.6919188,30.0243112 52.1883053,30.2525586 52.796779,30.2525586 C53.5093338,30.2525586 54.0617639,29.9566823 54.4620756,29.3818369 C54.8623872,28.798538 55.0625431,28.0377132 55.0625431,27.0824555 C55.0625431,26.2032802 54.8783997,25.4847235 54.5021067,24.9183318 C54.0937888,24.3265792 53.5413587,24.0307029 52.8528227,24.0307029 Z M62.6524523,24.0307029 C62.1880907,24.0307029 61.7637604,24.1997751 61.3794612,24.5210122 C61.0031682,24.8507029 60.754975,25.2733833 60.6348815,25.8059606 C60.5788378,26.0511153 60.5468129,26.2540019 60.5468129,26.4146204 L60.5468129,27.9193627 C60.5468129,28.5702905 60.7389625,29.1282287 61.1152555,29.5762699 C61.4915484,30.0243112 61.9879349,30.2525586 62.5964086,30.2525586 C63.3089634,30.2525586 63.8693998,29.9566823 64.2617052,29.3818369 C64.6700231,28.798538 64.8621727,28.0377132 64.8621727,27.0824555 C64.8621727,26.2032802 64.6780293,25.4847235 64.3017364,24.9183318 C63.8934185,24.3265792 63.3409883,24.0307029 62.6524523,24.0307029 Z M42.1725074,20.8098782 L42.1324762,20.8098782 C42.0123827,21.3424555 41.8282393,22.128641 41.5720399,23.1599813 L40.5872732,26.4146204 L43.7657478,26.4146204 L42.7649686,23.1599813 C42.6608876,22.8218369 42.4607318,22.044105 42.1725074,20.8098782 Z M104.388947,23.8024555 C103.772467,23.8024555 103.268074,24.0729709 102.883775,24.6140019 C102.571532,25.0451359 102.379382,25.5692596 102.323339,26.1694658 L106.262405,26.1779194 C106.278418,25.5861668 106.150318,25.0704967 105.894119,24.6393627 C105.565863,24.0814246 105.06147,23.8024555 104.388947,23.8024555 Z M49.883398,10.9966398 C50.9662993,10.9966398 51.5117021,11.5401611 51.5117021,12.6347526 L51.5117021,14.0916916 C51.5117021,14.4917837 51.5275109,14.8012888 51.5749372,15.0353049 L50.7449764,15.0202071 L50.6738369,14.5672727 L50.6501237,14.5672727 C50.3655657,14.9296203 49.9624419,15.110794 49.4407523,15.110794 C48.6977397,15.110794 48.1760501,14.6125662 48.1760501,13.9482624 C48.1760501,12.9744534 49.0613416,12.4686766 50.594793,12.4686766 L50.594793,12.3931876 C50.594793,11.872313 50.3023306,11.6156502 49.7332146,11.6156502 C49.3221864,11.6156502 48.9664889,11.713786 48.6503134,11.9100575 L48.4606081,11.3363406 C48.8400187,11.1098734 49.3221864,10.9966398 49.883398,10.9966398 Z M63.7872177,9.25284235 L63.7872177,11.6458458 L63.8030265,11.6458458 C64.0796801,11.2080092 64.5144215,10.9890909 65.1230594,10.9890909 C66.1190124,10.9890909 66.8145986,11.8043728 66.8145986,12.9895512 C66.8145986,14.2124741 66.0399685,15.110794 64.9886848,15.110794 C64.40376,15.110794 63.9690187,14.8767779 63.6844607,14.4087457 L63.6686519,14.4087457 L63.6133212,15.0202071 L62.8307867,15.0202071 C62.8544999,14.703153 62.8624042,14.3483544 62.8624042,13.9558113 L62.8624042,9.25284235 L63.7872177,9.25284235 Z M79.7382741,10.9890909 C80.9318368,10.9890909 81.73018,11.8119217 81.73018,13.0121979 C81.73018,14.2426697 80.9081236,15.110794 79.6671346,15.110794 C78.4577631,15.110794 77.6752286,14.2502186 77.6752286,13.0801381 C77.6752286,11.8572152 78.4735719,10.9890909 79.7382741,10.9890909 Z M59.6295093,10.9890909 C60.7124105,10.9890909 61.2578133,11.5326122 61.2578133,12.6272037 L61.2578133,14.0841427 C61.2578133,14.4842348 61.2736221,14.7937399 61.3131441,15.027756 L60.4910876,15.027756 L60.4910876,15.0202071 L60.4199481,14.5672727 L60.396235,14.5672727 C60.111677,14.9296203 59.7085532,15.110794 59.1868635,15.110794 C58.443851,15.110794 57.9221613,14.6125662 57.9221613,13.9482624 C57.9221613,12.9744534 58.8074529,12.4686766 60.3409043,12.4686766 L60.3409043,12.3931876 C60.3409043,11.872313 60.0484419,11.6156502 59.4793259,11.6156502 C59.0682977,11.6156502 58.7126002,11.713786 58.3964246,11.9100575 L58.2067193,11.3287917 C58.58613,11.1023245 59.0682977,10.9890909 59.6295093,10.9890909 Z M91.6818054,10.0832221 L91.6818054,11.06458 L92.6935672,11.06458 L92.6935672,11.7288838 L91.673901,11.7288838 L91.673901,13.6463061 C91.673901,14.136985 91.855702,14.3785501 92.2113994,14.3785501 C92.3694872,14.3785501 92.5117662,14.3634522 92.6224277,14.3408055 L92.6461408,15.0051093 C92.4643399,15.0730495 92.2272082,15.1032451 91.9347458,15.1032451 C91.2075421,15.1032451 90.7807051,14.7182509 90.7807051,13.7217952 L90.7807051,11.7288838 L90.1799716,11.7288838 L90.1799716,11.0721289 L90.7807051,11.0721289 L90.7807051,10.3474338 L91.6818054,10.0832221 Z M100.566338,10.9739931 C101.617622,10.9739931 102.289495,11.7213349 102.289495,12.8536709 C102.289495,13.0121979 102.281591,13.1480783 102.249973,13.2537629 L99.4913414,13.2537629 C99.5071502,14.0011047 100.02884,14.4238435 100.795566,14.4238435 C101.206594,14.4238435 101.5781,14.3559033 101.910084,14.2351208 L102.052363,14.8465823 C101.665048,15.0126582 101.206594,15.0881473 100.669095,15.0881473 C99.3727756,15.0881473 98.6060499,14.3106099 98.6060499,13.0952359 C98.6060499,11.8874108 99.3885844,10.9739931 100.566338,10.9739931 Z M72.4109058,10.9739931 C73.4621895,10.9739931 74.1340625,11.7213349 74.1340625,12.8536709 C74.1340625,13.0121979 74.1261581,13.1480783 74.0945406,13.2537629 L71.3359089,13.2537629 C71.3517177,14.0011047 71.8734074,14.4238435 72.6401331,14.4238435 C73.0511613,14.4238435 73.4226675,14.3559033 73.7546519,14.2351208 L73.8969309,14.8465823 C73.5096158,15.0126582 73.0511613,15.0881473 72.5136628,15.0881473 C71.2173431,15.0881473 70.4506174,14.3106099 70.4506174,13.0952359 C70.4506174,11.8874108 71.2331519,10.9739931 72.4109058,10.9739931 Z M94.8830828,9.25284235 L94.8830828,11.6231991 L94.8988916,11.6231991 C95.191354,11.1929114 95.6023822,10.981542 96.1398806,10.981542 C97.0172678,10.981542 97.5547662,11.630748 97.5547662,12.6649482 L97.5547662,15.0202071 L96.6378571,15.0202071 L96.6378571,12.763084 C96.6378571,12.0534868 96.3532991,11.6986881 95.7999919,11.6986881 C95.3257286,11.6986881 94.8830828,12.0081933 94.8830828,12.6347526 L94.8830828,15.0126582 L93.9661737,15.0126582 L93.9661737,9.25284235 L94.8830828,9.25284235 Z M44.4214654,11.06458 L45.124956,13.1556272 C45.2435219,13.5028769 45.3462789,13.8350288 45.4253228,14.1520829 L45.449036,14.1520829 C45.5201755,13.8652244 45.6229325,13.5330725 45.7494027,13.1556272 L46.4449889,11.06458 L47.4093244,11.06458 L45.8442554,15.0202071 L44.9510595,15.0202071 L43.4334169,11.06458 L44.4214654,11.06458 Z M85.2318242,10.981542 C86.101307,10.981542 86.670423,11.6156502 86.670423,12.6498504 L86.670423,15.0202071 L85.7535139,15.0202071 L85.7535139,12.7479862 C85.7535139,12.0459379 85.4689559,11.6986881 84.9156487,11.6986881 C84.3702459,11.6986881 83.9987396,12.1440736 83.9987396,12.6649482 L83.9987396,15.0126582 L83.0818305,15.0126582 L83.0818305,12.196916 C83.0818305,11.8496663 83.0739261,11.4722209 83.050213,11.06458 L83.8564606,11.06458 L83.8959825,11.6760414 L83.9196957,11.6760414 C84.1647318,11.2533026 84.6706126,10.981542 85.2318242,10.981542 Z M40.9277256,9.53970081 L42.7931614,15.0202071 L41.8130172,15.0202071 L41.2755187,13.41229 L39.410083,13.41229 L38.8962977,15.0202071 L37.9477711,15.0202071 L39.7894937,9.53970081 L40.9277256,9.53970081 Z M69.0910625,9.25284235 L69.0910625,15.0126582 L68.1741534,15.0126582 L68.1741534,9.25284235 L69.0910625,9.25284235 Z M56.5863196,9.25284235 L56.5863196,15.0126582 L55.6694105,15.0126582 L55.6694105,9.25284235 L56.5863196,9.25284235 Z M54.0332021,11.06458 L54.0332021,15.0126582 L53.116293,15.0126582 L53.116293,11.06458 L54.0332021,11.06458 Z M60.3646174,13.0499425 C59.3449513,13.0499425 58.831166,13.2839586 58.831166,13.8501266 C58.831166,14.2653165 59.0920108,14.4691369 59.4635171,14.4691369 C59.929876,14.4691369 60.3646174,14.1294361 60.3646174,13.6614039 L60.3646174,13.0499425 Z M50.6185062,13.0499425 C49.59884,13.0499425 49.0850548,13.2839586 49.0850548,13.8501266 C49.0850548,14.2653165 49.3458996,14.4691369 49.7174059,14.4691369 C50.1837648,14.4691369 50.6185062,14.1294361 50.6185062,13.6614039 L50.6185062,13.0499425 Z M79.7066565,11.630748 C79.0426879,11.630748 78.6158509,12.2271116 78.6158509,13.0499425 C78.6158509,13.8652244 79.0505923,14.4540391 79.6987522,14.4540391 C80.346912,14.4540391 80.7816534,13.819931 80.7816534,13.0272957 C80.773749,12.2271116 80.3548164,11.630748 79.7066565,11.630748 Z M64.7989795,11.6760414 C64.2693854,11.6760414 63.7872177,12.113878 63.7872177,12.7253395 L63.7872177,13.4198389 C63.7872177,13.9633602 64.2219591,14.4087457 64.7831707,14.4087457 C65.4708525,14.4087457 65.8818807,13.8727733 65.8818807,13.0197468 C65.8818807,12.2195627 65.4550437,11.6760414 64.7989795,11.6760414 Z M24.3637048,7.70909091 C24.5097185,9.07610755 23.9743348,10.4187132 23.1874829,11.4032907 C22.3681835,12.3715941 21.0540597,13.1201985 19.7723835,13.0225544 C19.610146,11.7124968 20.259096,10.3210691 20.9810529,9.46668374 C21.8003522,8.49838028 23.2280422,7.75791293 24.3637048,7.70909091 Z M40.3348965,10.2643959 L40.3190877,10.2643959 C40.2558526,10.498412 40.1768087,10.8381128 40.0424341,11.2985961 L39.5681708,12.7328884 L41.1095266,12.7328884 L40.6273589,11.2985961 C40.5799325,11.1551669 40.4850799,10.8079171 40.3348965,10.2643959 Z M72.3476707,11.5854545 C71.8180766,11.5854545 71.4070484,12.0232911 71.3438133,12.6272037 L73.2566754,12.6272037 C73.2566754,12.0157422 72.9325954,11.5854545 72.3476707,11.5854545 Z M100.503103,11.5854545 C99.9735091,11.5854545 99.5545765,12.0232911 99.4992458,12.6272037 L101.412108,12.6272037 C101.412108,12.0157422 101.088028,11.5854545 100.503103,11.5854545 Z M53.5747475,9.36607595 C53.8909231,9.36607595 54.1438635,9.58499425 54.1359591,9.88695052 C54.1359591,10.2040046 53.8988275,10.415374 53.5589388,10.415374 C53.2506676,10.415374 53.0135359,10.1889068 53.0135359,9.88695052 C53.0135359,9.58499425 53.258572,9.36607595 53.5747475,9.36607595 Z" id="Combined-Shape"></path>
                        </g>
                    </g>
                </g>
            </g>
        </g>
    </g>
</svg>