<?xml version="1.0" encoding="UTF-8"?>
<svg width="40px" height="40px" viewBox="0 0 40 40" version="1.1" xmlns="http://www.w3.org/2000/svg" xmlns:xlink="http://www.w3.org/1999/xlink">
    <title>Icons/Miscellaneous/apps</title>
    <g id="Icons/Miscellaneous/apps" stroke="none" stroke-width="1" fill="none" fill-rule="evenodd">
        <g id="Icons/...More/Miscellaneous/apps/Vector">
            <rect id="Rectangle" x="0" y="0" width="40" height="40"></rect>
            <path d="M16.9395833,30 L10.5583333,30 C10.1495557,30.0188277 9.76186435,29.817832 9.54166667,29.4729167 C9.34118608,29.1184891 9.35078012,28.6827598 9.56666667,28.3375 L12.7645833,22.2958333 C12.9388084,21.9177674 13.3170543,21.6755983 13.7333333,21.6755983 C14.1496123,21.6755983 14.5278582,21.9177674 14.7020833,22.2958333 L17.9333333,28.3375 C18.1492199,28.6827598 18.1588139,29.1184891 17.9583333,29.4729167 C17.7374572,29.8181674 17.3489946,30.0191511 16.9395833,30 Z" id="5ee1934c-e686-4b77-902f-defedf2b6afd" stroke="#000000" stroke-width="1.2" stroke-linecap="round"></path>
            <path d="M13.75,17.5 C12.2332666,17.5 10.8658805,16.5863418 10.2854518,15.1850629 C9.705023,13.7837839 10.0258571,12.1708421 11.0983496,11.0983496 C12.1708421,10.0258571 13.7837839,9.705023 15.1850629,10.2854518 C16.5863418,10.8658805 17.5,12.2332666 17.5,13.75 C17.5,15.8210678 15.8210678,17.5 13.75,17.5 L13.75,17.5 Z" id="8f3e5372-9fb5-4fc6-af24-d995ed1f0c1c" stroke="#000000" stroke-width="1.2" stroke-linecap="round"></path>
            <polygon id="Path" stroke="#000000" stroke-width="1.2" stroke-linecap="round" stroke-linejoin="round" points="26.23125 21.6854167 30.3875 25.0125 28.725 30 23.7375 30 22.0729167 25.0125"></polygon>
            <rect id="Rectangle" stroke="#000000" stroke-width="1.2" stroke-linecap="round" x="22.48125" y="10" width="7.5" height="7.5" rx="3.75"></rect>
            <rect id="Rectangle" stroke="#000000" stroke-width="1.2" stroke-linecap="round" stroke-linejoin="round" x="5.83333333" y="5.83333333" width="28.3333333" height="28.3333333" rx="4"></rect>
            <rect id="Rectangle" x="0" y="0" width="40" height="40"></rect>
        </g>
    </g>
</svg>