<svg xmlns="http://www.w3.org/2000/svg" width="18" height="18" viewBox="0 0 18 18">
    <g fill="none" fill-rule="evenodd">
        <path d="M0 0H18V18H0z" transform="rotate(-90 9 9)"/>
        <path fill="#FFF" fill-rule="nonzero" d="M9.003.875c.513 0 .936.386.993.883l.007.117v11.831l1.065-1.063c.36-.36.928-.388 1.32-.083l.094.083c.36.36.388.928.083 1.32l-.083.094-2.747 2.75c-.09.097-.201.176-.325.232-.005 0-.01.003-.016.005-.03.015-.062.026-.095.037l-.016.003c-.03.01-.06.017-.09.023l-.036.006c-.022.004-.045.006-.07.008l-.065.004h-.039c-.025 0-.05-.002-.075-.004l.095.004c-.048 0-.095-.003-.142-.01l-.07-.012-.04-.01c-.025-.006-.05-.013-.075-.022l-.024-.01c-.094-.033-.183-.082-.265-.146l-.094-.083-2.775-2.775c-.39-.39-.39-1.024 0-1.414.36-.36.928-.388 1.32-.083l.094.083 1.071 1.069V1.875c0-.552.448-1 1-1z" transform="rotate(-90 9 9)"/>
    </g>
</svg>
