<svg width="30" height="30" viewBox="0 0 30 30" fill="none" xmlns="http://www.w3.org/2000/svg">
<path fill-rule="evenodd" clip-rule="evenodd" d="M17.4593 5.43052C17.7222 5.52431 17.9725 5.63281 18.2105 5.75439C18.5011 5.90288 18.7558 6.06251 18.9771 6.22653C19.1207 6.33297 19.1894 6.39126 19.309 6.49909C20.1412 7.25299 20.3811 7.95648 20.5949 9.59093L20.5996 9.64778L20.6309 10.5439L20.687 12.3556C20.7678 14.5061 21.2862 16.6176 22.2053 18.5504C22.2451 18.6299 22.2735 18.6928 22.3316 18.8264L22.3352 18.8347C22.3995 18.9825 22.4298 19.0474 22.4688 19.1174C22.4835 19.1443 22.4985 19.1723 22.5167 19.2065L22.5619 19.2921C22.6061 19.3755 22.6341 19.4268 22.6609 19.4725C22.8362 19.7707 23.0484 20.0456 23.2925 20.2909C24.3868 21.3911 24.7374 21.9109 25.0444 23.0602L25.1773 23.4998C25.2727 23.865 25.1892 24.2537 24.9521 24.5474C24.7151 24.8411 24.3527 25.0048 24.0015 24.9891L15.8288 24.9888C16.1642 25.2408 16.3811 25.642 16.3811 26.0937C16.3811 26.8566 15.7627 27.475 14.9999 27.475C14.237 27.475 13.6186 26.8566 13.6186 26.0937C13.6186 25.6419 13.8356 25.2408 14.171 24.9888L5.9633 24.9885C5.58623 25.0048 5.22384 24.8411 4.98678 24.5474C4.74972 24.2537 4.66616 23.865 4.76795 23.4774L4.88903 23.0794C5.20224 21.908 5.55415 21.3827 6.63712 20.294C6.88113 20.0488 7.0933 19.7738 7.26835 19.4761C7.29544 19.4299 7.32347 19.3786 7.36758 19.2952L7.41283 19.2097C7.43099 19.1754 7.44602 19.1474 7.46484 19.113C7.50029 19.0502 7.53122 18.9844 7.59399 18.8415L7.60117 18.8252C7.65821 18.6953 7.68725 18.6315 7.72066 18.5656C8.64578 16.622 9.16418 14.51 9.24399 12.3616L9.30334 10.5502L9.33146 9.64236L9.33638 9.58208C9.511 8.26494 9.96237 7.29736 10.8482 6.49805C10.8451 6.50088 10.898 6.45031 10.9306 6.42013C10.9939 6.36163 11.061 6.30326 11.1367 6.24202C11.3444 6.07412 11.583 5.91243 11.859 5.76191C12.0691 5.64739 12.291 5.54442 12.525 5.4543V5C12.525 3.63309 13.6331 2.525 14.9964 2.52501C15.6544 2.52105 16.2863 2.78211 16.7496 3.24935C17.213 3.71659 17.4688 4.35067 17.4593 5V5.43052ZM13.725 5.1285V5C13.725 4.29583 14.2958 3.725 15 3.725C15.3391 3.72297 15.6613 3.85608 15.8976 4.09432C16.1338 4.33257 16.2642 4.65588 16.2594 4.99136L16.2594 5.1239C15.8616 5.05927 15.4418 5.025 14.9999 5.025C14.5481 5.025 14.1233 5.06085 13.725 5.1285ZM15.1109 26.0937C15.1109 26.0325 15.0612 25.9828 15 25.9828C14.9387 25.9828 14.889 26.0325 14.889 26.0937C14.889 26.155 14.9387 26.2047 15 26.2047C15.0612 26.2047 15.1109 26.155 15.1109 26.0937Z" fill="#333333"/>
<mask id="mask0" mask-type="alpha" maskUnits="userSpaceOnUse" x="4" y="2" width="22" height="26">
<path fill-rule="evenodd" clip-rule="evenodd" d="M17.4593 5.43052C17.7222 5.52431 17.9725 5.63281 18.2105 5.75439C18.5011 5.90288 18.7558 6.06251 18.9771 6.22653C19.1207 6.33297 19.1894 6.39126 19.309 6.49909C20.1412 7.25299 20.3811 7.95648 20.5949 9.59093L20.5996 9.64778L20.6309 10.5439L20.687 12.3556C20.7678 14.5061 21.2862 16.6176 22.2053 18.5504C22.2451 18.6299 22.2735 18.6928 22.3316 18.8264L22.3352 18.8347C22.3995 18.9825 22.4298 19.0474 22.4688 19.1174C22.4835 19.1443 22.4985 19.1723 22.5167 19.2065L22.5619 19.2921C22.6061 19.3755 22.6341 19.4268 22.6609 19.4725C22.8362 19.7707 23.0484 20.0456 23.2925 20.2909C24.3868 21.3911 24.7374 21.9109 25.0444 23.0602L25.1773 23.4998C25.2727 23.865 25.1892 24.2537 24.9521 24.5474C24.7151 24.8411 24.3527 25.0048 24.0015 24.9891L15.8288 24.9888C16.1642 25.2408 16.3811 25.642 16.3811 26.0937C16.3811 26.8566 15.7627 27.475 14.9999 27.475C14.237 27.475 13.6186 26.8566 13.6186 26.0937C13.6186 25.6419 13.8356 25.2408 14.171 24.9888L5.9633 24.9885C5.58623 25.0048 5.22384 24.8411 4.98678 24.5474C4.74972 24.2537 4.66616 23.865 4.76795 23.4774L4.88903 23.0794C5.20224 21.908 5.55415 21.3827 6.63712 20.294C6.88113 20.0488 7.0933 19.7738 7.26835 19.4761C7.29544 19.4299 7.32347 19.3786 7.36758 19.2952L7.41283 19.2097C7.43099 19.1754 7.44602 19.1474 7.46484 19.113C7.50029 19.0502 7.53122 18.9844 7.59399 18.8415L7.60117 18.8252C7.65821 18.6953 7.68725 18.6315 7.72066 18.5656C8.64578 16.622 9.16418 14.51 9.24399 12.3616L9.30334 10.5502L9.33146 9.64236L9.33638 9.58208C9.511 8.26494 9.96237 7.29736 10.8482 6.49805C10.8451 6.50088 10.898 6.45031 10.9306 6.42013C10.9939 6.36163 11.061 6.30326 11.1367 6.24202C11.3444 6.07412 11.583 5.91243 11.859 5.76191C12.0691 5.64739 12.291 5.54442 12.525 5.4543V5C12.525 3.63309 13.6331 2.525 14.9964 2.52501C15.6544 2.52105 16.2863 2.78211 16.7496 3.24935C17.213 3.71659 17.4688 4.35067 17.4593 5V5.43052ZM13.725 5.1285V5C13.725 4.29583 14.2958 3.725 15 3.725C15.3391 3.72297 15.6613 3.85608 15.8976 4.09432C16.1338 4.33257 16.2642 4.65588 16.2594 4.99136L16.2594 5.1239C15.8616 5.05927 15.4418 5.025 14.9999 5.025C14.5481 5.025 14.1233 5.06085 13.725 5.1285ZM15.1109 26.0937C15.1109 26.0325 15.0612 25.9828 15 25.9828C14.9387 25.9828 14.889 26.0325 14.889 26.0937C14.889 26.155 14.9387 26.2047 15 26.2047C15.0612 26.2047 15.1109 26.155 15.1109 26.0937Z" fill="white"/>
</mask>
<g mask="url(#mask0)">
<rect width="30" height="30" fill="white"/>
</g>
</svg>
