<svg width="18" height="18" viewBox="0 0 18 18" fill="none" xmlns="http://www.w3.org/2000/svg">
<path fill-rule="evenodd" clip-rule="evenodd" d="M13.5971 2.00826L13.5951 2.0103L11.8367 3.76512H3.75062C2.93048 3.76512 2.26562 4.42998 2.26562 5.25012V15.0001C2.26562 15.8203 2.93048 16.4851 3.75062 16.4851H12.7506C13.5708 16.4851 14.2356 15.8203 14.2356 15.0001V6.15677L15.9893 4.4021C16.6412 3.73632 16.6352 2.67394 15.9784 2.01818C15.3217 1.36241 14.2593 1.35799 13.5971 2.00826ZM13.5156 6.87717L7.579 12.8171C7.53287 12.8633 7.47506 12.896 7.41175 12.9119L4.89737 13.5409C4.63455 13.6067 4.39601 13.3695 4.46027 13.1063L5.07527 10.5872C5.09093 10.5231 5.12395 10.4645 5.1707 10.4178L11.1153 4.48512H3.75062C3.32813 4.48512 2.98562 4.82762 2.98562 5.25012V15.0001C2.98562 15.4226 3.32813 15.7651 3.75062 15.7651H12.7506C13.1731 15.7651 13.5156 15.4226 13.5156 15.0001V6.87717Z" fill="#333333"/>
<mask id="mask0" mask-type="alpha" maskUnits="userSpaceOnUse" x="2" y="1" width="15" height="16">
<path fill-rule="evenodd" clip-rule="evenodd" d="M13.5971 2.00826L13.5951 2.0103L11.8367 3.76512H3.75062C2.93048 3.76512 2.26562 4.42998 2.26562 5.25012V15.0001C2.26562 15.8203 2.93048 16.4851 3.75062 16.4851H12.7506C13.5708 16.4851 14.2356 15.8203 14.2356 15.0001V6.15677L15.9893 4.4021C16.6412 3.73632 16.6352 2.67394 15.9784 2.01818C15.3217 1.36241 14.2593 1.35799 13.5971 2.00826ZM13.5156 6.87717L7.579 12.8171C7.53287 12.8633 7.47506 12.896 7.41175 12.9119L4.89737 13.5409C4.63455 13.6067 4.39601 13.3695 4.46027 13.1063L5.07527 10.5872C5.09093 10.5231 5.12395 10.4645 5.1707 10.4178L11.1153 4.48512H3.75062C3.32813 4.48512 2.98562 4.82762 2.98562 5.25012V15.0001C2.98562 15.4226 3.32813 15.7651 3.75062 15.7651H12.7506C13.1731 15.7651 13.5156 15.4226 13.5156 15.0001V6.87717Z" fill="white"/>
</mask>
<g mask="url(#mask0)">
<rect width="18" height="18" fill="#666666"/>
</g>
</svg>
