<?xml version="1.0" encoding="UTF-8"?>
<svg viewBox="0 0 100 100" version="1.1" xmlns="http://www.w3.org/2000/svg" xmlns:xlink="http://www.w3.org/1999/xlink">
    <defs>
        <path d="M17.6661858,39.6259057 L48.9943108,54.4331973 C49.5358272,54.689146 50.16355,54.6889239 50.7048851,54.4325921 L81.9757185,39.6253005 C83.5010346,38.9030363 83.5011822,36.7327043 81.9759644,36.0102327 L50.705131,21.1977327 C50.1636587,20.9412457 49.5357188,20.9410235 48.9940651,21.1971272 L17.6659401,36.0096272 C16.1390163,36.7315841 16.1391639,38.9041562 17.6661858,39.6259057 Z M23.2004526,37.8173904 L49.8481753,25.2178686 L76.447166,37.8173905 L49.8481756,50.4124821 L23.2004526,37.8173904 Z M58.0543794,68.5464952 C58.6047756,69.3725253 59.6777255,69.6698931 60.5748062,69.2450308 L91.8508479,54.4325308 C92.9537025,53.910213 93.3357712,52.530561 92.6587122,51.5153295 L82.7837122,36.7080378 C82.1708581,35.7890799 80.9290791,35.5409338 80.0101212,36.1537878 C79.0911633,36.7666419 78.8430171,38.0084209 79.4558712,38.9273788 L88.046283,51.8084658 L60.4247403,64.8901756 L51.513329,51.5160048 C50.7218582,50.3281722 48.9766177,50.3279597 48.1848577,51.5155996 L39.2677916,64.8911989 L11.599787,51.8070943 L20.185024,38.9269736 C20.7976543,38.0078665 20.5492057,36.766148 19.6300986,36.1535177 C18.7109915,35.5408874 17.469273,35.7893359 16.8566427,36.708443 L6.98685103,51.5157347 C6.3098891,52.5313562 6.69263081,53.9112315 7.79603225,54.4330262 L39.1189489,69.2455262 C40.0157112,69.6696021 41.0878078,69.372277 41.6380589,68.5469004 L49.8485193,56.2312098 L58.0543794,68.5464952 Z M39.051582,15.4219618 L48.4646769,24.4487335 C49.2619139,25.213251 50.527966,25.1867267 51.2924835,24.3894897 C52.057001,23.5922528 52.0304767,22.3262007 51.2332397,21.5616831 L40.8269897,11.5825165 C40.2288344,11.0089101 39.3388797,10.8636278 38.5893605,11.2172306 L8.3289438,25.4932723 C7.12188253,26.062731 6.80062991,27.6321854 7.68686021,28.6301213 L17.0254019,39.1457463 C17.758857,39.9716503 19.0229673,40.0465949 19.8488713,39.3131398 C20.6747753,38.5796847 20.7497199,37.3155744 20.0162648,36.4896704 L12.4513484,27.9712286 L39.051582,15.4219618 Z M60.4432097,15.4219618 L87.0427461,27.9708998 L79.4736863,36.4892564 C78.7400025,37.3149574 78.8145972,38.5790884 79.6402981,39.3127721 C80.465999,40.0464558 81.73013,39.9718611 82.4638137,39.1461602 L91.8075637,28.6305352 C92.6942236,27.6326722 92.3731179,26.0628294 91.1658479,25.4932723 L60.9054312,11.2172306 C60.1559119,10.8636278 59.2659572,11.0089101 58.6678019,11.5825165 L48.2615519,21.5616831 C47.464315,22.3262007 47.4377906,23.5922528 48.2023081,24.3894897 C48.9668257,25.1867267 50.2328778,25.213251 51.0301147,24.4487335 L60.4432097,15.4219618 Z M49.8486659,83.3725747 L20.7916667,69.5140965 L20.7916667,57.5625 C20.7916667,56.4579305 19.8962362,55.5625 18.7916667,55.5625 C17.6870972,55.5625 16.7916667,56.4579305 16.7916667,57.5625 L16.7916667,70.7760417 C16.7916667,71.5470163 17.2348154,72.2493427 17.9306951,72.5812364 L48.9879867,87.3937364 C49.5327501,87.6535564 50.1657117,87.6534729 50.7104064,87.393509 L82.0958231,72.4143424 C82.7914431,72.0823472 83.234375,71.380159 83.234375,70.609375 L83.234375,57.3958333 C83.234375,56.2912638 82.3389445,55.3958333 81.234375,55.3958333 C80.1298055,55.3958333 79.234375,56.2912638 79.234375,57.3958333 L79.234375,69.3477988 L49.8486659,83.3725747 Z M47.8489583,52.625 L47.8489583,84.7447917 C47.8489583,85.8493612 48.7443888,86.7447917 49.8489583,86.7447917 C50.9535278,86.7447917 51.8489583,85.8493612 51.8489583,84.7447917 L51.8489583,52.625 C51.8489583,51.5204305 50.9535278,50.625 49.8489583,50.625 C48.7443888,50.625 47.8489583,51.5204305 47.8489583,52.625 Z" id="path-1"></path>
    </defs>
    <g id="Drupal/Numerical/bundles" stroke="none" stroke-width="1" fill="none" fill-rule="evenodd">
        <rect id="Rectangle" x="0" y="0" width="100" height="100"></rect>
        <g id="Group">
            <rect id="Rectangle" x="0" y="0" width="100" height="100"></rect>
            <mask id="mask-2" fill="white">
                <use xlink:href="#path-1"></use>
            </mask>
            <use id="Mask" fill="#333333" fill-rule="nonzero" xlink:href="#path-1"></use>
            <g id="colour-mask" mask="url(#mask-2)" fill="#282828">
              <rect id="Rectangle" x="0" y="0" width="100" height="100"></rect>
            </g>
        </g>
    </g>
</svg>
