<svg xmlns="http://www.w3.org/2000/svg" width="30" height="30" viewBox="0 0 30 30">
    <g fill="#ffffff" fill-rule="evenodd">
        <path d="M0 0H30V30H0z"/>
        <path fill="#cccccc" fill-rule="nonzero" d="M13.75 21.275c-1.367 0-2.475 1.108-2.475 2.475s1.108 2.475 2.475 2.475 2.475-1.108 2.475-2.475-1.108-2.475-2.475-2.475zm0 1.2c.704 0 1.275.57 1.275 1.275 0 .704-.57 1.275-1.275 1.275-.704 0-1.275-.57-1.275-1.275 0-.704.57-1.275 1.275-1.275zM21.25 21.275c-1.367 0-2.475 1.108-2.475 2.475s1.108 2.475 2.475 2.475 2.475-1.108 2.475-2.475-1.108-2.475-2.475-2.475zm0 1.2c.704 0 1.275.57 1.275 1.275 0 .704-.57 1.275-1.275 1.275-.704 0-1.275-.57-1.275-1.275 0-.704.57-1.275 1.275-1.275zM7.188 3.775c.226 0 .43.127.532.324l.037.088.688 2.088h18.43c.375 0 .65.337.593.693l-.021.09-3.594 11.25c-.07.217-.255.374-.476.41l-.096.007H11.72c-.227 0-.431-.127-.533-.324l-.037-.088L6.753 4.975H3.125c-.298 0-.546-.218-.592-.503l-.008-.097c0-.298.218-.546.503-.592l.097-.008h4.063zm18.865 3.7H8.84l3.312 10.05h10.69l3.211-10.05z"/>
    </g>
</svg>
