<svg xmlns="http://www.w3.org/2000/svg" width="30" height="30" viewBox="0 0 30 30">
    <g fill="none" fill-rule="evenodd">
        <path d="M0 0H29.643V30H0z"/>
        <path fill="#FFF" fill-rule="nonzero" d="M18.615 2.525c1.988 0 3.6 1.612 3.6 3.6v17.75c0 1.988-1.612 3.6-3.6 3.6h-7.587c-1.988 0-3.6-1.612-3.6-3.6V6.125c0-1.988 1.612-3.6 3.6-3.6zm0 1.2h-7.587c-1.325 0-2.4 1.075-2.4 2.4v17.75c0 1.325 1.075 2.4 2.4 2.4h7.587c1.325 0 2.4-1.075 2.4-2.4V6.125c0-1.325-1.075-2.4-2.4-2.4zm-1.94 20.05c.33 0 .6.269.6.6 0 .298-.218.546-.504.592l-.097.008H12.97c-.332 0-.6-.269-.6-.6 0-.298.217-.546.502-.592l.098-.008h3.705z"/>
    </g>
</svg>
