<?xml version="1.0" encoding="UTF-8"?>
<svg width="100px" height="100px" viewBox="0 0 100 100" version="1.1" xmlns="http://www.w3.org/2000/svg" xmlns:xlink="http://www.w3.org/1999/xlink">
    <title>Drupal/Cart/clock</title>
    <defs>
        <path d="M50,8.41666667 C72.9658408,8.41666667 91.5833333,27.0341592 91.5833333,50 C91.5833333,72.9658408 72.9658408,91.5833333 50,91.5833333 C27.0341592,91.5833333 8.41666667,72.9658408 8.41666667,50 C8.41666667,27.0341592 27.0341592,8.41666667 50,8.41666667 Z M50,20.9166667 C48.8954305,20.9166667 48,21.8120972 48,22.9166667 L48,50 C48,51.1045695 48.8954305,52 50,52 L77.0833333,52 C78.1879028,52 79.0833333,51.1045695 79.0833333,50 C79.0833333,48.8954305 78.1879028,48 77.0833333,48 L52,48 L52,22.9166667 C52,21.8120972 51.1045695,20.9166667 50,20.9166667 Z" id="path-1"></path>
    </defs>
    <g id="Drupal/Cart/clock" stroke="none" stroke-width="1" fill="none" fill-rule="evenodd">
        <rect id="Rectangle" x="0" y="0" width="100" height="100"></rect>
        <g id="Group">
            <mask id="mask-2" fill="white">
                <use xlink:href="#path-1"></use>
            </mask>
            <use id="Mask" fill="#333333" fill-rule="nonzero" xlink:href="#path-1"></use>
            <g mask="url(#mask-2)" fill="#282828" id="COLOUR-MASK">
                <g>
                    <rect id="Rectangle" x="0" y="0" width="100" height="100"></rect>
                </g>
            </g>
            <rect id="Rectangle" mask="url(#mask-2)" x="0" y="0" width="100" height="100"></rect>
        </g>
    </g>
</svg>