<svg xmlns="http://www.w3.org/2000/svg" width="30" height="30" viewBox="0 0 30 30">
    <g fill="none" fill-rule="evenodd">
        <path d="M0 0H30V30H0z"/>
        <path fill="#000" fill-rule="nonzero" d="M7.946 6.897l.084.073L15 13.939l6.97-6.97c.293-.292.767-.292 1.06 0 .267.267.29.684.073.977l-.073.084L16.061 15l6.97 6.97c.292.293.292.767 0 1.06-.267.267-.684.29-.977.073l-.084-.073L15 16.061l-6.97 6.97c-.293.292-.767.292-1.06 0-.267-.267-.29-.684-.073-.977l.073-.084L13.939 15l-6.97-6.97c-.292-.293-.292-.767 0-1.06.267-.267.684-.29.977-.073z"/>
    </g>
</svg>
