<?xml version="1.0" encoding="UTF-8"?>
<svg width="100px" height="100px" viewBox="0 0 100 100" version="1.1" xmlns="http://www.w3.org/2000/svg" xmlns:xlink="http://www.w3.org/1999/xlink">
    <title>Drupal/Contact us/close</title>
    <defs>
        <path d="M49.5833333,8 C72.5491742,8 91.1666667,26.6174925 91.1666667,49.5833333 C91.1666667,72.5491742 72.5491742,91.1666667 49.5833333,91.1666667 C26.6174925,91.1666667 8,72.5491742 8,49.5833333 C8,26.6174925 26.6174925,8 49.5833333,8 Z M35.4453854,34.8561298 C34.2738125,36.0277026 34.2738125,37.9271976 35.4453854,39.0987705 L45.757,49.41 L35.4453852,59.7227185 C34.2738123,60.8942914 34.2738123,62.7937863 35.4453852,63.9653592 C36.6169581,65.136932 38.516453,65.136932 39.6880259,63.9653592 L49.999,53.653 L60.3119741,63.9653592 C61.483547,65.136932 63.3830419,65.136932 64.5546148,63.9653592 C65.7261877,62.7937863 65.7261877,60.8942914 64.5546148,59.7227185 L54.242,49.41 L64.5546146,39.0987705 C65.7261875,37.9271976 65.7261875,36.0277026 64.5546146,34.8561298 C63.3830417,33.6845569 61.4835468,33.6845569 60.3119739,34.8561298 L50,45.168 L39.6880261,34.8561298 C38.5164532,33.6845569 36.6169583,33.6845569 35.4453854,34.8561298 Z" id="path-1"></path>
    </defs>
    <g id="Drupal/Contact-us/close" stroke="none" stroke-width="1" fill="none" fill-rule="evenodd">
        <rect id="Rectangle" x="0" y="0" width="100" height="100"></rect>
        <g id="Group">
            <g id="Icons/Status/wrong-circle/Solid-colour-mask">
                <rect id="Rectangle" x="0" y="0" width="100" height="100"></rect>
                <mask id="mask-2" fill="white">
                    <use xlink:href="#path-1"></use>
                </mask>
                <use id="Mask" fill="#333333" fill-rule="nonzero" xlink:href="#path-1"></use>
                <g id="Group" mask="url(#mask-2)" fill="#282828">
                    <g id="COLOUR-MASK">
                        <rect id="Rectangle" x="0" y="0" width="100" height="100"></rect>
                    </g>
                </g>
            </g>
        </g>
    </g>
</svg>