<?xml version="1.0" encoding="UTF-8"?>
<svg width="100px" height="100px" viewBox="0 0 100 100" version="1.1" xmlns="http://www.w3.org/2000/svg" xmlns:xlink="http://www.w3.org/1999/xlink">
    <title>Drupal/Deal details/combo</title>
    <defs>
        <path d="M24.9173529,10.3714929 C25.3278519,10.9443362 27.6525823,14.4665297 30.0800926,18.1684538 L30.5507303,18.8864557 C32.9839627,22.6000428 35.4031071,26.3146751 35.996712,27.2607332 C37.117974,29.0496168 36.8111568,31.5425066 35.5416812,33.8970648 C35.1718701,34.5829713 34.3628569,35.9862855 33.2286009,37.9209519 L33.1751358,38.0121279 C32.6206105,38.9575966 32.0267876,39.9645316 31.4330073,40.9677037 C31.3795853,41.0579584 31.3271436,41.1465264 31.275766,41.2332688 C31.7165033,41.8726647 32.2724939,42.6287888 32.9545757,43.5012995 C35.149128,46.3085441 38.1446394,49.685093 42.071573,53.6391797 C43.2097832,54.8048166 44.9662993,56.3281777 47.1957786,58.1073257 C47.7070952,58.5153617 48.2400538,58.9342547 48.7924208,59.3625935 C50.6541549,60.8062948 52.6525601,62.2935406 54.6514366,63.7395016 C55.1738528,64.1174106 55.6683187,64.472201 56.1278163,64.7995197 L61.6544119,60.6276927 C61.7461987,60.5584062 61.8437905,60.4971655 61.9461024,60.4446514 C64.3058646,59.233446 66.8009006,58.9757522 68.6092592,60.0763305 C70.2294879,61.0921479 84.2369255,70.4280671 85.4944278,71.3246718 C87.8193387,72.9823438 88.1132111,76.6792088 86.0229858,79.5764197 C82.0472074,85.0871505 75.4984051,91.7163167 71.9452295,91.5819038 C70.2901514,91.519294 69.1171317,91.4027098 67.3286989,91.0210647 C64.7501404,90.4708096 61.9023232,89.4988334 58.7282534,87.9948765 C50.3941891,84.04598 40.7493701,76.8969142 29.6601826,65.7490165 C18.5706704,54.6007924 11.5064689,44.942621 7.65944483,36.62826 C6.19406742,33.4612207 5.26154512,30.6248401 4.75098587,28.060353 C4.39736836,26.2841683 4.30181142,25.1373321 4.26571917,23.4805865 C4.18947691,19.9423782 11.0589786,13.5160179 16.6530388,9.72004845 C19.5824652,7.73222344 23.2485353,8.09373532 24.9173529,10.3714929 Z M18.8990445,13.0299515 C17.4422869,14.0184657 14.6407086,16.2736211 12.4867166,18.2886623 C9.88872413,20.7190621 8.2526511,22.8310393 8.26464735,23.3939402 C8.33930221,26.814707 8.95341019,29.8993088 11.2896814,34.9485629 C14.925686,42.806859 21.7169784,52.0919093 32.4960674,62.9280668 C43.2778849,73.7669672 52.5551678,80.6436027 60.4410174,84.3801235 C65.5167116,86.7851195 68.6536219,87.4545248 72.0964372,87.5852351 C72.6929494,87.6073283 74.8509487,86.0278799 77.3584385,83.4896192 C79.4230839,81.3996375 81.740412,78.6757773 82.7790975,77.2360803 C83.6510676,76.0274635 83.5579949,74.8566239 83.1722389,74.5815782 C82.60513,74.177227 79.1466739,71.8583601 75.5136731,69.4362574 L74.7855507,68.9509971 L74.7855507,68.9509971 L74.0576036,68.4662038 C70.5473978,66.1293532 67.212583,63.9217065 66.5072368,63.4793861 C66.1428775,63.2576769 65.105139,63.3547401 63.917933,63.9307398 L57.3716298,68.8723073 C56.6807239,69.3938471 55.7327147,69.4117009 55.0226614,68.9165452 C54.8843267,68.8200775 54.6283209,68.6402187 54.2713923,68.3873318 C53.6783426,67.9671508 53.0179719,67.4947378 52.3069944,66.980426 C50.2746941,65.5102866 48.2419225,63.9974648 46.3412248,62.5235488 C45.7746055,62.0841579 45.2271011,61.6538323 44.7007929,61.2338328 C42.352971,59.3602462 40.4877644,57.7426218 39.2215655,56.4458093 C35.1978085,52.3943341 32.0976167,48.8997892 29.8032368,45.9648463 C28.3989354,44.1684811 27.5657434,42.937653 27.1863528,42.2752131 C26.8279087,41.6493472 26.8342068,40.878967 27.2028354,40.2590451 L27.2147164,40.2390643 L27.2147164,40.2390643 L27.2369136,40.2017191 C27.2616292,40.1601209 27.3010234,40.0937697 27.4192061,39.8947161 C27.5916459,39.6041503 27.7838254,39.2799289 27.9908001,38.930252 C28.5820629,37.9313331 29.173283,36.9288117 29.7247978,35.9884758 L29.7779189,35.8978865 C30.8848372,34.0098493 31.682846,32.6256233 32.0208188,31.9987685 C32.67864,30.7786757 32.8103221,29.7087588 32.6079555,29.3858988 C31.4231272,27.4975786 22.4546196,13.8019541 21.6783841,12.718541 C21.3765044,12.3065416 20.144201,12.1850239 18.8990445,13.0299515 Z M87.515625,4.25 C92.0719742,4.25 95.765625,7.94365081 95.765625,12.5 L95.765625,12.5 L95.765625,33.3333333 C95.765625,37.8896825 92.0719742,41.5833333 87.515625,41.5833333 L87.515625,41.5833333 L87.4322917,41.5833333 L87.4322917,50.9947917 C87.4322917,52.7485472 85.33583,53.6530531 84.0600196,52.4497382 L84.0600196,52.4497382 L72.5389523,41.5833333 L50.015625,41.5833333 C45.4592758,41.5833333 41.765625,37.8896825 41.765625,33.3333333 L41.765625,33.3333333 L41.765625,12.5 C41.765625,7.94365081 45.4592758,4.25 50.015625,4.25 L50.015625,4.25 Z M87.515625,8.25 L50.015625,8.25 C47.6684148,8.25 45.765625,10.1527898 45.765625,12.5 L45.765625,12.5 L45.765625,33.3333333 C45.765625,35.6805435 47.6684148,37.5833333 50.015625,37.5833333 L50.015625,37.5833333 L73.3333333,37.5833333 C73.8435349,37.5833333 74.3344474,37.7783191 74.7056054,38.1283868 L74.7056054,38.1283868 L83.4322917,46.3591959 L83.4322917,39.5833333 C83.4322917,38.4787638 84.3277222,37.5833333 85.4322917,37.5833333 L85.4322917,37.5833333 L87.515625,37.5833333 C89.8628352,37.5833333 91.765625,35.6805435 91.765625,33.3333333 L91.765625,33.3333333 L91.765625,12.5 C91.765625,10.1527898 89.8628352,8.25 87.515625,8.25 L87.515625,8.25 Z M81.265625,25.0833333 C82.3701945,25.0833333 83.265625,25.9787638 83.265625,27.0833333 C83.265625,28.1879028 82.3701945,29.0833333 81.265625,29.0833333 L81.265625,29.0833333 L56.265625,29.0833333 C55.1610555,29.0833333 54.265625,28.1879028 54.265625,27.0833333 C54.265625,25.9787638 55.1610555,25.0833333 56.265625,25.0833333 L56.265625,25.0833333 Z M81.265625,16.75 C82.3701945,16.75 83.265625,17.6454305 83.265625,18.75 C83.265625,19.8545695 82.3701945,20.75 81.265625,20.75 L81.265625,20.75 L56.265625,20.75 C55.1610555,20.75 54.265625,19.8545695 54.265625,18.75 C54.265625,17.6454305 55.1610555,16.75 56.265625,16.75 L56.265625,16.75 Z" id="path-1"></path>
    </defs>
    <g id="Drupal/Deal-details/combo" stroke="none" stroke-width="1" fill="none" fill-rule="evenodd">
        <rect id="Rectangle" x="0" y="0" width="100" height="100"></rect>
        <g id="Group">
            <mask id="mask-2" fill="white">
                <use xlink:href="#path-1"></use>
            </mask>
            <use id="Mask" fill="#333333" fill-rule="nonzero" xlink:href="#path-1"></use>
            <g mask="url(#mask-2)" fill="#282828" id="COLOUR-MASK">
                <g>
                    <rect id="Rectangle" x="0" y="0" width="100" height="100"></rect>
                </g>
            </g>
            <rect id="Rectangle" mask="url(#mask-2)" x="0" y="0" width="100" height="100"></rect>
        </g>
    </g>
</svg>