<svg xmlns="http://www.w3.org/2000/svg" width="30" height="30" viewBox="0 0 30 30">
    <g fill="none" fill-rule="evenodd">
        <path d="M0 0H30V30H0z"/>
        <path fill="#FFF" fill-rule="nonzero" d="M15 21.644c.677 0 1.225.548 1.225 1.225 0 .676-.548 1.225-1.225 1.225s-1.225-.549-1.225-1.225c0-.677.548-1.225 1.225-1.225zm.025-5.469c2.009 0 3.936.799 5.356 2.22.234.234.234.614 0 .848-.235.234-.615.234-.85 0-1.194-1.196-2.815-1.868-4.506-1.868-1.69 0-3.312.672-4.507 1.868-.234.234-.614.234-.848 0-.235-.234-.235-.614 0-.848 1.42-1.421 3.346-2.22 5.355-2.22zm.022-5c3.342 0 6.547 1.33 8.909 3.693.234.235.234.614 0 .849-.235.234-.615.234-.85 0-2.136-2.14-5.036-3.341-8.06-3.341-3.023 0-5.922 1.201-8.06 3.34-.233.235-.613.235-.848 0-.234-.234-.234-.613 0-.848 2.362-2.364 5.567-3.692 8.909-3.692zm-.047-5c4.614 0 9.039 1.834 12.3 5.098.234.234.233.614 0 .848-.235.235-.615.234-.85 0C23.416 9.082 19.296 7.375 15 7.375c-4.295 0-8.415 1.707-11.45 4.746-.235.234-.615.235-.85 0-.233-.234-.234-.614 0-.848C5.962 8.009 10.387 6.175 15 6.175z"/>
    </g>
</svg>
