<svg width="24" height="25" viewBox="0 0 24 25" fill="none" xmlns="http://www.w3.org/2000/svg">
<path d="M5.40234 22.0137H18.1986C19.6398 22.0137 20.8236 20.8962 20.1823 19.3324C21.6511 17.6387 20.8761 16.3574 20.8761 16.3574C20.8761 16.3574 22.2648 14.8499 20.9161 13.3824C21.2648 12.4012 21.4661 11.5337 20.1861 10.6662C18.9061 9.79867 15.8636 10.6387 14.7511 10.7799C13.2661 10.3049 17.6986 3.13867 12.9811 3.01367C12.9611 3.06492 12.4311 2.88867 12.5811 4.74867C12.5811 6.68992 8.91609 11.0137 7.71734 12.6962" stroke="#999999" stroke-width="1.5" stroke-linejoin="round"/>
<path fill-rule="evenodd" clip-rule="evenodd" d="M8.5 22.0137H5C3.61929 22.0137 2.5 20.8944 2.5 19.5137V14.5137C2.5 13.133 3.61929 12.0137 5 12.0137H6C6.66304 12.0137 7.29893 12.2771 7.76777 12.7459C8.23661 13.2147 8.5 13.8506 8.5 14.5137V22.0137Z" stroke="#999999" stroke-width="1.5" stroke-linecap="round" stroke-linejoin="round"/>
</svg>
