<?xml version="1.0" encoding="UTF-8"?>
<svg width="100px" height="100px" viewBox="0 0 100 100" version="1.1" xmlns="http://www.w3.org/2000/svg" xmlns:xlink="http://www.w3.org/1999/xlink">
    <title>Drupal/Deal details/data</title>
    <defs>
        <path d="M37.843397,8.97389202 L63.3036435,33.4156667 L77.0833333,33.4166667 C78.1879028,33.4166667 79.0833333,34.3120972 79.0833333,35.4166667 L79.0833333,62.5833333 L89.5833333,62.5833333 C91.3848875,62.5833333 92.2680154,64.7784743 90.968397,66.026108 L64.9267303,91.026108 C64.1528062,91.7690751 62.9305271,91.7690751 62.156603,91.026108 L36.6946435,66.5826667 L22.9166667,66.5833333 C21.8120972,66.5833333 20.9166667,65.6879028 20.9166667,64.5833333 L20.9166667,37.4166667 L10.4166667,37.4166667 C8.61511246,37.4166667 7.73198465,35.2215257 9.03160301,33.973892 L35.0732697,8.97389202 C35.8471938,8.23092488 37.0694729,8.23092488 37.843397,8.97389202 Z M52,37.4166667 L52,64.5833333 C52,65.6376951 51.1841222,66.5014985 50.1492623,66.5778476 L50,66.5833333 L50,66.5833333 L42.4712872,66.5833333 L63.5416667,86.8108976 L84.6120461,66.5833333 L77.0833333,66.5833333 C75.9787638,66.5833333 75.0833333,65.6879028 75.0833333,64.5833333 L75.0833333,37.4166667 L52,37.4166667 Z M36.4583333,13.1891024 L15.3879539,33.4166667 L22.9166667,33.4166667 C24.0212362,33.4166667 24.9166667,34.3120972 24.9166667,35.4166667 L24.9166667,62.5833333 L48,62.5833333 L48,35.4166667 C48,34.3120972 48.8954305,33.4166667 50,33.4166667 L57.5287128,33.4166667 L36.4583333,13.1891024 Z" id="path-1"></path>
    </defs>
    <g id="Drupal/Deal-details/data" stroke="none" stroke-width="1" fill="none" fill-rule="evenodd" transform="translate(0.000000, 0.000000)">
        <rect id="Rectangle" x="0" y="0" width="100" height="100"></rect>
        <g id="Group">
            <rect id="Rectangle" x="0" y="0" width="100" height="100"></rect>
            <mask id="mask-2" fill="white">
                <use xlink:href="#path-1"></use>
            </mask>
            <use id="Mask" fill="#333333" fill-rule="nonzero" xlink:href="#path-1"></use>
            <g mask="url(#mask-2)" fill="#282828" id="COLOUR-MASK">
                <g>
                    <rect id="Rectangle" x="0" y="0" width="100" height="100"></rect>
                </g>
            </g>
        </g>
    </g>
</svg>