<svg width="27" height="34" viewBox="0 0 27 34" fill="none" xmlns="http://www.w3.org/2000/svg">
<path fill-rule="evenodd" clip-rule="evenodd" d="M0.825456 3.17922L13.3255 0.385473C13.4404 0.35979 13.5595 0.35979 13.6744 0.385473L26.1744 3.17922C26.54 3.26093 26.7999 3.58537 26.7999 3.95996V20.0683C26.7999 21.5528 26.0546 22.951 24.386 25.1466C23.2427 26.6586 21.6413 28.1829 19.6277 29.6808C17.0942 31.5669 15.1036 32.9063 13.8665 33.544C13.6363 33.6626 13.363 33.6625 13.1329 33.5437C11.9026 32.9085 9.9166 31.5747 7.36952 29.6871C5.3497 28.1701 3.75246 26.6519 2.61301 25.1565C0.952206 22.9711 0.199951 21.5544 0.199951 20.0683V3.95996C0.199951 3.58537 0.459881 3.26093 0.825456 3.17922ZM17.8499 10.3017C17.2937 8.36083 15.5189 7.02325 13.4999 7.02325C11.4809 7.02325 9.70622 8.36083 9.15003 10.3017C8.64702 12.057 9.25071 13.9216 10.6375 15.0531L8.99189 22.9212C8.98441 22.9569 8.97938 22.9932 8.97686 23.0296C8.93468 23.638 9.15587 24.2351 9.58417 24.6692C10.0066 25.0973 10.5904 25.3261 11.1905 25.2995H15.8087C16.4067 25.3241 16.988 25.096 17.4099 24.6704C17.8372 24.2393 18.0604 23.6464 18.0235 23.0405C18.0207 22.9947 18.014 22.9493 18.0034 22.9047L17.0971 19.0797L16.3521 15.0615C17.7462 13.9308 18.3541 12.0613 17.8499 10.3017ZM16.2735 23.5441C16.1669 23.6515 16.0197 23.7085 15.8686 23.7006L15.827 23.6995H11.1708L11.1261 23.7008C10.9757 23.7092 10.8289 23.6526 10.7231 23.5454C10.6272 23.4482 10.5734 23.3181 10.5718 23.1827L12.3101 14.8717C12.3787 14.5433 12.2353 14.207 11.9507 14.0293C10.8437 13.3381 10.3286 11.9971 10.6881 10.7425C11.0476 9.48787 12.1948 8.62325 13.4999 8.62325C14.805 8.62325 15.9522 9.48787 16.3118 10.7425C16.6713 11.9971 16.1561 13.3381 15.0491 14.0293C14.7702 14.2035 14.6263 14.5306 14.6863 14.8539L15.5321 19.4101L16.427 23.1912C16.4217 23.3232 16.3674 23.4493 16.2735 23.5441Z" fill="#333333"/>
</svg>
