<?xml version="1.0" encoding="UTF-8"?>
<svg width="100px" height="100px" viewBox="0 0 100 100" version="1.1" xmlns="http://www.w3.org/2000/svg" xmlns:xlink="http://www.w3.org/1999/xlink">
    <title>Icons/Buying &amp; shopping/delivery/4px colour mask</title>
    <defs>
        <path d="M62,35.3333333 L82.5488949,35.3333333 L87.1666667,48.2630942 L87.1666667,60.40625 C87.1666667,62.7534602 85.2638769,64.65625 82.9166667,64.65625 L76.2552083,64.65625 C75.1506388,64.65625 74.2552083,65.5516805 74.2552083,66.65625 L74.2552083,66.6979167 C74.2552083,66.8336676 74.2690295,66.9690657 74.2964579,67.1020168 C74.3939249,67.5744576 74.4583353,68.0530937 74.4892312,68.5344437 C74.459637,70.8561781 72.5683401,72.7291667 70.2395833,72.7291667 C67.8923731,72.7291667 65.9895833,70.8263769 65.9895833,68.4791667 C65.9890509,68.0451594 66.0470748,67.6155357 66.1620658,67.1995909 C66.514229,65.9257478 65.5560009,64.6666667 64.234375,64.6666667 L62,64.6666667 L62,35.3333333 Z M62,31.3333333 L62,31.25 C62,26.6936508 58.3063492,23 53.75,23 L16.25,23 C11.6936508,23 8,26.6936508 8,31.25 L8,60.4166667 C8,64.9730159 11.6936508,68.6666667 16.25,68.6666667 L16.3316766,68.6666667 C16.3370234,73.1743124 19.9748352,76.9035901 24.5413109,76.9995585 C29.1777549,76.9038583 32.8092839,73.1951267 32.834486,68.6666667 L61.9916211,68.6666667 C62.0900604,73.1351527 65.7451084,76.7291667 70.2395833,76.7291667 C74.7367572,76.7291667 78.3934956,73.130835 78.4877205,68.65625 L82.9166667,68.65625 C87.4730159,68.65625 91.1666667,64.9625992 91.1666667,60.40625 L91.1666667,47.9166667 C91.1666667,47.6874218 91.1272539,47.4598834 91.0501505,47.2439939 L85.8418172,32.6606605 C85.5575365,31.8646746 84.8035606,31.3333333 83.9583333,31.3333333 L62,31.3333333 Z M30.578125,64.6666667 C29.2570879,64.6666667 28.2989535,65.924699 28.6500568,67.1982238 C28.767716,67.6249982 28.8293535,68.0652662 28.8334176,68.507944 C28.8816315,70.9486208 26.9606952,72.9495961 24.5413109,73.0004415 C22.2059715,72.9495961 20.2850352,70.9486208 20.3329414,68.5291766 C20.3333314,68.0554019 20.3925965,67.623261 20.5094872,67.2051194 C20.8659454,65.9299966 19.9073427,64.6666667 18.5833333,64.6666667 L16.25,64.6666667 C13.9027898,64.6666667 12,62.7638769 12,60.4166667 L12,31.25 C12,28.9027898 13.9027898,27 16.25,27 L53.75,27 C56.0972102,27 58,28.9027898 58,31.25 L58,64.6666667 L30.578125,64.6666667 Z" id="path-1"></path>
    </defs>
    <g id="Icons/Buying-&amp;-shopping/delivery/4px-colour-mask" stroke="none" stroke-width="1" fill="none" fill-rule="evenodd">
        <rect id="Rectangle" x="0" y="0" width="100" height="100"></rect>
        <mask id="mask-2" fill="white">
            <use xlink:href="#path-1"></use>
        </mask>
        <use id="Mask" fill="#ffffff" fill-rule="nonzero" xlink:href="#path-1"></use>
        <g id="Group" mask="url(#mask-2)" fill="#ffffff">
            <g id="COLOUR-MASK">
                <rect id="Rectangle" x="0" y="0" width="100" height="100"></rect>
            </g>
        </g>
    </g>
</svg>