<svg xmlns="http://www.w3.org/2000/svg" xmlns:xlink="http://www.w3.org/1999/xlink" width="80" height="80" viewBox="0 0 80 80">
    <defs>
        <path id="ejdeaeu2na" d="M67.882 35.168c.568-.677 1.577-.766 2.254-.198 2.282 1.913 3.547 4.12 3.547 6.488 0 8.194-15.139 14.1-33.654 14.1-.36 0-.65.003-1.37.013l3.38 3.38c.625.625.626 1.638.001 2.263s-1.638.626-2.263.001l-6.016-6.012c-.385-.312-.62-.798-.592-1.33.017-.384.172-.764.466-1.059l6.142-6.141c.625-.625 1.638-.625 2.263 0s.625 1.638 0 2.263l-3.434 3.436c.614-.009.924-.012 1.229-.013h.194c16.879 0 30.454-5.297 30.454-10.9 0-1.309-.787-2.683-2.403-4.037-.677-.568-.765-1.577-.198-2.254zm-51.697-3.786c.818-.335 1.752.056 2.087.874.335.818-.056 1.752-.874 2.087-5.09 2.086-7.81 4.69-7.81 7.115 0 3.903 6.958 7.987 17.767 9.849.87.15 1.455.977 1.305 1.848-.15.87-.977 1.455-1.848 1.305-12.215-2.104-20.425-6.922-20.425-13.002 0-4.071 3.637-7.552 9.798-10.076zm27.902-6.563c.882-.044 1.634.635 1.678 1.518.044.882-.636 1.634-1.518 1.678-2.35.117-4.39 1.528-5.527 3.613.538-.116 1.071-.196 1.595-.232 3.248-.224 5.618 1.339 5.865 4.911.215 3.139-.78 5.288-2.642 6.394-.558.331-1.147.538-1.74.647-.387.072-.725.093-.994.085l-.02-.001.05.001-.09-.002.032.001-.206-.002c-4.862-.131-6.662-3.917-5.909-9.494l.007-.051c.688-4.962 4.564-8.824 9.419-9.066zm-14.295-.002c1.405 0 2.128 1.682 1.16 2.702-.034.035-.102.107-.198.212-.163.176-.345.376-.542.596-.56.628-1.122 1.285-1.642 1.937-.292.366-.563.72-.81 1.058l-.114.16c2.727.65 4.579 2.79 4.579 5.768 0 3.615-2.735 6.183-6.423 6.183-1.788-.034-3.534-.549-5.055-1.488-.752-.465-.985-1.45-.52-2.202.464-.752 1.45-.985 2.201-.52 1.034.638 2.221.987 3.405 1.01 1.933 0 3.192-1.182 3.192-2.983 0-1.733-1.187-2.775-3.192-2.775H25c-1.11 0-1.883-1.103-1.504-2.147.302-.829.874-1.786 1.677-2.89.276-.378.576-.769.896-1.17l.202-.251h-4.604c-.884 0-1.6-.717-1.6-1.6 0-.884.716-1.6 1.6-1.6zm24.583-.167c4.083 0 6.392 4.033 6.392 9.392 0 5.498-2.158 9.391-6.392 9.391-4.08 0-6.392-4.04-6.392-9.391 0-5.352 2.311-9.392 6.392-9.392zM42.987 36.527c-.11-1.592-.807-2.052-2.452-1.939-.704.049-1.493.223-2.298.484-.174.056-.342.115-.504.174-.295 3.408.667 4.987 3.1 4.987l.089.003-.026-.001c.056.001.172-.006.323-.034.24-.044.474-.126.685-.252.767-.455 1.22-1.433 1.083-3.422zm11.388-8.677c-1.834 0-3.192 2.374-3.192 6.192s1.358 6.191 3.192 6.191c1.958 0 3.192-2.225 3.192-6.191 0-3.826-1.355-6.192-3.192-6.192zm12.5-3.033c2.264 0 4.1 1.835 4.1 4.1 0 2.264-1.836 4.1-4.1 4.1-2.264 0-4.1-1.836-4.1-4.1 0-2.265 1.836-4.1 4.1-4.1zm0 3.2c-.497 0-.9.403-.9.9s.403.9.9.9.9-.403.9-.9-.403-.9-.9-.9z"/>
    </defs>
    <g fill="none" fill-rule="evenodd">
        <path d="M0 0H80V80H0z"/>
        <mask id="2m5mv0v7ob" fill="#fff">
            <use xlink:href="#ejdeaeu2na"/>
        </mask>
        <use fill="#333" fill-rule="nonzero" xlink:href="#ejdeaeu2na"/>
        <g fill="#FFF" mask="url(#2m5mv0v7ob)">
            <path d="M0 0H80V80H0z"/>
        </g>
    </g>
</svg>
