<svg xmlns="http://www.w3.org/2000/svg" xmlns:xlink="http://www.w3.org/1999/xlink" width="47" height="47" viewBox="0 0 47 47">
    <defs>
        <path id="i2lrrjyfba" d="M38.407 19.905c.321-.383.892-.434 1.275-.112 1.291 1.083 2.007 2.332 2.007 3.672 0 4.638-8.565 7.98-19.04 7.98-.205 0-.369.002-.777.008l1.913 1.913c.354.354.354.927 0 1.281-.353.354-.926.354-1.28 0l-3.416-3.413c-.168-.14-.283-.34-.315-.566 0-.011-.002-.022-.003-.032-.006-.047-.007-.095-.004-.144l-.001.068v-.068l.003-.034c.002-.026.005-.052.01-.078l.002-.01c.031-.175.115-.342.25-.477l3.474-3.476c.354-.354.927-.354 1.28 0 .354.353.354.927 0 1.28l-1.943 1.945c.421-.006.59-.007.806-.007 9.55 0 17.23-2.998 17.23-6.17 0-.74-.445-1.518-1.359-2.284-.383-.322-.433-.893-.112-1.276zm-29.25-2.143c.463-.19.992.032 1.181.495.19.462-.032.991-.494 1.181-2.88 1.18-4.42 2.654-4.42 4.027 0 2.21 3.938 4.52 10.053 5.574.493.085.823.554.739 1.046-.085.493-.553.824-1.046.74-6.911-1.192-11.556-3.919-11.556-7.36 0-2.304 2.057-4.274 5.543-5.703zm7.699-3.716c.795 0 1.204.953.656 1.53l-.112.12c-.092.1-.195.212-.306.337-.318.355-.635.727-.93 1.096-.165.207-.318.408-.457.599l-.065.09c1.543.368 2.59 1.58 2.59 3.265 0 2.046-1.547 3.5-3.633 3.5-1.012-.02-2-.31-2.86-.843-.426-.262-.558-.82-.295-1.246.263-.425.82-.557 1.246-.294.585.361 1.256.559 1.926.572 1.094 0 1.806-.67 1.806-1.689 0-.98-.671-1.57-1.806-1.57h-.471c-.628 0-1.066-.625-.851-1.215.17-.47.495-1.011.949-1.636.156-.214.325-.435.507-.663l.114-.142h-2.605c-.5 0-.905-.405-.905-.905s.405-.906.905-.906zm8.088.001c.5-.025.924.36.95.86.024.499-.36.924-.86.95-1.329.066-2.483.864-3.127 2.044.305-.065.607-.11.903-.131 1.838-.127 3.179.758 3.318 2.78.122 1.776-.44 2.992-1.495 3.618-.316.188-.649.305-.984.367-.22.04-.41.052-.562.048h.016l-.05-.001h.024l-.185-.003c-2.635-.102-3.652-2.13-3.31-5.133l.029-.239.004-.029c.389-2.808 2.582-4.993 5.329-5.13zm5.82-.095c2.31 0 3.617 2.282 3.617 5.315 0 3.112-1.22 5.316-3.616 5.316-2.309 0-3.617-2.287-3.617-5.316 0-3.028 1.308-5.315 3.617-5.315zm-6.442 6.722c-.062-.9-.457-1.161-1.388-1.097-.398.027-.844.126-1.3.273-.098.032-.193.066-.285.1-.167 1.928.378 2.822 1.754 2.822l.05.001h-.014c.031 0 .097-.004.182-.02.136-.024.269-.07.388-.142.434-.258.69-.811.613-1.937zm6.443-4.911c-1.038 0-1.806 1.343-1.806 3.504s.768 3.505 1.806 3.505c1.108 0 1.806-1.26 1.806-3.505 0-2.165-.767-3.504-1.806-3.504zm7.072-1.717c1.281 0 2.32 1.04 2.32 2.32 0 1.282-1.039 2.321-2.32 2.321s-2.32-1.039-2.32-2.32c0-1.282 1.039-2.32 2.32-2.32zm0 1.811c-.281 0-.509.228-.509.51 0 .281.228.51.51.51.28 0 .508-.229.508-.51 0-.282-.228-.51-.509-.51z"/>
    </defs>
    <g fill="none" fill-rule="evenodd" transform="translate(.79 .814)">
        <path d="M0 0H45.263V45.28H0z"/>
        <mask id="hcb4c2wxvb" fill="#fff">
            <use xlink:href="#i2lrrjyfba"/>
        </mask>
        <use fill="#333" fill-rule="nonzero" xlink:href="#i2lrrjyfba"/>
        <g fill="#FFF" mask="url(#hcb4c2wxvb)">
            <path d="M0 0H45.263V45.28H0z"/>
        </g>
    </g>
</svg>
