<?xml version="1.0" encoding="UTF-8"?>
<svg width="100px" height="100px" viewBox="0 0 100 100" version="1.1" xmlns="http://www.w3.org/2000/svg" xmlns:xlink="http://www.w3.org/1999/xlink">
    <title>Drupal/Checkout/edit</title>
    <defs>
        <path d="M88.7656987,11.211433 C92.4142848,14.8545762 92.4476728,20.7566685 88.8260658,24.4554862 L79.0833333,34.2018914 L79.0833333,83.3333333 C79.0833333,87.8053057 75.5252177,91.4462356 71.0855583,91.5795513 L70.8333333,91.5833333 L20.8333333,91.5833333 C16.2769841,91.5833333 12.5833333,87.8896825 12.5833333,83.3333333 L12.5833333,83.3333333 L12.5833333,29.1666667 C12.5833333,24.6103175 16.2769841,20.9166667 20.8333333,20.9166667 L20.8333333,20.9166667 L65.7563333,20.9158914 L75.524705,11.1677026 L75.5361777,11.156345 C79.214977,7.5437132 85.1171126,7.56828983 88.7656987,11.211433 Z M61.7483333,24.9158914 L20.8333333,24.9166667 C18.4861231,24.9166667 16.5833333,26.8194565 16.5833333,29.1666667 L16.5833333,29.1666667 L16.5833333,83.3333333 C16.5833333,85.6805435 18.4861231,87.5833333 20.8333333,87.5833333 L20.8333333,87.5833333 L70.8333333,87.5833333 C73.1805435,87.5833333 75.0833333,85.6805435 75.0833333,83.3333333 L75.0833333,83.3333333 L75.0833333,38.2048914 L42.1021075,71.2054862 C41.8458118,71.4619248 41.5246291,71.6438716 41.1729117,71.7318665 L27.2041617,75.2266582 C25.7440298,75.5919634 24.4188381,74.2743035 24.7758149,72.8121132 L28.1924816,58.8173215 C28.2795051,58.4608701 28.4629097,58.1352277 28.7226217,57.876036 L61.7483333,24.9158914 Z" id="path-1"></path>
    </defs>
    <g id="Drupal/Checkout/edit" stroke="none" stroke-width="1" fill="none" fill-rule="evenodd">
        <rect id="Rectangle" x="0" y="0" width="100" height="100"></rect>
        <g id="Group" transform="translate(-0.000000, 0.000000)">
            <g id="Icons/Location-&amp;-travel/tracker/4px-colour-mask-Copy-3" transform="translate(-0.000000, 0.000000)">
                <mask id="mask-2" fill="white">
                    <use xlink:href="#path-1"></use>
                </mask>
                <use id="Mask" fill="#333333" fill-rule="nonzero" xlink:href="#path-1"></use>
                <g id="Group" mask="url(#mask-2)" fill="#4A4D4E">
                    <g id="COLOUR-MASK">
                        <rect id="Rectangle" x="0" y="0" width="100" height="100"></rect>
                    </g>
                </g>
                <rect id="Rectangle" mask="url(#mask-2)" x="0" y="0" width="100" height="100"></rect>
            </g>
        </g>
    </g>
</svg>