<svg xmlns="http://www.w3.org/2000/svg" width="20" height="20" fill="none" viewBox="0 0 20 20">
    <path fill="#333" fill-rule="evenodd" d="M10 18.316c4.593 0 8.317-3.723 8.317-8.316 0-4.593-3.724-8.317-8.317-8.317S1.683 5.407 1.683 10 5.407 18.316 10 18.316zM9.4 6v5c0 .331.269.6.6.6.331 0 .6-.269.6-.6V6c0-.332-.269-.6-.6-.6-.331 0-.6.268-.6.6zm1.3 7.7c0 .386-.313.7-.7.7-.387 0-.7-.314-.7-.7 0-.387.313-.7.7-.7.387 0 .7.313.7.7z" clip-rule="evenodd"/>
    <mask id="8lg9k9gwja" width="18" height="18" x="1" y="1" maskUnits="userSpaceOnUse">
        <path fill="#fff" fill-rule="evenodd" d="M10 18.316c4.593 0 8.317-3.723 8.317-8.316 0-4.593-3.724-8.317-8.317-8.317S1.683 5.407 1.683 10 5.407 18.316 10 18.316zM9.4 6v5c0 .331.269.6.6.6.331 0 .6-.269.6-.6V6c0-.332-.269-.6-.6-.6-.331 0-.6.268-.6.6zm1.3 7.7c0 .386-.313.7-.7.7-.387 0-.7-.314-.7-.7 0-.387.313-.7.7-.7.387 0 .7.313.7.7z" clip-rule="evenodd"/>
    </mask>
    <g mask="url(#8lg9k9gwja)">
        <path fill="#fff" d="M0 0H20V20H0z"/>
    </g>
</svg>
