<svg xmlns="http://www.w3.org/2000/svg" width="30" height="30" viewBox="0 0 30 30">
    <g fill="none" fill-rule="evenodd">
        <path d="M0 0H30V30H0z"/>
        <path fill="#FFF" fill-rule="nonzero" d="M8.282 6.525l.102.091L15 13.233l6.616-6.617c.488-.488 1.28-.488 1.768 0 .455.456.486 1.176.091 1.666l-.091.102L16.767 15l6.617 6.616c.488.488.488 1.28 0 1.768-.456.455-1.176.486-1.666.091l-.102-.091L15 16.767l-6.616 6.617c-.488.488-1.28.488-1.768 0-.455-.456-.486-1.176-.091-1.666l.091-.102L13.233 15 6.616 8.384c-.488-.488-.488-1.28 0-1.768.423-.423 1.074-.48 1.558-.17l.108.079z"/>
    </g>
</svg>
