<?xml version="1.0" encoding="UTF-8"?>
<svg width="100px" height="100px" viewBox="0 0 100 100" version="1.1" xmlns="http://www.w3.org/2000/svg" xmlns:xlink="http://www.w3.org/1999/xlink">
    <title>Icons/Status/warning/Solid colour mask</title>
    <defs>
        <path d="M59.6785339,15.2678466 L89.4731526,70.0093402 C94.5781792,79.0581022 90.0511318,87.4166667 79.8072917,87.4166667 L20.1927083,87.4166667 C9.96001122,87.4166667 5.41619183,79.0399656 10.5194529,70.0229261 L40.3539413,15.2193673 C45.5372087,6.29643151 54.595001,6.14026268 59.6785339,15.2678466 Z M50,69.3125 C48.0554974,69.3125 46.4791667,70.8888308 46.4791667,72.8333333 C46.4791667,74.7778359 48.0554974,76.3541667 50,76.3541667 C51.9445026,76.3541667 53.5208333,74.7778359 53.5208333,72.8333333 C53.5208333,70.8888308 51.9445026,69.3125 50,69.3125 Z M50,28.25 C48.3431458,28.25 47,29.5931458 47,31.25 L47,60.6770833 C47,62.3339376 48.3431458,63.6770833 50,63.6770833 C51.6568542,63.6770833 53,62.3339376 53,60.6770833 L53,31.25 C53,29.5931458 51.6568542,28.25 50,28.25 Z" id="path-1"></path>
    </defs>
    <g id="Icons/Status/warning/Solid-colour-mask" stroke="none" stroke-width="1" fill="none" fill-rule="evenodd">
        <mask id="mask-2" fill="white">
            <use xlink:href="#path-1"></use>
        </mask>
        <use id="Mask" fill="#333333" fill-rule="nonzero" xlink:href="#path-1"></use>
        <g id="Group" mask="url(#mask-2)" fill="#bd0000">
            <g id="COLOUR-MASK">
                <rect id="Rectangle" x="0" y="0" width="100" height="100"></rect>
            </g>
        </g>
        <rect id="Rectangle" mask="url(#mask-2)" x="0" y="0" width="100" height="100"></rect>
    </g>
</svg>