<svg xmlns="http://www.w3.org/2000/svg" width="32" height="32" viewBox="0 0 32 32">
    <defs>
        <filter id="ok0rv3nhga">
            <feColorMatrix in="SourceGraphic" values="0 0 0 0 1.000000 0 0 0 0 1.000000 0 0 0 0 1.000000 0 0 0 1.000000 0"/>
        </filter>
    </defs>
    <g fill="none" fill-rule="evenodd" filter="url(#ok0rv3nhga)" transform="translate(-316 -574)">
        <g>
            <path fill="#000" fill-rule="nonzero" d="M10.983 10.697H1.06c-.522 0-.858-.227-.953-.627-.125-.525.262-.994.857-1.001 1.004-.012 2.01-.004 3.014-.004h5.331v-.45V1.23c0-.123-.006-.246.004-.367.037-.468.389-.789.85-.781.44.007.779.322.818.77.009.108.003.217.003.326v9.519zM21.029 10.696V9.38 1.226c0-.136-.008-.273.007-.408.05-.439.41-.748.849-.739.42.009.763.314.811.735.016.134.008.271.008.407v7.842H30.783c.126 0 .253-.008.377.006.446.049.768.406.758.83-.01.408-.326.745-.757.789-.18.018-.362.007-.543.007H21.029zM10.974 21.315v9.5c0 .135.008.273-.012.407-.06.399-.399.687-.804.696-.427.01-.783-.276-.847-.694-.02-.133-.012-.271-.012-.407v-7.382-.5h-.466c-2.567 0-5.134.001-7.701-.004-.19 0-.398-.016-.569-.088-.357-.151-.52-.45-.472-.826.047-.379.292-.605.666-.697.093-.022.194-.017.291-.017h9.627c.081 0 .163.006.299.012zM22.697 22.935v5.074c0 .993.004 1.985-.001 2.978-.003.57-.323.925-.824.932-.508.007-.847-.344-.848-.907-.004-3.155-.002-6.31-.001-9.465 0-.066.008-.131.014-.222.136-.008.257-.021.378-.021 3.154-.002 6.308-.001 9.462 0 .111 0 .225-.007.334.01.426.067.718.416.705.833-.012.397-.307.722-.72.778-.137.019-.278.01-.417.01h-8.082z" transform="translate(316 574)"/>
        </g>
    </g>
</svg>
