<?xml version="1.0" encoding="UTF-8"?>
<svg width="100px" height="100px" viewBox="0 0 100 100" version="1.1" xmlns="http://www.w3.org/2000/svg" xmlns:xlink="http://www.w3.org/1999/xlink">
    <title>Icons/Sorting/filter-alt/4px colour mask</title>
    <defs>
        <path d="M40.2516667,67.75 C44.5872858,67.75 48.1964413,70.8801948 48.9444492,74.9994255 L89.5833333,75 C90.6879028,75 91.5833333,75.8954305 91.5833333,77 C91.5833333,78.1045695 90.6879028,79 89.5833333,79 L89.5833333,79 L48.751962,78.9998809 C47.6999574,82.7042666 44.2890858,85.42 40.2516667,85.42 C36.2120655,85.42 32.8031147,82.7026468 31.7514298,78.9997932 L10.5833333,79 C9.47876383,79 8.58333333,78.1045695 8.58333333,77 C8.58333333,75.8954305 9.47876383,75 10.5833333,75 L10.5833333,75 L31.5588033,74.9996181 C32.3069136,70.8782736 35.9184278,67.75 40.2516667,67.75 Z M40.2516667,71.75 C37.5860509,71.75 35.4166667,73.9177016 35.4166667,76.585 C35.4166667,79.2506158 37.5843682,81.42 40.2516667,81.42 C42.9172824,81.42 45.0866667,79.2522984 45.0866667,76.585 C45.0866667,73.9193842 42.9189651,71.75 40.2516667,71.75 Z M60.2516667,40.6666667 C64.6167003,40.6666667 68.2453796,43.8394784 68.9592778,48.0000674 L89.5833333,48 C90.6879028,48 91.5833333,48.8954305 91.5833333,50 C91.5833333,51.1045695 90.6879028,52 89.5833333,52 L89.5833333,52 L68.7277473,52.0002282 C67.6484508,55.6617599 64.2586229,58.3366667 60.2516667,58.3366667 C56.2425476,58.3366667 52.8545972,55.660168 51.7756392,52.0001139 L10.5833333,52 C9.47876383,52 8.58333333,51.1045695 8.58333333,50 C8.58333333,48.8954305 9.47876383,48 10.5833333,48 L10.5833333,48 L51.5441465,47.9992922 C52.2585312,43.8370174 55.8893827,40.6666667 60.2516667,40.6666667 Z M60.2516667,44.6666667 C57.5860509,44.6666667 55.4166667,46.8343682 55.4166667,49.5016667 C55.4166667,52.1672824 57.5843682,54.3366667 60.2516667,54.3366667 C62.9172824,54.3366667 65.0866667,52.1689651 65.0866667,49.5016667 C65.0866667,46.8360509 62.9189651,44.6666667 60.2516667,44.6666667 Z M40.2516667,13.5833333 C44.6456147,13.5833333 48.2934208,16.7983184 48.9730802,20.9995439 L89.5833333,21 C90.6879028,21 91.5833333,21.8954305 91.5833333,23 C91.5833333,24.1045695 90.6879028,25 89.5833333,25 L89.5833333,25 L48.7027505,25.0001708 C47.5969117,28.6189135 44.228183,31.2533333 40.2516667,31.2533333 C36.2730113,31.2533333 32.9061205,28.6173554 31.8006341,25.0000434 L10.5833333,25 C9.47876383,25 8.58333333,24.1045695 8.58333333,23 C8.58333333,21.8954305 9.47876383,21 10.5833333,21 L10.5833333,21 L31.5301729,20.9998025 C32.2098822,16.7963341 35.8601384,13.5833333 40.2516667,13.5833333 Z M40.2516667,17.5833333 C37.5860509,17.5833333 35.4166667,19.7510349 35.4166667,22.4183333 C35.4166667,25.0839491 37.5843682,27.2533333 40.2516667,27.2533333 C42.9172824,27.2533333 45.0866667,25.0856318 45.0866667,22.4183333 C45.0866667,19.7527176 42.9189651,17.5833333 40.2516667,17.5833333 Z" id="path-1"></path>
    </defs>
    <g id="Icons/Sorting/filter-alt/4px-colour-mask" stroke="none" stroke-width="1" fill="none" fill-rule="evenodd">
        <rect id="Rectangle-path" x="0" y="0" width="100" height="100"></rect>
        <mask id="mask-2" fill="white">
            <use xlink:href="#path-1"></use>
        </mask>
        <use id="Mask" fill="#000000" fill-rule="nonzero" xlink:href="#path-1"></use>
        <g id="Group" mask="url(#mask-2)" fill="#000000">
            <g id="COLOUR-MASK">
                <rect id="Rectangle" x="0" y="0" width="100" height="100" fill="#000000"></rect>
            </g>
        </g>
    </g>
</svg>