<svg xmlns="http://www.w3.org/2000/svg" width="32" height="32" viewBox="0 0 32 32">
    <defs>
        <filter id="8o4d2fjcsa">
            <feColorMatrix in="SourceGraphic" values="0 0 0 0 1.000000 0 0 0 0 1.000000 0 0 0 0 1.000000 0 0 0 1.000000 0"/>
        </filter>
    </defs>
    <g fill="none" fill-rule="evenodd" filter="url(#8o4d2fjcsa)" transform="translate(-308 -574)">
        <g>
            <path fill="#000" fill-rule="nonzero" d="M.084.082h9.924c.523 0 .858.227.953.627.125.526-.262.994-.856 1.001-1.005.012-2.01.004-3.015.004H1.76V9.55c0 .123.005.246-.005.368-.037.467-.389.788-.849.78-.442-.006-.78-.322-.818-.77-.01-.107-.004-.217-.004-.326V.544.082zM31.916.082v9.47c0 .135.008.272-.008.407-.05.439-.41.748-.848.74-.421-.01-.763-.315-.811-.735-.016-.135-.008-.272-.008-.408v-7.34-.502H22.162c-.126 0-.253.008-.377-.006-.446-.049-.769-.406-.758-.83.01-.408.326-.745.757-.788.18-.019.362-.008.543-.008H31.916zM.084 31.905v-1.342-8.157c0-.136-.008-.274.012-.407.06-.4.398-.687.804-.697.426-.01.782.277.847.694.02.133.012.271.012.407v7.883h.465c2.567 0 5.134-.002 7.701.003.191 0 .398.016.57.088.357.152.52.45.472.826-.048.379-.293.606-.666.697-.093.023-.194.018-.292.018H.383c-.082 0-.164-.007-.3-.013zM30.24 30.286v-5.074c0-.992-.002-1.985.002-2.978.003-.57.324-.925.824-.932.508-.007.848.344.848.907.004 3.155.002 6.31.001 9.465 0 .066-.008.132-.014.222-.136.008-.257.022-.378.022h-9.462c-.111 0-.225.006-.334-.011-.426-.067-.717-.416-.705-.833.012-.396.307-.722.72-.778.137-.018.278-.01.418-.01h8.081z" transform="translate(308 574)"/>
        </g>
    </g>
</svg>
