<svg xmlns="http://www.w3.org/2000/svg" width="40" height="40" viewBox="0 0 40 40">
    <g fill="none" fill-rule="evenodd">
        <path fill="#FFF" d="M40 20c0 11.046-8.954 20-20 20S0 31.046 0 20 8.954 0 20 0s20 8.954 20 20"/>
        <path fill="#E60000" d="M20.228 31.5C14.738 31.518 9.025 26.81 9 19.251c-.017-4.999 2.668-9.81 6.1-12.666C18.447 3.801 23.032 2.014 27.19 2c.535-.002 1.095.043 1.438.16-3.636.757-6.53 4.157-6.517 8.014 0 .127.011.264.024.327C28.22 11.99 30.983 15.678 31 20.782c.017 5.103-3.994 10.695-10.772 10.718"/>
    </g>
</svg>
