<?xml version="1.0" encoding="UTF-8"?>
<svg width="125px" height="43px" viewBox="0 0 125 43" version="1.1" xmlns="http://www.w3.org/2000/svg" xmlns:xlink="http://www.w3.org/1999/xlink">
    <title>9EF87085-48AE-479A-B133-B9D916AE096C</title>
    <g id="CBU_Homepage" stroke="none" stroke-width="1" fill="none" fill-rule="evenodd">
        <g id="CBU/Homepage/Desktop/other-tab" transform="translate(-139.000000, -6990.000000)" fill="#FFFFFF" fill-rule="nonzero">
            <g id="App" transform="translate(78.000000, 6425.000000)">
                <g id="🔗-Templates/Banner-content/Image-with-appstore-cta/Desktop" transform="translate(0.000000, 112.000000)">
                    <g id="Group">
                        <g id="Google-play" transform="translate(61.561644, 453.000000)">
                            <path d="M117.606434,0.75 C120.647072,0.75 123.125809,3.21402519 123.239454,6.2966985 L123.243525,6.51791667 L123.243525,36.3134464 L123.239454,36.5346819 C123.12858,39.5424036 120.766576,41.9612756 117.827891,42.0774801 L117.606434,42.0818512 L6.37116064,42.0818512 C3.33001215,42.0818512 0.85062434,39.6175485 0.73694873,36.5346785 L0.732876712,36.3134464 L0.732876712,6.51791667 C0.732876712,3.40687937 3.14153672,0.870456306 6.15491523,0.754165691 L6.37116064,0.75 L117.606434,0.75 Z M117.606434,1.25 L6.37116064,1.25 C3.59849372,1.25 1.33709425,3.4925136 1.2257572,6.30080647 L1.22146119,6.51791667 L1.22146119,36.3134464 C1.22146119,39.1499028 3.41355692,41.4635465 6.15891558,41.5774559 L6.37116064,41.5818512 L117.606434,41.5818512 C120.378548,41.5818512 122.639339,39.3391929 122.750646,36.5305815 L122.754941,36.3134464 L122.754941,6.51791667 C122.754941,3.68163596 120.563466,1.36828935 117.818639,1.2543947 L117.606434,1.25 Z M11.3059115,9.45478571 C11.8846916,9.79647013 21.5574192,15.5101759 21.9089634,15.7178341 L21.918787,15.7236369 L27.4208494,18.973131 C27.4208494,18.973131 32.2231958,21.8299524 32.746611,22.1186607 C33.2702648,22.407125 33.3299064,22.9098631 32.7093946,23.2766667 C32.1071331,23.6322082 27.6917135,26.2398793 27.432504,26.3929642 L27.4206108,26.3999881 L21.918787,29.6492381 C21.918787,29.6492381 11.5731062,35.7599464 11.0613807,36.0628095 C10.5814145,36.3460573 10.1825935,36.1572016 10.1346158,35.6832553 L10.129778,35.5847202 L10.129778,10.0448929 C10.129778,9.31763095 10.716652,9.10677381 11.3059115,9.45478571 Z M75.9565162,20.0452321 L74.9039602,20.6507143 L73.8852807,20.6507143 C74.2631702,20.9706607 75.0521101,21.6430119 75.0521101,22.9218214 C75.0521101,24.1657321 74.3616982,24.7555952 73.6708093,25.3098274 C73.4570535,25.52825 73.2106142,25.7644881 73.2106142,26.1349524 C73.2106142,26.5041964 73.4570535,26.7062679 73.6386028,26.8578214 L74.2307252,27.3278571 C74.9540592,27.9501786 75.6110717,28.5224702 75.6110717,29.6836488 C75.6110717,31.2643452 74.1147818,32.861881 71.28729,32.861881 C68.9028164,32.861881 67.7524481,31.7016786 67.7524481,30.4563036 C67.7524481,29.8508214 68.0470779,28.9937262 69.0182827,28.4043512 C70.0369622,27.7651905 71.4192173,27.6819702 72.1587739,27.6302321 C71.9278414,27.3278571 71.6651795,27.0081548 71.6651795,26.4876012 C71.6651795,26.2020655 71.7477236,26.0336726 71.8297905,25.830869 C71.6482413,25.8479524 71.4676464,25.8647917 71.3030354,25.8647917 C69.5607832,25.8647917 68.5740716,24.5357083 68.5740716,23.2244405 C68.5740716,22.4505655 68.9197547,21.592494 69.6259119,20.9706607 C70.5634788,20.1801905 71.6816406,20.0452321 72.5700628,20.0452321 L75.9565162,20.0452321 Z M72.339846,28.1017321 C72.1919347,28.1017321 71.3030354,28.1358988 70.6131007,28.3721369 C70.2514336,28.505631 69.1988776,28.9092857 69.1988776,30.1041429 C69.1988776,31.2975357 70.3339777,32.1568274 72.0934066,32.1568274 C73.6708093,32.1568274 74.5103253,31.3814881 74.5103253,30.3394048 C74.5103253,29.4801131 73.9675862,29.0276488 72.717497,28.1193036 C72.5862853,28.1017321 72.5035027,28.1017321 72.339846,28.1017321 Z M95.9405278,19.7567679 C96.983064,19.7567679 97.7877493,20.121375 98.3541065,20.8503452 C98.9207022,21.5790714 99.204358,22.6013869 99.204358,23.9170476 C99.204358,25.2378333 98.9161695,26.2635655 98.3405082,26.9954643 C97.7638926,27.7263869 96.9642172,28.0917262 95.9405278,28.0917262 C95.4288024,28.0917262 94.9614503,27.9953274 94.5384717,27.8022857 C94.115493,27.609 93.7600287,27.31175 93.4730331,26.9110238 L93.3871491,26.9110238 C93.4444051,27.3803274 93.4730331,27.8257143 93.4730331,28.2459643 L93.4730331,31.555006 L92.2830627,31.555006 L92.2830627,19.9036845 L93.2511661,19.9036845 L93.4157771,21.0040952 L93.4730331,21.0040952 C93.7795912,20.5638333 94.1360097,20.2460833 94.5422887,20.0503571 C94.9485677,19.854875 95.4149655,19.7567679 95.9405278,19.7567679 Z M111.655389,19.9036845 L113.376886,24.4895833 C113.754537,25.5365476 113.989048,26.291875 114.080181,26.7570298 L114.137437,26.7570298 C114.199703,26.506881 114.330199,26.0805298 114.528209,25.4760238 C114.726696,24.8717619 115.376075,23.0148036 116.47539,19.9036845 L117.752676,19.9036845 L114.374095,29.0603512 C114.039386,29.9652798 113.648614,30.607369 113.201063,30.9871071 C112.754227,31.365869 112.205285,31.555006 111.55543,31.555006 C111.191854,31.555006 110.833289,31.5135179 110.479256,31.4305417 L110.479256,30.4548393 C110.741918,30.5134107 111.036309,30.5429405 111.361714,30.5429405 C112.179282,30.5429405 112.762339,30.0736369 113.111839,29.1340536 L113.549131,27.9897143 L110.379296,19.9036845 L111.655389,19.9036845 Z M44.6739887,16.0052679 C45.5655122,16.0052679 46.4229207,16.1399821 47.1985008,16.359625 C48.4364231,16.7142262 49.0137544,17.1527798 49.3770914,17.4063452 L48.0070032,18.7400655 L47.4296719,18.8745357 L47.8421536,18.1990119 C47.2812834,17.6423393 46.2573554,16.6127024 44.3106517,16.6127024 C41.7026412,16.6127024 39.738522,18.6395179 39.738522,21.5939583 C39.738522,24.7668214 41.9834341,27.7554286 45.5805419,27.7554286 C46.6378692,27.7554286 47.181324,27.5360298 47.6768269,27.3329821 L47.6768269,24.6152679 L45.185237,24.7502262 L46.504749,24.0236964 L50.0038059,24.0236964 L49.5751017,24.4454107 C49.4589197,24.5471786 49.4429358,24.5813452 49.409775,24.7153274 C49.3925982,24.8676131 49.3770914,25.3574167 49.3770914,25.5262976 L49.3770914,27.5867917 L47.0169516,28.1439524 C46.0593451,28.2962381 45.2014595,28.4302202 44.2941906,28.4302202 C39.738522,28.4302202 38.0062897,25.0028155 38.0062897,22.3182917 C38.0062897,19.0434167 40.4649575,16.0052679 44.6739887,16.0052679 Z M106.92676,19.7716548 C107.86385,19.7716548 108.558317,19.9842202 109.010401,20.4098393 C109.462008,20.8354583 109.68793,21.5178155 109.68793,22.4571548 L109.68793,27.9450536 L108.805949,27.9450536 L108.569053,26.8002262 L108.511558,26.8002262 C108.119593,27.3046726 107.728583,27.6458512 107.338765,27.824006 C106.949424,28.0028929 106.462748,28.0917262 105.879453,28.0917262 C105.100294,28.0917262 104.489325,27.8864821 104.047022,27.475506 C103.604481,27.0645298 103.38333,26.4805238 103.38333,25.7222679 C103.38333,24.098375 104.65322,23.247381 107.191808,23.1687976 L108.526349,23.124625 L108.526349,22.6257917 C108.526349,21.9946845 108.393468,21.5285536 108.127943,21.228131 C107.862896,20.9269762 107.43777,20.7768869 106.854951,20.7768869 C106.199609,20.7768869 105.458382,20.982375 104.63151,21.3931071 L104.265549,20.4613333 C104.65322,20.2460833 105.077153,20.0774464 105.539018,19.9551786 C106.000167,19.8329107 106.462748,19.7716548 106.92676,19.7716548 Z M101.960757,16.528506 L101.960757,27.9450536 L100.770309,27.9450536 L100.770309,16.528506 L101.960757,16.528506 Z M83.5885015,19.8116786 C84.1784768,19.8116786 84.7856289,19.962256 85.2775533,20.2814702 C86.0960755,20.833506 86.309354,21.5544226 86.4233889,21.9402619 L82.5726848,23.5338929 L81.3104287,23.6344405 C81.7195705,25.7635119 83.1290222,27.0035179 84.6866238,27.0035179 C85.5223227,27.0035179 86.1289977,26.702119 86.6860508,26.4175595 L85.8171911,27.2558631 L85.4573796,27.4648944 C85.3973933,27.4984193 85.3374336,27.5300099 85.2775533,27.55775 C84.7355299,27.809119 84.1784768,27.8764762 83.6860753,27.8764762 C83.1628987,27.8764762 82.3427065,27.8418214 81.5060533,27.2221845 C80.3432796,26.3833929 79.8351326,24.9413155 79.8351326,23.6842262 C79.8351326,21.0856071 81.900404,19.8116786 83.5885015,19.8116786 Z M54.8832094,19.8063095 C57.2960723,19.8063095 58.8061992,21.7367262 58.8061992,23.7693988 C58.8061992,25.7500893 57.312772,27.849875 54.63677,27.849875 C52.0266124,27.849875 50.6312362,25.7674167 50.6312362,23.8862976 C50.6312362,21.6862083 52.3880409,19.8063095 54.8832094,19.8063095 Z M63.7812678,19.8063095 C66.1934151,19.8063095 67.7037805,21.7367262 67.7037805,23.7693988 C67.7037805,25.7500893 66.2105919,27.849875 63.5341128,27.849875 C60.9244323,27.849875 59.5290561,25.7674167 59.5290561,23.8862976 C59.5290561,21.6862083 61.2851451,19.8063095 63.7812678,19.8063095 Z M79.1952969,15.6291905 C78.6828558,15.9335179 78.5182448,16.0347976 78.4516847,16.6253929 L78.4471519,16.6794494 L78.4426191,16.7342381 L78.4426191,26.2899226 C78.4426191,26.9490952 78.556654,27.0498869 79.1015402,27.1006488 L79.5229682,27.1426555 L79.9436804,27.1855774 L79.3331884,27.5557976 L76.4117014,27.5557976 C76.7571892,27.0958788 76.8424226,27.0117126 76.8550643,26.7469952 L76.8568667,26.6616071 L76.8568667,16.2385774 L76.857821,16.2449226 L76.857821,16.2371131 L75.596042,16.2371131 L76.8342029,15.6291905 L79.1952969,15.6291905 Z M54.4559365,20.326375 C53.9148674,20.326375 53.3726054,20.5452857 52.9789705,20.8984226 C52.3386576,21.4853571 52.2239071,22.2243333 52.2239071,22.9474464 C52.2239071,24.6086786 53.0278766,27.3451845 55.0148982,27.3451845 C55.655211,27.3451845 56.3115078,27.0267024 56.6889203,26.4900417 C57.0827938,25.9521607 57.1815604,25.2807857 57.1815604,24.6252738 C57.1815604,23.1473214 56.4918642,20.326375 54.4559365,20.326375 Z M63.3537564,20.326375 C62.8124487,20.326375 62.2706639,20.5452857 61.8767904,20.8984226 C61.2364775,21.4853571 61.1210113,22.2243333 61.1210113,22.9474464 C61.1210113,24.6086786 61.925458,27.3451845 63.9122409,27.3451845 C64.5523152,27.3451845 65.2090892,27.0267024 65.5857859,26.4900417 C65.9803751,25.9521607 66.0789031,25.2807857 66.0789031,24.6252738 C66.0789031,23.1473214 65.3896841,20.326375 63.3537564,20.326375 Z M108.497721,23.990506 L107.306558,24.0415119 C106.359926,24.0761667 105.677864,24.226256 105.258941,24.493244 C104.840733,24.759744 104.63151,25.174381 104.63151,25.7369107 C104.63151,26.1769286 104.761529,26.51225 105.022283,26.7416548 C105.283036,26.9720357 105.647327,27.0867381 106.116349,27.0867381 C106.857337,27.0867381 107.439201,26.8790536 107.862896,26.4634405 C108.285636,26.0478274 108.497721,25.4655298 108.497721,24.7165476 L108.497721,23.990506 Z M95.7682827,20.7912857 C94.9650288,20.7912857 94.3843576,21.0189821 94.025792,21.4736429 C93.6672263,21.9287917 93.4828143,22.6526369 93.4730331,23.6459107 L93.4730331,23.9170476 C93.4730331,25.0472321 93.6574451,25.8555179 94.025792,26.3423929 C94.3941388,26.8290238 94.9845913,27.0720952 95.7971492,27.0720952 C96.4763485,27.0720952 97.0085906,26.7909524 97.3936372,26.2286667 C97.7782066,25.666381 97.9707299,24.8907976 97.9707299,23.9021607 C97.9707299,22.8998571 97.7782066,22.130375 97.3936372,21.5946905 C97.0085906,21.059006 96.4665672,20.7912857 95.7682827,20.7912857 Z M71.5337293,20.6004405 C71.1057408,20.6004405 70.6460228,20.8188631 70.3826453,21.1558929 C70.1035223,21.5090298 70.0207397,21.9624702 70.0207397,22.4002917 C70.0207397,23.5270595 70.6620068,25.3942679 72.076707,25.3942679 C72.4875187,25.3942679 72.930537,25.1924405 73.1946302,24.9230119 C73.5722812,24.5357083 73.6047263,23.9980714 73.6047263,23.6949643 C73.6047263,22.484244 72.8980919,20.6004405 71.5337293,20.6004405 Z M83.1290222,20.3644464 C82.4727254,20.3644464 81.2443457,20.8845119 81.2443457,22.6948571 C81.2443457,22.9799048 81.2770294,23.2817917 81.2942062,23.5844107 L84.2770049,22.258744 C84.5878572,22.1418452 84.751991,22.0410536 84.751991,21.8065238 C84.751991,21.136369 84.0148201,20.3644464 83.1290222,20.3644464 Z M88.1766151,19.8116786 L88.4807876,20.7986071 L88.4848432,20.7986071 L88.7842443,19.8116786 L88.9915588,19.8116786 L88.9915588,21.0326488 L88.8734683,21.0326488 L88.8734683,19.916131 L88.8675041,19.916131 L88.5342265,21.0326488 L88.4316429,21.0326488 L88.0955025,19.916131 L88.0914468,19.916131 L88.0914468,21.0326488 L87.9721635,21.0326488 L87.9721635,19.8116786 L88.1766151,19.8116786 Z M87.7567378,19.8116786 L87.7567378,19.9261369 L87.3991264,19.9261369 L87.3991264,21.0326488 L87.2679148,21.0326488 L87.2679148,19.9261369 L86.9100648,19.9261369 L86.9100648,19.8116786 L87.7567378,19.8116786 Z M53.8125223,9.22586905 C54.2636518,9.22586905 54.6410642,9.38742857 54.9452367,9.71079167 C55.2494092,10.0341548 55.4013761,10.4465952 55.4013761,10.9481131 C55.4013761,11.4847738 55.2408208,11.9296726 54.9197101,12.2825655 C54.5983608,12.6354583 54.2011473,12.8121488 53.7280697,12.8121488 C53.2769402,12.8121488 52.8992892,12.6501012 52.5953553,12.3257619 C52.2911828,12.0016667 52.1392159,11.5894702 52.1392159,11.0896607 C52.1392159,10.553244 52.2995327,10.1083452 52.6208819,9.75545238 C52.9419926,9.40231548 53.3392061,9.22586905 53.8125223,9.22586905 Z M74.9922299,9.22586905 C75.4431208,9.22586905 75.8207718,9.38742857 76.1249443,9.71079167 C76.4288782,10.0341548 76.5810837,10.4465952 76.5810837,10.9481131 C76.5810837,11.4847738 76.4205283,11.9296726 76.0991791,12.2825655 C75.7778298,12.6354583 75.3806163,12.8121488 74.9075387,12.8121488 C74.4564092,12.8121488 74.0787582,12.6501012 73.7748243,12.3257619 C73.4708904,12.0016667 73.3186849,11.5894702 73.3186849,11.0896607 C73.3186849,10.553244 73.4792402,10.1083452 73.8003509,9.75545238 C74.1217002,9.40231548 74.5189137,9.22586905 74.9922299,9.22586905 Z M46.5448282,9.28883333 C47.161523,9.28883333 47.6088354,9.446 47.886527,9.76057738 C48.16398,10.0751548 48.3028258,10.4526964 48.3028258,10.8932024 C48.3028258,11.3895952 48.1475189,11.8227798 47.836428,12.1934881 C47.5255757,12.5641964 47.089953,12.7491845 46.52956,12.7491845 C46.2766793,12.7491845 45.9281335,12.7386905 45.4839224,12.7177024 C45.5061091,12.1898274 45.5173217,11.5948393 45.5173217,10.932494 C45.5173217,10.296506 45.5061091,9.75374405 45.4839224,9.30445238 L45.9324277,9.30445238 C46.0059062,9.30445238 46.1151697,9.30176786 46.2604568,9.29664286 C46.4055053,9.29127381 46.5004548,9.28883333 46.5448282,9.28883333 Z M58.8069149,9.28883333 C59.4236096,9.28883333 59.8709221,9.446 60.1486136,9.76057738 C60.4260666,10.0751548 60.5649124,10.4526964 60.5649124,10.8932024 C60.5649124,11.3895952 60.4096055,11.8227798 60.0985146,12.1934881 C59.7876623,12.5641964 59.3518011,12.7491845 58.7916466,12.7491845 C58.538766,12.7491845 58.1902201,12.7386905 57.746009,12.7177024 C57.7681957,12.1898274 57.7794084,11.5948393 57.7794084,10.932494 C57.7794084,10.296506 57.7681957,9.75374405 57.746009,9.30445238 L58.1945143,9.30445238 C58.2679928,9.30445238 58.3772563,9.30176786 58.5225434,9.29664286 C58.6675919,9.29127381 58.7625415,9.28883333 58.8069149,9.28883333 Z M40.1999099,9.30445238 C40.1999099,9.40402381 40.3805049,9.97411905 40.7419333,11.0149821 C41.1033618,12.0556012 41.2839567,12.6235 41.2839567,12.7177024 L40.4640032,12.7177024 C40.4640032,12.6025119 40.3859919,12.2757321 40.230685,11.7373631 L39.0466788,11.7373631 C38.8861234,12.2669464 38.8057265,12.5937262 38.8057265,12.7177024 L38.0344406,12.7177024 C38.0344406,12.6496131 38.2338823,12.090256 38.6327657,11.039875 C39.0316491,9.9897381 39.2313294,9.41110119 39.2313294,9.30445238 L40.1999099,9.30445238 Z M42.5998903,9.30445238 C42.5998903,9.39719048 42.8107832,9.76692262 43.2328076,10.4134048 C43.6820286,11.1001548 43.9401577,11.5660417 44.0067178,11.8108214 L44.045127,11.8108214 C44.0040935,11.4210774 43.9838154,11.0713571 43.9838154,10.7621488 C43.9838154,10.2884524 43.9716485,9.80255357 43.9477918,9.30445238 L44.5885818,9.30445238 C44.5644866,9.73788095 44.5525582,10.2806429 44.5525582,10.932494 C44.5525582,11.5894702 44.5644866,12.1847024 44.5885818,12.7177024 L43.9554259,12.7177024 C43.9554259,12.6459524 43.7204378,12.2679226 43.2507001,11.5826369 C42.7587757,10.860744 42.4784599,10.3672798 42.4102298,10.1015119 L42.3691964,10.1015119 C42.4118998,10.4841786 42.4331322,10.8302381 42.4331322,11.1396905 C42.4331322,11.5711667 42.4450606,12.0973333 42.4691558,12.7177024 L41.8386242,12.7177024 C41.8643894,12.1761607 41.8770334,11.5809286 41.8770334,10.932494 C41.8770334,10.2945536 41.8643894,9.75179167 41.8386242,9.30445238 L42.5998903,9.30445238 Z M50.2440425,9.28883333 C51.0282111,9.28883333 51.4204146,9.56314286 51.4204146,10.112006 C51.4204146,10.5471429 51.1964005,10.85025 50.7488495,11.0215714 L50.7488495,11.0608631 C50.9215718,11.1099167 51.0725845,11.2475595 51.2026033,11.4737917 C51.3323835,11.7000238 51.5074914,12.1149048 51.727927,12.7177024 L50.9692851,12.7177024 C50.7710362,12.0990417 50.6190693,11.7173512 50.5131457,11.5721429 C50.4072221,11.4269345 50.2364084,11.3544524 50.0007046,11.3544524 C49.9014608,11.3544524 49.8067499,11.3554286 49.7160946,11.3571369 C49.7160946,11.8064286 49.7239673,12.259869 49.7392355,12.7177024 L49.0268755,12.7177024 C49.0488237,12.1898274 49.0600363,11.5948393 49.0600363,10.932494 C49.0600363,10.296506 49.0488237,9.75374405 49.0268755,9.30445238 L49.4701323,9.30445238 C49.5214242,9.30445238 49.6285406,9.30176786 49.7917202,9.29664286 C49.9548998,9.29127381 50.1056739,9.28883333 50.2440425,9.28883333 Z M56.8504299,9.30445238 C56.8282432,9.74495833 56.8170305,10.2874762 56.8170305,10.932494 C56.8170305,11.5914226 56.8282432,12.1866548 56.8504299,12.7177024 L56.1251873,12.7177024 C56.147374,12.1761607 56.1585866,11.5809286 56.1585866,10.932494 C56.1585866,10.2945536 56.147374,9.75179167 56.1251873,9.30445238 L56.8504299,9.30445238 Z M64.4084595,9.30445238 C64.4084595,9.40402381 64.589293,9.97411905 64.9507215,11.0149821 C65.3119114,12.0556012 65.4927449,12.6235 65.4927449,12.7177024 L64.6727914,12.7177024 C64.6727914,12.6025119 64.5950186,12.2757321 64.4392346,11.7373631 L63.2552284,11.7373631 C63.0946731,12.2669464 63.0145147,12.5937262 63.0145147,12.7177024 L62.2432287,12.7177024 C62.2432287,12.6496131 62.4426704,12.090256 62.8415538,11.039875 C63.2404373,9.9897381 63.439879,9.41110119 63.439879,9.30445238 L64.4084595,9.30445238 Z M67.3237438,9.28883333 C67.6481945,9.28883333 67.9225461,9.36375595 68.1463216,9.51408929 C68.3703357,9.66466667 68.4819849,9.89260714 68.4819849,10.1983988 C68.4819849,10.6162083 68.3304951,10.9246845 68.0270383,11.1238274 C67.7240587,11.3232143 67.3518947,11.4227857 66.9110236,11.4227857 C66.8308652,11.4227857 66.7736092,11.4210774 66.7394941,11.4174167 C66.7394941,11.7461488 66.7487982,12.1793333 66.767645,12.7177024 L66.0474123,12.7177024 C66.069599,12.2127679 66.0808117,11.6177798 66.0808117,10.932494 C66.0808117,10.3033393 66.069599,9.76057738 66.0474123,9.30445238 L66.4935319,9.30445238 C66.5565135,9.30445238 66.677944,9.30176786 66.8573461,9.29664286 C67.0367482,9.29127381 67.1920551,9.28883333 67.3237438,9.28883333 Z M70.3974364,9.28883333 C70.721887,9.28883333 70.9962387,9.36375595 71.2200142,9.51408929 C71.4437897,9.66466667 71.5556774,9.89260714 71.5556774,10.1983988 C71.5556774,10.6162083 71.4039491,10.9246845 71.1009694,11.1238274 C70.7977512,11.3232143 70.4255873,11.4227857 69.9847161,11.4227857 C69.9043192,11.4227857 69.8473017,11.4210774 69.8131867,11.4174167 C69.8131867,11.7461488 69.8224908,12.1793333 69.8413376,12.7177024 L69.1211049,12.7177024 C69.1432916,12.2127679 69.1545042,11.6177798 69.1545042,10.932494 C69.1545042,10.3033393 69.1432916,9.76057738 69.1211049,9.30445238 L69.5669859,9.30445238 C69.6302061,9.30445238 69.7516365,9.30176786 69.9310386,9.29664286 C70.1104407,9.29127381 70.2657476,9.28883333 70.3974364,9.28883333 Z M78.0659224,9.30445238 C78.0659224,9.39719048 78.2770539,9.76692262 78.6990783,10.4134048 C79.1482993,11.1001548 79.4061898,11.5660417 79.4729885,11.8108214 L79.5113977,11.8108214 C79.4703642,11.4210774 79.4498475,11.0713571 79.4498475,10.7621488 C79.4498475,10.2884524 79.4379192,9.80255357 79.4140625,9.30445238 L80.0546139,9.30445238 C80.0307573,9.73788095 80.0188289,10.2806429 80.0188289,10.932494 C80.0188289,11.5894702 80.0307573,12.1847024 80.0546139,12.7177024 L79.4216966,12.7177024 C79.4216966,12.6459524 79.1869471,12.2679226 78.7169708,11.5826369 C78.2248078,10.860744 77.9447306,10.3672798 77.876262,10.1015119 L77.8354671,10.1015119 C77.8779319,10.4841786 77.8994029,10.8302381 77.8994029,11.1396905 C77.8994029,11.5711667 77.9113312,12.0973333 77.9351879,12.7177024 L77.3048949,12.7177024 C77.3304215,12.1761607 77.3433041,11.5809286 77.3433041,10.932494 C77.3433041,10.2945536 77.3304215,9.75179167 77.3048949,9.30445238 L78.0659224,9.30445238 Z M53.743338,9.79474405 C53.4937973,9.79474405 53.2821887,9.90920238 53.1077964,10.138119 C52.9336428,10.3672798 52.8463274,10.6562321 52.8463274,11.0059524 C52.8463274,11.3693393 52.9381756,11.665125 53.1218719,11.8930655 C53.3055682,12.12125 53.5307751,12.2354643 53.797254,12.2354643 C54.0465562,12.2354643 54.2584033,12.1205179 54.4327956,11.890625 C54.6069492,11.6607321 54.6942646,11.3720238 54.6942646,11.024256 C54.6942646,10.6589167 54.602655,10.3626429 54.419913,10.1354345 C54.2371709,9.90847024 54.0114869,9.79474405 53.743338,9.79474405 Z M74.922807,9.79474405 C74.6735048,9.79474405 74.4616577,9.90920238 74.2872654,10.138119 C74.1131118,10.3672798 74.026035,10.6562321 74.026035,11.0059524 C74.026035,11.3693393 74.1176446,11.665125 74.3015794,11.8930655 C74.4852758,12.12125 74.7102441,12.2354643 74.976723,12.2354643 C75.2262637,12.2354643 75.4381109,12.1205179 75.6122646,11.890625 C75.7866568,11.6607321 75.8737336,11.3720238 75.8737336,11.024256 C75.8737336,10.6589167 75.7823626,10.3626429 75.599382,10.1354345 C75.4166399,9.90847024 75.1911944,9.79474405 74.922807,9.79474405 Z M46.4398589,9.81304762 C46.3663804,9.81304762 46.2654667,9.82085714 46.1373564,9.83672024 C46.1545332,10.1861964 46.1631216,10.5512917 46.1631216,10.932494 C46.1631216,11.3503036 46.1714714,11.7644524 46.1886482,12.1751845 C46.2998203,12.197881 46.4107538,12.2091071 46.5219258,12.2091071 C46.8890799,12.2091071 47.1612844,12.0924524 47.3380623,11.8591429 C47.5148402,11.6258333 47.6033484,11.3415179 47.6033484,11.0059524 C47.6033484,10.6703869 47.5076832,10.3877798 47.3163527,10.1576429 C47.1250223,9.92799405 46.8327782,9.81304762 46.4398589,9.81304762 Z M58.7019455,9.81304762 C58.628467,9.81304762 58.5275533,9.82085714 58.399443,9.83672024 C58.4166198,10.1861964 58.4252082,10.5512917 58.4252082,10.932494 C58.4252082,11.3503036 58.4335581,11.7644524 58.4507349,12.1751845 C58.5616684,12.197881 58.6728404,12.2091071 58.7840125,12.2091071 C59.1511665,12.2091071 59.4233711,12.0924524 59.6001489,11.8591429 C59.7769268,11.6258333 59.865435,11.3415179 59.865435,11.0059524 C59.865435,10.6703869 59.7695312,10.3877798 59.5784394,10.1576429 C59.3868704,9.92799405 59.0948648,9.81304762 58.7019455,9.81304762 Z M39.6617036,9.77375595 L39.6206701,9.77375595 C39.6206701,9.84184524 39.4696574,10.3294524 39.1671549,11.2365774 L40.0999505,11.2365774 C39.8079449,10.3348214 39.6617036,9.84721429 39.6617036,9.77375595 Z M63.8702532,9.77375595 L63.8294583,9.77375595 C63.8294583,9.84184524 63.6784456,10.3294524 63.3759431,11.2365774 L64.3087387,11.2365774 C64.0167331,10.3348214 63.8702532,9.84721429 63.8702532,9.77375595 Z M67.0930499,9.78156548 C66.9716195,9.78156548 66.8435092,9.79474405 66.7087191,9.82085714 C66.7275658,10.1512976 66.7368699,10.5251786 66.7368699,10.9429881 C66.7795733,10.9466488 66.8291952,10.9481131 66.8854969,10.9481131 C67.5091101,10.9481131 67.8209167,10.7462857 67.8209167,10.342631 C67.8209167,9.96875 67.5782944,9.78156548 67.0930499,9.78156548 Z M70.1667425,9.78156548 C70.0453121,9.78156548 69.9172018,9.79474405 69.7824116,9.82085714 C69.8012584,10.1512976 69.8105625,10.5251786 69.8105625,10.9429881 C69.8532659,10.9466488 69.9028878,10.9481131 69.9591895,10.9481131 C70.5828027,10.9481131 70.8946093,10.7462857 70.8946093,10.342631 C70.8946093,9.96875 70.651987,9.78156548 70.1667425,9.78156548 Z M50.1109223,9.78425 C49.9501284,9.78425 49.8084198,9.79645238 49.6853195,9.82085714 C49.7041662,10.091994 49.7137089,10.4448869 49.7137089,10.8800238 C49.8074656,10.8836845 49.8869083,10.8853929 49.952037,10.8853929 C50.4952532,10.8853929 50.7669806,10.6923512 50.7669806,10.3060238 C50.7669806,9.95825595 50.548215,9.78425 50.1109223,9.78425 Z" id="Combined-Shape"></path>
                        </g>
                    </g>
                </g>
            </g>
        </g>
    </g>
</svg>