<svg xmlns="http://www.w3.org/2000/svg" width="23" height="20" viewBox="0 0 23 20">
    <g fill="none" fill-rule="evenodd">
        <path d="M1.5 -1.5L21.5 -1.5 21.5 21.5 1.5 21.5z" transform="rotate(90 11.5 10)"/>
        <path fill="#000" fill-rule="nonzero" d="M11.108 2.425c.247.284.242.701.004.979l-.078.079L4.4 9.249l16.203.001c.414 0 .75.336.75.75 0 .38-.282.693-.648.743l-.102.007L4.4 10.749l6.635 5.768c.284.247.337.661.14.97l-.066.088c-.247.285-.661.338-.97.14l-.088-.066-8.146-7.083-.05-.047-.068-.083-.055-.089-.024-.05c-.04-.09-.061-.191-.061-.297 0-.106.022-.207.061-.298l.045-.087.046-.068.045-.054.06-.059 8.147-7.083c.312-.272.786-.239 1.058.074z"/>
    </g>
</svg>
