<svg xmlns="http://www.w3.org/2000/svg" width="30" height="30" viewBox="0 0 30 30">
    <g fill="none" fill-rule="evenodd">
        <path fill="#cccccc" fill-rule="nonzero" d="M10.15.092c3.604 0 6.525 2.922 6.525 6.525V9.49c1.888.412 3.3 2.093 3.3 4.103v7.8c0 2.32-1.88 4.2-4.2 4.2H4.225c-2.32 0-4.2-1.88-4.2-4.2v-7.8c0-2.115 1.564-3.866 3.6-4.157V6.617c0-3.603 2.921-6.525 6.525-6.525zm-.225 13.2c-.331 0-.6.269-.6.6v7.5c0 .332.269.6.6.6.331 0 .6-.268.6-.6v-7.5c0-.331-.269-.6-.6-.6zm.225-11.4c-2.61 0-4.725 2.116-4.725 4.725l-.001 2.774h9.451V6.617c0-2.537-2-4.607-4.509-4.72z" transform="translate(5 2)"/>
        <path d="M-5 -2H25V28H-5z" transform="translate(5 2)"/>
    </g>
</svg>
