<svg xmlns="http://www.w3.org/2000/svg" width="32" height="30" viewBox="0 0 32 30">
    <g fill="none" fill-rule="evenodd">
        <path d="M0 0H31.364V30H0z"/>
        <path fill="#FFF" fill-rule="nonzero" d="M26.925 8.33c-.841.352-1.731.587-2.643.697.963-.557 1.685-1.425 2.034-2.447-.904.52-1.897.883-2.932 1.076-1.432-1.453-3.704-1.808-5.545-.865-1.84.942-2.791 2.948-2.32 4.893-3.717-.177-7.179-1.857-9.524-4.62-1.224 2.024-.593 4.61 1.442 5.905-.731-.018-1.447-.208-2.084-.552v.049c-.003 2.1 1.543 3.911 3.695 4.328-.68.172-1.392.2-2.084.081.605 1.795 2.335 3.025 4.307 3.06-1.937 1.443-4.392 2.095-6.83 1.817C6.549 23.05 9 23.744 11.506 23.75c8.494 0 13.133-6.727 13.133-12.563 0-.193 0-.389-.016-.567.912-.617 1.694-1.394 2.303-2.29z"/>
    </g>
</svg>
