<svg xmlns="http://www.w3.org/2000/svg" width="32" height="30" viewBox="0 0 32 30">
    <g fill="none" fill-rule="evenodd">
        <path d="M0 0H31.364V30H0z"/>
        <path fill="#FFF" fill-rule="nonzero" d="M28.456 9.781c-.176-1.475-1.384-2.643-2.924-2.828-6.54-.812-13.161-.812-19.7 0-1.537.186-2.739 1.356-2.908 2.828-.408 3.474-.408 6.98 0 10.453.169 1.473 1.371 2.642 2.908 2.828 3.271.407 6.567.61 9.866.61 3.294 0 6.584-.203 9.85-.61 1.537-.186 2.739-1.355 2.908-2.828.21-1.737.313-3.485.31-5.234.003-1.744-.1-3.486-.31-5.219zM19.488 15.5l-5.358 3.61c-.212.14-.504.091-.653-.11-.06-.077-.088-.17-.082-.266V11.25c-.002-.245.201-.446.457-.453.098.002.194.029.278.078l5.358 3.61c.14.093.235.238.263.4.028.161-.014.327-.116.459-.036.062-.086.115-.147.156z"/>
    </g>
</svg>
