<svg width="24" height="25" viewBox="0 0 24 25" fill="none" xmlns="http://www.w3.org/2000/svg">
<path d="M14.5 16.0293V7.5293C14.5 6.70087 13.8284 6.0293 13 6.0293H4C3.17157 6.0293 2.5 6.70087 2.5 7.5293V14.5293C2.5 15.3577 3.17157 16.0293 4 16.0293H4.56V16.0293C4.52019 16.1717 4.5 16.3189 4.5 16.4668C4.48326 17.3123 5.15454 18.0115 6 18.0293C6.84546 18.0115 7.51674 17.3123 7.5 16.4668C7.49864 16.3189 7.47805 16.1719 7.43875 16.0293H15.5163V16.0293C15.4771 16.171 15.4573 16.3173 15.4575 16.4643C15.4575 17.2927 16.1291 17.9643 16.9575 17.9643C17.7859 17.9643 18.4575 17.2927 18.4575 16.4643C18.4491 16.3206 18.4303 16.1777 18.4013 16.0368V16.0268H20C20.8284 16.0268 21.5 15.3552 21.5 14.5268V11.5293L20.25 8.0293H14.5" stroke="#999999" stroke-width="1.5" stroke-linejoin="round"/>
</svg>
