<svg xmlns="http://www.w3.org/2000/svg" width="30" height="30" viewBox="0 0 30 30">
    <g fill="none" fill-rule="evenodd">
        <path d="M0 0H30V30H0z"/>
        <path fill="#000" fill-rule="nonzero" d="M16.25 7.275c1.312 0 2.386 1.021 2.47 2.312l.005.188h6.587c.222 0 .423.122.527.313l.039.085 1.562 4.375.035.202v3.747c0 1.312-1.021 2.386-2.312 2.47l-.163.005-1.331-.001-.002.11c-.08 1.238-1.07 2.227-2.307 2.307l-.163.006c-1.312 0-2.386-1.021-2.47-2.312l-.004-.107h-8.75v.1c-.057 1.258-1.042 2.283-2.318 2.391l-.168.009c-1.332-.028-2.4-1.087-2.46-2.39l-.001-.11H5c-1.312 0-2.386-1.021-2.47-2.312l-.005-.163V9.75c0-1.312 1.021-2.386 2.312-2.47L5 7.275h11.25zm0 1.2H5c-.66 0-1.203.502-1.268 1.145l-.007.13v8.75c0 .66.502 1.203 1.145 1.268l.13.007h.7c.367 0 .64.323.596.673l-.018.089c-.035.125-.053.255-.053.397-.014.726.562 1.326 1.262 1.341.726-.015 1.302-.615 1.288-1.348 0-.088-.01-.176-.025-.263l-.03-.13c-.097-.352.14-.7.489-.752l.09-.007h8.226V9.75c0-.66-.502-1.203-1.145-1.268l-.13-.007zm8.639 2.5h-6.164v8.8h.67c.366 0 .64.322.596.672l-.017.088c-.035.125-.052.254-.052.384 0 .704.57 1.275 1.275 1.275.704 0 1.275-.571 1.276-1.24l-.021-.225-.038-.223-.012-.134c0-.298.217-.546.502-.592l.098-.008H25c.66 0 1.203-.502 1.268-1.145l.007-.13-.001-3.644-1.385-3.878z"/>
    </g>
</svg>
