<svg xmlns="http://www.w3.org/2000/svg" width="40" height="40" fill="none" viewBox="0 0 40 40">
    <path fill="#333" d="M26.323 24.25c.037-.027.076-.052.117-.073.944-.484 1.942-.587 2.665-.147.648.406 6.251 4.14 6.754 4.5.93.663 1.048 2.141.212 3.3-1.59 2.205-4.21 4.856-5.631 4.802-.663-.025-1.132-.071-1.847-.224-1.032-.22-2.17-.609-3.44-1.21-3.334-1.58-7.192-4.44-11.627-8.899-4.436-4.459-7.262-8.322-8.8-11.648-.587-1.267-.96-2.401-1.164-3.427-.142-.71-.18-1.17-.194-1.832-.03-1.415 2.717-3.986 4.955-5.504 1.171-.795 2.638-.65 3.305.26.34.473 3.942 5.975 4.432 6.756.449.716.326 1.713-.182 2.655-.148.274-.472.835-.925 1.609l-.021.037-.697 1.182-.063.106c.176.256.398.558.671.907.878 1.123 2.076 2.474 3.647 4.055.455.467 1.158 1.076 2.05 1.788.204.163.417.33.638.502.745.577 1.544 1.172 2.344 1.75.209.152.407.293.59.424l2.211-1.668z"/>
    <mask id="fe3vxbpo6a" width="34" height="34" x="3" y="3" maskUnits="userSpaceOnUse">
        <path fill="#fff" d="M26.323 24.25c.037-.027.076-.052.117-.073.944-.484 1.942-.587 2.665-.147.648.406 6.251 4.14 6.754 4.5.93.663 1.048 2.141.212 3.3-1.59 2.205-4.21 4.856-5.631 4.802-.663-.025-1.132-.071-1.847-.224-1.032-.22-2.17-.609-3.44-1.21-3.334-1.58-7.192-4.44-11.627-8.899-4.436-4.459-7.262-8.322-8.8-11.648-.587-1.267-.96-2.401-1.164-3.427-.142-.71-.18-1.17-.194-1.832-.03-1.415 2.717-3.986 4.955-5.504 1.171-.795 2.638-.65 3.305.26.34.473 3.942 5.975 4.432 6.756.449.716.326 1.713-.182 2.655-.148.274-.472.835-.925 1.609l-.021.037-.697 1.182-.063.106c.176.256.398.558.671.907.878 1.123 2.076 2.474 3.647 4.055.455.467 1.158 1.076 2.05 1.788.204.163.417.33.638.502.745.577 1.544 1.172 2.344 1.75.209.152.407.293.59.424l2.211-1.668z"/>
    </mask>
    <g mask="url(#fe3vxbpo6a)">
        <path fill="#282828" d="M0 0H40V40H0z"/>
    </g>
</svg>
