<svg xmlns="http://www.w3.org/2000/svg" width="30" height="30" viewBox="0 0 30 30">
    <g fill="none" fill-rule="evenodd">
        <path d="M0 0H30V30H0z"/>
        <path fill="#FFF" fill-rule="nonzero" d="M16.299 4.036c1.198.307 2.334.818 3.358 1.511.864.584 1.61 1.324 2.183 2.157l.185.28c.124.176.294.464.463.84.327.73.504 1.488.447 2.248l.09.035c.793.322 1.546.74 2.256 1.261l.352.269c.456.408.852.88 1.172 1.399.81 1.298 1.035 2.877.62 4.353-.16.56-.401 1.094-.714 1.584-.32.502-.702.961-1.136 1.366-.27.254-.558.49-.86.704l-.122.083.014.025c.111.183.285.39.513.605l.142.13c.206.18.43.35.653.501l.143.095c.062.04.111.07.142.088.596.346.45 1.244-.225 1.383-.703.145-1.422.203-2.134.171-.624-.023-1.243-.116-1.85-.279-.518-.141-1.023-.33-1.506-.565-.297-.145-.586-.305-.866-.48l-.069-.046-.232.01c-.802.02-1.604-.056-2.386-.227l-.39-.094c-.957-.247-1.864-.658-2.679-1.215-.583-.395-1.099-.88-1.53-1.436l-.417.226c-1.06.567-1.707.865-2.025.978-.6.216-1.22.378-1.85.483-.888.146-1.789.182-2.684.108-.728-.06-.95-1.021-.32-1.393.08-.048.238-.152.447-.309.353-.265.707-.576 1.036-.928.276-.296.52-.604.725-.925l.049-.083-.375-.173c-.26-.122-.494-.24-.704-.352-.288-.155-.526-.3-.712-.44-.592-.436-1.126-.948-1.588-1.522-.45-.56-.814-1.185-1.081-1.855-.267-.675-.422-1.389-.458-2.117-.053-1.145.183-2.286.686-3.318.514-1.048 1.236-1.98 2.12-2.738.946-.816 2.023-1.464 3.184-1.918 1.257-.495 2.585-.787 3.93-.866 1.348-.085 2.7.045 4.003.386zM19.517 12l-.391.016c-.913.054-1.812.253-2.664.59-.768.302-1.478.733-2.104 1.276-.555.478-1.007 1.065-1.326 1.72-.292.608-.428 1.28-.395 1.955.032.67.234 1.322.583 1.889.383.611.889 1.136 1.487 1.542.673.46 1.421.8 2.212 1.004.771.2 1.566.293 2.394.272l.357-.016h.096c.15 0 .298.046.422.13.303.207.621.392.952.552.4.194.818.351 1.243.467.396.106.8.176 1.21.21l.271.016-.081-.085c-.441-.483-.728-.985-.802-1.523l-.016-.181c-.013-.28.13-.542.37-.683.438-.256.845-.56 1.216-.907.342-.32.643-.681.895-1.078.236-.368.416-.769.535-1.186.3-1.067.137-2.21-.45-3.153-.247-.399-.55-.76-.864-1.044-.67-.532-1.413-.965-2.205-1.285l-.343-.13-.063-.028-.223-.066c-.63-.164-1.275-.256-1.926-.273l-.39-.001zm-7.13-6.853c-1.19.07-2.362.328-3.474.766-1.004.392-1.935.952-2.753 1.658-.731.627-1.327 1.396-1.75 2.26-.392.805-.577 1.696-.536 2.588.028.561.148 1.114.354 1.634.211.53.5 1.025.857 1.47.38.472.82.894 1.312 1.257.12.09.3.2.529.323.123.066.258.135.404.207l.456.215c.224.103.457.206.841.373.378.164.553.603.391.982-.285.669-.69 1.288-1.185 1.86l-.217.241-.05.051.23-.033c.405-.067.805-.162 1.199-.284l.391-.13.213-.09c.081-.035.184-.082.31-.141.394-.186.886-.436 1.485-.758l.172-.094c-.25-.592-.396-1.225-.428-1.872-.045-.924.142-1.844.544-2.682.41-.842.988-1.591 1.695-2.2.752-.653 1.61-1.173 2.535-1.538.998-.395 2.053-.628 3.12-.691.804-.052 1.609-.007 2.407.135-.021-.392-.136-.806-.32-1.217-.1-.223-.198-.4-.282-.531l-.06-.09c-.505-.804-1.172-1.494-1.96-2.026-.881-.597-1.86-1.037-2.894-1.302-1.152-.301-2.344-.416-3.535-.34z"/>
    </g>
</svg>
