<?xml version="1.0" encoding="UTF-8"?>
<svg width="100px" height="100px" viewBox="0 0 100 100" version="1.1" xmlns="http://www.w3.org/2000/svg" xmlns:xlink="http://www.w3.org/1999/xlink">
    <title>Drupal/Checkout/register</title>
    <defs>
        <path d="M41.6666667,16.734375 C53.1265752,16.734375 62.4166667,26.0244664 62.4166667,37.484375 C62.4166667,45.436952 57.9428988,52.3446245 51.3748148,55.8279407 C63.2463362,59.927478 72.30173,71.8333028 74.895209,89.3953178 C75.0565767,90.4880366 74.3015676,91.5046745 73.2088488,91.6660423 C72.1161301,91.82741 71.0994921,91.0724009 70.9381244,89.9796822 C67.9620707,69.8270223 56.1371259,58.25 41.8541667,58.25 C27.465742,58.25 15.3638317,69.9037425 12.3951534,89.9800582 C12.233578,91.0727462 11.2167965,91.8275621 10.1241085,91.6659867 C9.03142044,91.5044113 8.27660452,90.4876299 8.43817995,89.3949418 C11.0149812,71.9687771 20.1785811,60.0629156 32.0863835,55.8938716 C25.4484936,52.4339372 20.9166667,45.4883886 20.9166667,37.484375 C20.9166667,26.0244664 30.2067581,16.734375 41.6666667,16.734375 Z M41.6666667,20.734375 C32.4158971,20.734375 24.9166667,28.2336054 24.9166667,37.484375 C24.9166667,46.7351446 32.4158971,54.234375 41.6666667,54.234375 C50.9174362,54.234375 58.4166667,46.7351446 58.4166667,37.484375 C58.4166667,28.2336054 50.9174362,20.734375 41.6666667,20.734375 Z M81.25,8.41666667 C82.3545695,8.41666667 83.25,9.31209717 83.25,10.4166667 L83.25,10.4166667 L83.2493997,16.7496667 L89.5833333,16.75 C90.6376951,16.75 91.5014985,17.5658778 91.5778476,18.6007377 L91.5833333,18.75 C91.5833333,19.8545695 90.6879028,20.75 89.5833333,20.75 L89.5833333,20.75 L83.2493997,20.7496667 L83.25,27.0833333 C83.25,28.1376951 82.4341222,29.0014985 81.3992623,29.0778476 L81.25,29.0833333 C80.1454305,29.0833333 79.25,28.1879028 79.25,27.0833333 L79.25,27.0833333 L79.2493997,20.7496667 L72.9166667,20.75 C71.8623049,20.75 70.9985015,19.9341222 70.9221524,18.8992623 L70.9166667,18.75 C70.9166667,17.6454305 71.8120972,16.75 72.9166667,16.75 L72.9166667,16.75 L79.2493997,16.7496667 L79.25,10.4166667 C79.25,9.36230487 80.0658778,8.49850154 81.1007377,8.4221524 Z" id="path-1"></path>
    </defs>
    <g id="Drupal/Checkout/register" stroke="none" stroke-width="1" fill="none" fill-rule="evenodd">
        <rect id="Rectangle" x="0" y="0" width="100" height="100"></rect>
        <g id="Group" transform="translate(-0.000000, 0.000000)">
            <mask id="mask-2" fill="white">
                <use xlink:href="#path-1"></use>
            </mask>
            <use id="Mask" fill="#333333" fill-rule="nonzero" xlink:href="#path-1"></use>
            <g mask="url(#mask-2)" fill="#282828" id="COLOUR-MASK">
                <g>
                    <rect id="Rectangle" x="0" y="0" width="100" height="100"></rect>
                </g>
            </g>
            <rect id="Rectangle" mask="url(#mask-2)" x="0" y="0" width="100" height="100"></rect>
        </g>
    </g>
</svg>