<svg xmlns="http://www.w3.org/2000/svg" width="40" height="41" fill="none" viewBox="0 0 40 41">
    <path fill="#333" fill-rule="evenodd" d="M19.833 36.967c9.186 0 16.633-7.447 16.633-16.633 0-9.187-7.447-16.634-16.633-16.634-9.187 0-16.634 7.447-16.634 16.634 0 9.186 7.447 16.633 16.634 16.633zm.166-15.005l4.125 4.124c.469.469 1.229.469 1.697 0 .469-.468.469-1.228 0-1.697l-4.125-4.124 4.125-4.125c.469-.469.469-1.229 0-1.697-.469-.469-1.228-.469-1.697 0l-4.125 4.124-4.124-4.124c-.47-.469-1.229-.469-1.698 0-.468.468-.468 1.228 0 1.697l4.125 4.125-4.125 4.124c-.468.469-.468 1.229 0 1.697.469.469 1.229.469 1.697 0L20 21.962z" clip-rule="evenodd"/>
    <mask id="vtp70911da" width="34" height="34" x="3" y="3" maskUnits="userSpaceOnUse">
        <path fill="#fff" fill-rule="evenodd" d="M19.833 36.967c9.186 0 16.633-7.447 16.633-16.633 0-9.187-7.447-16.634-16.633-16.634-9.187 0-16.634 7.447-16.634 16.634 0 9.186 7.447 16.633 16.634 16.633zm.166-15.005l4.125 4.124c.469.469 1.229.469 1.697 0 .469-.468.469-1.228 0-1.697l-4.125-4.124 4.125-4.125c.469-.469.469-1.229 0-1.697-.469-.469-1.228-.469-1.697 0l-4.125 4.124-4.124-4.124c-.47-.469-1.229-.469-1.698 0-.468.468-.468 1.228 0 1.697l4.125 4.125-4.125 4.124c-.468.469-.468 1.229 0 1.697.469.469 1.229.469 1.697 0L20 21.962z" clip-rule="evenodd"/>
    </mask>
    <g mask="url(#vtp70911da)">
        <path fill="#BD0000" d="M0 0.5H40V40.5H0z"/>
    </g>
</svg>
