<svg width="100" height="100" viewBox="0 0 100 100" fill="none" xmlns="http://www.w3.org/2000/svg">
<path fill-rule="evenodd" clip-rule="evenodd" d="M62 31.3333V31.25C62 26.6937 58.3064 23 53.75 23H16.25C11.6937 23 8 26.6937 8 31.25V60.4167C8 64.973 11.6937 68.6667 16.25 68.6667H16.3317C16.337 73.1743 19.9748 76.9036 24.5413 76.9996C29.1778 76.9039 32.8093 73.1951 32.8345 68.6667H61.9916C62.0901 73.1352 65.7451 76.7292 70.2396 76.7292C74.7368 76.7292 78.3935 73.1308 78.4877 68.6562H82.9167C87.473 68.6562 91.1667 64.9626 91.1667 60.4062V47.9167C91.1667 47.6874 91.1273 47.4599 91.0501 47.244L85.8418 32.6607C85.5575 31.8647 84.8036 31.3333 83.9583 31.3333H62ZM62 35.3333H82.5489L87.1667 48.2631V60.4062C87.1667 62.7535 85.2639 64.6562 82.9167 64.6562H76.2552C75.1506 64.6562 74.2552 65.5517 74.2552 66.6562V66.6979C74.2552 66.8337 74.269 66.9691 74.2965 67.102C74.3939 67.5745 74.4583 68.0531 74.4892 68.5344C74.4596 70.8562 72.5683 72.7292 70.2396 72.7292C67.8924 72.7292 65.9896 70.8264 65.9896 68.4792C65.9891 68.0452 66.0471 67.6155 66.1621 67.1996C66.5142 65.9257 65.556 64.6667 64.2344 64.6667H62V35.3333ZM28.6501 67.1982C28.299 65.9247 29.2571 64.6667 30.5781 64.6667H58V31.25C58 28.9028 56.0972 27 53.75 27H16.25C13.9028 27 12 28.9028 12 31.25V60.4167C12 62.7639 13.9028 64.6667 16.25 64.6667H18.5833C19.9073 64.6667 20.8659 65.93 20.5095 67.2051C20.3926 67.6233 20.3333 68.0554 20.3329 68.5292C20.285 70.9486 22.206 72.9496 24.5413 73.0004C26.9607 72.9496 28.8816 70.9486 28.8334 68.5079C28.8294 68.0653 28.7677 67.625 28.6501 67.1982Z" fill="#333333"/>
<mask id="mask0" mask-type="alpha" maskUnits="userSpaceOnUse" x="8" y="23" width="84" height="54">
<path fill-rule="evenodd" clip-rule="evenodd" d="M62 31.3333V31.25C62 26.6937 58.3064 23 53.75 23H16.25C11.6937 23 8 26.6937 8 31.25V60.4167C8 64.973 11.6937 68.6667 16.25 68.6667H16.3317C16.337 73.1743 19.9748 76.9036 24.5413 76.9996C29.1778 76.9039 32.8093 73.1951 32.8345 68.6667H61.9916C62.0901 73.1352 65.7451 76.7292 70.2396 76.7292C74.7368 76.7292 78.3935 73.1308 78.4877 68.6562H82.9167C87.473 68.6562 91.1667 64.9626 91.1667 60.4062V47.9167C91.1667 47.6874 91.1273 47.4599 91.0501 47.244L85.8418 32.6607C85.5575 31.8647 84.8036 31.3333 83.9583 31.3333H62ZM62 35.3333H82.5489L87.1667 48.2631V60.4062C87.1667 62.7535 85.2639 64.6562 82.9167 64.6562H76.2552C75.1506 64.6562 74.2552 65.5517 74.2552 66.6562V66.6979C74.2552 66.8337 74.269 66.9691 74.2965 67.102C74.3939 67.5745 74.4583 68.0531 74.4892 68.5344C74.4596 70.8562 72.5683 72.7292 70.2396 72.7292C67.8924 72.7292 65.9896 70.8264 65.9896 68.4792C65.9891 68.0452 66.0471 67.6155 66.1621 67.1996C66.5142 65.9257 65.556 64.6667 64.2344 64.6667H62V35.3333ZM28.6501 67.1982C28.299 65.9247 29.2571 64.6667 30.5781 64.6667H58V31.25C58 28.9028 56.0972 27 53.75 27H16.25C13.9028 27 12 28.9028 12 31.25V60.4167C12 62.7639 13.9028 64.6667 16.25 64.6667H18.5833C19.9073 64.6667 20.8659 65.93 20.5095 67.2051C20.3926 67.6233 20.3333 68.0554 20.3329 68.5292C20.285 70.9486 22.206 72.9496 24.5413 73.0004C26.9607 72.9496 28.8816 70.9486 28.8334 68.5079C28.8294 68.0653 28.7677 67.625 28.6501 67.1982Z" fill="white"/>
</mask>
<g mask="url(#mask0)">
<rect width="100" height="100" fill="#282828"/>
</g>
</svg>
