<svg width="24" height="25" viewBox="0 0 24 25" fill="none" xmlns="http://www.w3.org/2000/svg">
<path fill-rule="evenodd" clip-rule="evenodd" d="M14.4763 16.6538L16.0826 15.4413C16.5063 15.2238 16.9426 15.1713 17.2076 15.3325C17.6063 15.5825 20.9576 17.8175 21.2363 18.0163C21.5151 18.215 21.6476 18.7775 21.2526 19.325C20.8576 19.8725 19.0413 22.0363 18.2813 22.0075C17.5213 21.9788 14.3576 21.8825 8.45509 15.9488C2.55259 10.015 2.51634 6.88251 2.50009 6.13251C2.48384 5.38251 4.70259 3.61751 5.26259 3.23751C5.82259 2.85751 6.38759 3.00501 6.58634 3.27626C6.80759 3.58501 8.98884 6.92251 9.22884 7.30501C9.39259 7.56626 9.32759 8.00001 9.10384 8.41501C8.88009 8.83001 7.93759 10.415 7.93759 10.415C7.93759 10.415 8.57259 11.5238 10.7501 13.7163C11.7876 14.7788 14.4763 16.6538 14.4763 16.6538Z" stroke="#282828" stroke-width="1.5" stroke-linecap="round" stroke-linejoin="round"/>
</svg>
