<svg xmlns="http://www.w3.org/2000/svg" width="30" height="30" viewBox="0 0 30 30">
    <g fill="none" fill-rule="evenodd">
        <path fill="#000" fill-rule="nonzero" d="M9.587 2.525c-3.97 0-7.308 3.268-7.051 7.121.036.54.114 1.087.234 1.643.706 3.278 2.796 6.737 5.834 10.224 1.317 1.51 2.726 2.926 4.135 4.207.494.448.952.848 1.364 1.194.145.122.274.228.385.319l.14.113c.219.173.527.172.745-.001 5.322-4.232 8.728-8.289 10.584-12.053.68-1.376 1.109-2.635 1.336-3.76.152-.752.194-1.341.175-1.75l-.002-.044c-.012-3.95-3.055-7.213-6.883-7.213-1.977 0-3.974.795-5.416 2.78-1.32-1.745-3.383-2.777-5.58-2.78z"/>
        <path d="M0 0H30V30H0z"/>
    </g>
</svg>
