<svg width="23" height="20" xmlns="http://www.w3.org/2000/svg">

 <g>
  <title>Layer 1</title>
  <g transform="rotate(90 11.5 10)" id="svg_1" fill-rule="evenodd" fill="none">
   <path id="svg_2" transform="rotate(90 11.5 10)" d="m1.5,-1.5l20,0l0,23l-20,0l0,-23z"/>
   <path id="svg_3" d="m11.108,2.425c0.247,0.284 0.242,0.701 0.004,0.979l-0.078,0.079l-6.634,5.766l16.203,0.001c0.414,0 0.75,0.336 0.75,0.75c0,0.38 -0.282,0.693 -0.648,0.743l-0.102,0.007l-16.203,-0.001l6.635,5.768c0.284,0.247 0.337,0.661 0.14,0.97l-0.066,0.088c-0.247,0.285 -0.661,0.338 -0.97,0.14l-0.088,-0.066l-8.146,-7.083l-0.05,-0.047l-0.068,-0.083l-0.055,-0.089l-0.024,-0.05c-0.04,-0.09 -0.061,-0.191 -0.061,-0.297c0,-0.106 0.022,-0.207 0.061,-0.298l0.045,-0.087l0.046,-0.068l0.045,-0.054l0.06,-0.059l8.147,-7.083c0.312,-0.272 0.786,-0.239 1.058,0.074l-0.001,0z" fill-rule="nonzero" fill="#000"/>
  </g>
 </g>
</svg>