<svg xmlns="http://www.w3.org/2000/svg" width="30" height="30" viewBox="0 0 30 30">
    <g fill="none" fill-rule="evenodd">
        <path d="M0 0H30V30H0z"/>
        <path fill="#FFF" fill-rule="nonzero" d="M26.375 17.5c0 .051-.001.102-.004.152h.004c.003 1.036-.224 2.508-.915 3.993-1.107 2.378-3.092 3.894-6.063 4.085-.316 1.095-1.326 1.895-2.522 1.895h-3.75c-1.45 0-2.625-1.175-2.625-2.625s1.175-2.625 2.625-2.625h3.75c1.18 0 2.179.78 2.51 1.851 2.348-.173 3.84-1.336 4.715-3.214.15-.32.275-.652.38-.99-.233.067-.477.103-.73.103-1.45 0-2.625-1.175-2.625-2.625v-3.734c0-1.45 1.175-2.625 2.625-2.625.355 0 .693.07 1.002.198l-.03-.165c-.193-1.022-.54-2.044-1.078-2.992C22.117 5.487 19.377 3.875 15 3.875S7.883 5.487 6.356 8.182c-.538.948-.885 1.97-1.078 2.992l-.03.165c.309-.128.647-.198 1.002-.198 1.45 0 2.625 1.175 2.625 2.625V17.5c0 1.45-1.175 2.625-2.625 2.625S3.625 18.95 3.625 17.5v-5c0-.337.045-.896.179-1.604.222-1.175.622-2.35 1.247-3.453C6.843 4.279 10.08 2.375 15 2.375c4.92 0 8.157 1.904 9.95 5.068.624 1.103 1.024 2.278 1.246 3.453.119.63.168 1.141.177 1.484l.002.12zm-9.5 6.375h-3.75c-.621 0-1.125.504-1.125 1.125s.504 1.125 1.125 1.125h3.75c.621 0 1.125-.504 1.125-1.125s-.504-1.125-1.125-1.125zM6.25 12.641c-.621 0-1.125.503-1.125 1.125V17.5c0 .621.504 1.125 1.125 1.125s1.125-.504 1.125-1.125v-3.734c0-.622-.504-1.125-1.125-1.125zm17.5 0c-.621 0-1.125.503-1.125 1.125V17.5c0 .621.504 1.125 1.125 1.125s1.125-.504 1.125-1.125v-3.734c0-.622-.504-1.125-1.125-1.125z"/>
    </g>
</svg>
