<svg xmlns="http://www.w3.org/2000/svg" width="30" height="30" viewBox="0 0 30 30">
    <g fill="none" fill-rule="evenodd">
        <path d="M0 0H30V30H0z"/>
        <path fill="#000" fill-rule="nonzero" d="M25 6.275c1.312 0 2.386 1.021 2.47 2.312l.005.163v8.75c0 1.312-1.021 2.386-2.312 2.47l-.192.005-.003.106c-.08 1.238-1.07 2.227-2.307 2.307l-.163.006c-1.312 0-2.386-1.021-2.47-2.317l-.003-.106h-8.748l-.003.107c-.08 1.238-1.07 2.227-2.307 2.307l-.162.006c-1.313 0-2.386-1.022-2.47-2.344l-.002-.079H5c-1.312 0-2.386-1.02-2.47-2.312l-.005-.162V13.75l.035-.202 1.562-4.375c.075-.209.258-.357.472-.39l.093-.008h6.587l.001-.025c0-1.312 1.021-2.386 2.312-2.47l.163-.005H25zm0 1.2H13.75c-.66 0-1.203.502-1.268 1.145l-.007.13-.001 10.021H20.7c.366 0 .639.322.596.672l-.018.088c-.035.128-.053.26-.055.388 0 .704.571 1.275 1.275 1.275.705 0 1.275-.571 1.275-1.276 0-.13-.017-.258-.051-.383-.098-.353.14-.702.489-.753l.089-.007h.7c.66 0 1.203-.502 1.268-1.145l.007-.13V8.75c0-.66-.502-1.203-1.145-1.268L25 7.475zm-13.726 2.5H5.11l-1.385 3.878v3.64c0 .66.502 1.204 1.145 1.27l.13.006h2c.298 0 .546.217.592.502l.008.11-.012.121c-.03.148-.05.298-.058.414 0 .704.57 1.275 1.275 1.275.704 0 1.275-.571 1.275-1.276 0-.13-.018-.258-.052-.383-.098-.353.14-.702.489-.754l.09-.006.667-.001V9.975zm6.632-1.024c.208.208.23.532.069.765l-.07.083-.852.851h3.572c1.712 0 3.1 1.388 3.1 3.1 0 1.653-1.294 3.004-2.924 3.095l-.176.005H16.25c-.331 0-.6-.269-.6-.6 0-.298.218-.546.503-.592l.097-.008h4.375c1.05 0 1.9-.85 1.9-1.9 0-1-.772-1.819-1.752-1.894l-.148-.006h-3.563l.839.838c.234.235.234.614 0 .849-.208.208-.532.231-.766.07l-.083-.07-1.833-1.831c-.09-.078-.157-.182-.19-.3 0-.008-.002-.015-.004-.022-.006-.022-.01-.044-.012-.066l-.003-.044v-.048c0-.011 0-.023.002-.035l.003-.027.002-.011c.004-.026.008-.043.012-.06l.009-.026.006-.018c.002-.01.006-.02.01-.03.016-.04.037-.079.062-.115l.07-.083 1.871-1.87c.235-.235.614-.234.849 0z"/>
    </g>
</svg>
