<?xml version="1.0" encoding="UTF-8"?>
<svg width="100px" height="100px" viewBox="0 0 100 100" version="1.1" xmlns="http://www.w3.org/2000/svg" xmlns:xlink="http://www.w3.org/1999/xlink">
    <title>Drupal/Checkout/guest</title>
    <defs>
        <path d="M70.8333333,8.41666667 C75.3896825,8.41666667 79.0833333,12.1103175 79.0833333,16.6666667 L79.0833333,16.6666667 L79.0833333,83.3333333 C79.0833333,87.8896825 75.3896825,91.5833333 70.8333333,91.5833333 L70.8333333,91.5833333 L29.1666667,91.5833333 C24.6103175,91.5833333 20.9166667,87.8896825 20.9166667,83.3333333 L20.9166667,83.3333333 L20.9166667,72.9166667 C20.9166667,71.8120972 21.8120972,70.9166667 22.9166667,70.9166667 C24.0212362,70.9166667 24.9166667,71.8120972 24.9166667,72.9166667 L24.9166667,72.9166667 L24.9166667,83.3333333 C24.9166667,85.6805435 26.8194565,87.5833333 29.1666667,87.5833333 L29.1666667,87.5833333 L70.8333333,87.5833333 C73.1805435,87.5833333 75.0833333,85.6805435 75.0833333,83.3333333 L75.0833333,83.3333333 L75.0833333,16.6666667 C75.0833333,14.3194565 73.1805435,12.4166667 70.8333333,12.4166667 L70.8333333,12.4166667 L29.1666667,12.4166667 C26.8194565,12.4166667 24.9166667,14.3194565 24.9166667,16.6666667 L24.9166667,16.6666667 L24.9166667,26.5625 C24.9166667,27.6670695 24.0212362,28.5625 22.9166667,28.5625 C21.8120972,28.5625 20.9166667,27.6670695 20.9166667,26.5625 L20.9166667,26.5625 L20.9166667,16.6666667 C20.9166667,12.1103175 24.6103175,8.41666667 29.1666667,8.41666667 L29.1666667,8.41666667 Z M34.7264114,34.6170364 C35.50746,33.8359879 36.77379,33.8359879 37.5548386,34.6170364 L37.5548386,34.6170364 L51.3449744,48.4063887 C51.8101694,48.7723587 52.1090391,49.3402903 52.109375,49.978114 C52.1093839,49.9949623 52.1091844,50.0117619 52.108779,50.0285106 C52.1020815,50.5306312 51.9069776,51.0306816 51.5238521,51.4139499 L51.5238521,51.4139499 L37.5551021,65.3879083 C36.7741991,66.1691024 35.5078692,66.1693385 34.7266751,65.3884355 C33.9454809,64.6075325 33.9452449,63.3412025 34.7261479,62.5600084 L34.7261479,62.5600084 L45.3000414,51.9816667 L10.5270943,52 C9.47273265,52.0005547 8.60850003,51.1851316 8.53160599,50.1503121 L8.52604166,50.0010526 C8.52546059,48.8964833 9.42041969,48.0005816 10.524989,48.0000003 L10.524989,48.0000003 L45.2630414,47.9816667 L34.7264114,37.4454636 C33.9864707,36.7055228 33.9475264,35.5300386 34.6095787,34.7442512 Z" id="path-1"></path>
    </defs>
    <g id="Drupal/Checkout/guest" stroke="none" stroke-width="1" fill="none" fill-rule="evenodd">
        <rect id="Rectangle" x="0" y="0" width="100" height="100"></rect>
        <g id="Group" transform="translate(-0.000000, 0.000000)">
            <mask id="mask-2" fill="white">
                <use xlink:href="#path-1"></use>
            </mask>
            <use id="Mask" fill="#333333" fill-rule="nonzero" xlink:href="#path-1"></use>
            <g mask="url(#mask-2)" fill="#282828" id="COLOUR-MASK">
                <g>
                    <rect id="Rectangle" x="0" y="0" width="100" height="100"></rect>
                </g>
            </g>
            <rect id="Rectangle" mask="url(#mask-2)" x="0" y="0" width="100" height="100"></rect>
        </g>
    </g>
</svg>