<svg xmlns="http://www.w3.org/2000/svg" width="30" height="30" viewBox="0 0 30 30">
    <g fill="none" fill-rule="evenodd">
        <path d="M0 0H30V30H0z"/>
        <path fill="#000" fill-rule="nonzero" d="M15 2.392c3.362 0 6.1 2.665 6.22 5.997l.005.228v2.657l.15.001c1.924 0 3.496 1.51 3.595 3.409l.005.191v9c0 1.988-1.612 3.6-3.6 3.6H8.625c-1.988 0-3.6-1.612-3.6-3.6v-9c0-1.988 1.612-3.6 3.6-3.6h.15V8.616c0-3.438 2.787-6.225 6.225-6.225zm6.375 10.083H8.625c-1.325 0-2.4 1.075-2.4 2.4v9c0 1.325 1.075 2.4 2.4 2.4h12.75c1.325 0 2.4-1.075 2.4-2.4v-9c0-1.325-1.075-2.4-2.4-2.4zM15 15.025c.298 0 .546.218.592.503l.008.097v7.5c0 .331-.269.6-.6.6-.298 0-.546-.218-.592-.503l-.008-.097v-7.5c0-.331.269-.6.6-.6zm0-11.433c-2.702 0-4.906 2.133-5.02 4.807l-.005.218v2.657h10.05V8.617c0-2.775-2.25-5.025-5.025-5.025z"/>
    </g>
</svg>
