<?xml version="1.0" encoding="UTF-8"?>
<svg width="100px" height="100px" viewBox="0 0 100 100" version="1.1" xmlns="http://www.w3.org/2000/svg" xmlns:xlink="http://www.w3.org/1999/xlink">
    <title>Icons/Calendar/plain/4px colour mask</title>
    <defs>
        <path d="M64.5833333,8.41666667 C65.6879028,8.41666667 66.5833333,9.31209717 66.5833333,10.4166667 L66.5833333,10.4166667 L66.5833333,16.7496667 L75.4166667,16.75 C82.0440837,16.75 87.4166667,22.122583 87.4166667,28.75 L87.4166667,79.5833333 C87.4166667,86.2107503 82.0440837,91.5833333 75.4166667,91.5833333 L24.5833333,91.5833333 C17.9559163,91.5833333 12.5833333,86.2107503 12.5833333,79.5833333 L12.5833333,28.75 C12.5833333,22.122583 17.9559163,16.75 24.5833333,16.75 L33.4163333,16.7496667 L33.4166667,10.4166667 C33.4166667,9.36230487 34.2325445,8.49850154 35.2674043,8.4221524 L35.4166667,8.41666667 C36.5212362,8.41666667 37.4166667,9.31209717 37.4166667,10.4166667 L37.4166667,10.4166667 L37.4163333,16.7496667 L62.5833333,16.7496667 L62.5833333,10.4166667 C62.5833333,9.36230487 63.3992111,8.49850154 64.434071,8.4221524 Z M83.4163333,37.4166667 L16.5823333,37.4166667 L16.5833333,79.5833333 C16.5833333,84.0016113 20.1650553,87.5833333 24.5833333,87.5833333 L75.4166667,87.5833333 C79.8349447,87.5833333 83.4166667,84.0016113 83.4166667,79.5833333 L83.4163333,37.4166667 Z M35.4166667,70.9166667 C36.5212362,70.9166667 37.4166667,71.8120972 37.4166667,72.9166667 C37.4166667,74.0212362 36.5212362,74.9166667 35.4166667,74.9166667 L35.4166667,74.9166667 L22.9166667,74.9166667 C21.8120972,74.9166667 20.9166667,74.0212362 20.9166667,72.9166667 C20.9166667,71.8120972 21.8120972,70.9166667 22.9166667,70.9166667 L22.9166667,70.9166667 Z M56.25,70.9166667 C57.3545695,70.9166667 58.25,71.8120972 58.25,72.9166667 C58.25,74.0212362 57.3545695,74.9166667 56.25,74.9166667 L56.25,74.9166667 L43.75,74.9166667 C42.6454305,74.9166667 41.75,74.0212362 41.75,72.9166667 C41.75,71.8120972 42.6454305,70.9166667 43.75,70.9166667 L43.75,70.9166667 Z M77.0833333,70.9166667 C78.1879028,70.9166667 79.0833333,71.8120972 79.0833333,72.9166667 C79.0833333,74.0212362 78.1879028,74.9166667 77.0833333,74.9166667 L77.0833333,74.9166667 L64.5833333,74.9166667 C63.4787638,74.9166667 62.5833333,74.0212362 62.5833333,72.9166667 C62.5833333,71.8120972 63.4787638,70.9166667 64.5833333,70.9166667 L64.5833333,70.9166667 Z M35.4166667,58.4166667 C36.5212362,58.4166667 37.4166667,59.3120972 37.4166667,60.4166667 C37.4166667,61.5212362 36.5212362,62.4166667 35.4166667,62.4166667 L35.4166667,62.4166667 L22.9166667,62.4166667 C21.8120972,62.4166667 20.9166667,61.5212362 20.9166667,60.4166667 C20.9166667,59.3120972 21.8120972,58.4166667 22.9166667,58.4166667 L22.9166667,58.4166667 Z M56.25,58.4166667 C57.3545695,58.4166667 58.25,59.3120972 58.25,60.4166667 C58.25,61.5212362 57.3545695,62.4166667 56.25,62.4166667 L56.25,62.4166667 L43.75,62.4166667 C42.6454305,62.4166667 41.75,61.5212362 41.75,60.4166667 C41.75,59.3120972 42.6454305,58.4166667 43.75,58.4166667 L43.75,58.4166667 Z M77.0833333,58.4166667 C78.1879028,58.4166667 79.0833333,59.3120972 79.0833333,60.4166667 C79.0833333,61.5212362 78.1879028,62.4166667 77.0833333,62.4166667 L77.0833333,62.4166667 L64.5833333,62.4166667 C63.4787638,62.4166667 62.5833333,61.5212362 62.5833333,60.4166667 C62.5833333,59.3120972 63.4787638,58.4166667 64.5833333,58.4166667 L64.5833333,58.4166667 Z M35.4166667,45.9166667 C36.5212362,45.9166667 37.4166667,46.8120972 37.4166667,47.9166667 C37.4166667,49.0212362 36.5212362,49.9166667 35.4166667,49.9166667 L35.4166667,49.9166667 L22.9166667,49.9166667 C21.8120972,49.9166667 20.9166667,49.0212362 20.9166667,47.9166667 C20.9166667,46.8120972 21.8120972,45.9166667 22.9166667,45.9166667 L22.9166667,45.9166667 Z M56.25,45.9166667 C57.3545695,45.9166667 58.25,46.8120972 58.25,47.9166667 C58.25,49.0212362 57.3545695,49.9166667 56.25,49.9166667 L56.25,49.9166667 L43.75,49.9166667 C42.6454305,49.9166667 41.75,49.0212362 41.75,47.9166667 C41.75,46.8120972 42.6454305,45.9166667 43.75,45.9166667 L43.75,45.9166667 Z M77.0833333,45.9166667 C78.1879028,45.9166667 79.0833333,46.8120972 79.0833333,47.9166667 C79.0833333,49.0212362 78.1879028,49.9166667 77.0833333,49.9166667 L77.0833333,49.9166667 L64.5833333,49.9166667 C63.4787638,49.9166667 62.5833333,49.0212362 62.5833333,47.9166667 C62.5833333,46.8120972 63.4787638,45.9166667 64.5833333,45.9166667 L64.5833333,45.9166667 Z M33.4163333,20.7496667 L24.5833333,20.75 C20.1650553,20.75 16.5833333,24.331722 16.5833333,28.75 L16.5823333,33.4166667 L83.4163333,33.4166667 L83.4166667,28.75 C83.4166667,24.331722 79.8349447,20.75 75.4166667,20.75 L66.5833333,20.7496667 L66.5833333,22.9166667 C66.5833333,23.9710285 65.7674555,24.8348318 64.7325957,24.9111809 L64.5833333,24.9166667 C63.4787638,24.9166667 62.5833333,24.0212362 62.5833333,22.9166667 L62.5833333,22.9166667 L62.5833333,20.7496667 L37.4163333,20.7496667 L37.4166667,22.9166667 C37.4166667,23.9710285 36.6007889,24.8348318 35.565929,24.9111809 L35.4166667,24.9166667 C34.3120972,24.9166667 33.4166667,24.0212362 33.4166667,22.9166667 L33.4166667,22.9166667 L33.4163333,20.7496667 Z" id="path-1"></path>
    </defs>
    <g id="Icons/Calendar/plain/4px-colour-mask" stroke="none" stroke-width="1" fill="none" fill-rule="evenodd">
        <rect id="Rectangle" x="0" y="0" width="100" height="100"></rect>
        <mask id="mask-2" fill="white">
            <use xlink:href="#path-1"></use>
        </mask>
        <use id="Mask" fill="#333333" fill-rule="nonzero" xlink:href="#path-1"></use>
        <g id="Group" mask="url(#mask-2)" fill="#282828">
            <g id="COLOUR-MASK">
                <rect id="Rectangle" x="0" y="0" width="100" height="100"></rect>
            </g>
        </g>
    </g>
</svg>