<svg xmlns="http://www.w3.org/2000/svg" width="40" height="41" fill="none" viewBox="0 0 40 41">
    <path fill="#333" fill-rule="evenodd" d="M36.634 20.496c0 9.186-7.447 16.633-16.634 16.633-9.186 0-16.633-7.447-16.633-16.633 0-9.187 7.447-16.634 16.633-16.634 9.187 0 16.634 7.447 16.634 16.634zm-25.082-.287c.469-.468 1.228-.468 1.697 0l3.758 3.758 9.516-9.516c.468-.468 1.228-.468 1.697 0 .469.469.469 1.229 0 1.697L17.855 26.513c-.468.468-1.228.468-1.697 0l-4.606-4.606c-.469-.469-.469-1.229 0-1.698z" clip-rule="evenodd"/>
    <mask id="07ias8vjwa" width="34" height="35" x="3" y="3" maskUnits="userSpaceOnUse">
        <path fill="#fff" fill-rule="evenodd" d="M36.634 20.496c0 9.186-7.447 16.633-16.634 16.633-9.186 0-16.633-7.447-16.633-16.633 0-9.187 7.447-16.634 16.633-16.634 9.187 0 16.634 7.447 16.634 16.634zm-25.082-.287c.469-.468 1.228-.468 1.697 0l3.758 3.758 9.516-9.516c.468-.468 1.228-.468 1.697 0 .469.469.469 1.229 0 1.697L17.855 26.513c-.468.468-1.228.468-1.697 0l-4.606-4.606c-.469-.469-.469-1.229 0-1.698z" clip-rule="evenodd"/>
    </mask>
    <g mask="url(#07ias8vjwa)">
        <path fill="#428600" d="M0 0.5H40V40.5H0z"/>
    </g>
</svg>
