<svg xmlns="http://www.w3.org/2000/svg" width="40" height="41" fill="none" viewBox="0 0 40 41">
    <path fill="#333" fill-rule="evenodd" d="M36.634 20.5c0 9.187-7.447 16.634-16.634 16.634-9.186 0-16.633-7.447-16.633-16.634 0-9.186 7.447-16.633 16.633-16.633 9.187 0 16.634 7.447 16.634 16.633zM21.2 13.21c0 .893-.724 1.617-1.617 1.617s-1.617-.724-1.617-1.617.724-1.617 1.617-1.617 1.617.724 1.617 1.617zM18.8 26.8v-7.6h-.467c-.663 0-1.2-.537-1.2-1.2 0-.662.537-1.2 1.2-1.2H20c.663 0 1.2.538 1.2 1.2v8.8h.467c.663 0 1.2.538 1.2 1.2 0 .663-.537 1.2-1.2 1.2h-3.333c-.663 0-1.2-.537-1.2-1.2 0-.662.537-1.2 1.2-1.2h.466z" clip-rule="evenodd"/>
    <mask id="nauuhkizpa" width="34" height="35" x="3" y="3" maskUnits="userSpaceOnUse">
        <path fill="#fff" fill-rule="evenodd" d="M36.634 20.5c0 9.187-7.447 16.634-16.634 16.634-9.186 0-16.633-7.447-16.633-16.634 0-9.186 7.447-16.633 16.633-16.633 9.187 0 16.634 7.447 16.634 16.633zM21.2 13.21c0 .893-.724 1.617-1.617 1.617s-1.617-.724-1.617-1.617.724-1.617 1.617-1.617 1.617.724 1.617 1.617zM18.8 26.8v-7.6h-.467c-.663 0-1.2-.537-1.2-1.2 0-.662.537-1.2 1.2-1.2H20c.663 0 1.2.538 1.2 1.2v8.8h.467c.663 0 1.2.538 1.2 1.2 0 .663-.537 1.2-1.2 1.2h-3.333c-.663 0-1.2-.537-1.2-1.2 0-.662.537-1.2 1.2-1.2h.466z" clip-rule="evenodd"/>
    </mask>
    <g mask="url(#nauuhkizpa)">
        <path fill="#282828" d="M0 0.5H40V40.5H0z"/>
    </g>
</svg>
