<?xml version="1.0" encoding="UTF-8"?>
<svg width="100px" height="100px" viewBox="0 0 100 100" version="1.1" xmlns="http://www.w3.org/2000/svg" xmlns:xlink="http://www.w3.org/1999/xlink">
    <title>Drupal/Checkout/login</title>
    <defs>
        <path d="M50,12.515625 C61.4599086,12.515625 70.75,21.8057164 70.75,33.265625 C70.75,41.2282482 66.2649219,48.1433253 59.6832465,51.6223753 C65.6102764,53.6901051 70.9526129,57.7186252 75.0661717,63.4902538 C75.7072571,64.3897443 75.4977784,65.6386279 74.5982879,66.2797133 C73.6987974,66.9207988 72.4499138,66.7113201 71.8088283,65.8118296 C66.3292798,58.1236159 58.5011825,54.015625 50.1875,54.015625 C35.8042095,54.015625 23.6977081,65.680686 20.7284771,85.7561651 C20.5668656,86.8488478 19.5500593,87.6036302 18.4573766,87.4420187 C17.3646939,87.2804073 16.6099115,86.2636009 16.7715229,85.1709182 C19.3475273,67.7541119 28.5062622,55.8441491 40.4045631,51.6667332 C33.7750038,48.2047254 29.25,41.2636108 29.25,33.265625 C29.25,21.8057164 38.5400914,12.515625 50,12.515625 Z M88.1585028,65.6120285 C88.9394407,64.8308692 90.2057707,64.8306898 90.9869299,65.6116278 C91.7680891,66.3925657 91.7682685,67.6588957 90.9873306,68.4400549 L90.9873306,68.4400549 L72.6071222,86.8254715 C71.8261061,87.606709 70.5596216,87.6067987 69.7784948,86.8256719 L69.7784948,86.8256719 L61.6066198,78.6537969 C60.8255712,77.8727483 60.8255712,76.6064184 61.6066198,75.8253698 C62.3876684,75.0443212 63.6539983,75.0443212 64.4350469,75.8253698 L64.4350469,75.8253698 L71.192508,82.5828309 Z M50,16.515625 C40.7492304,16.515625 33.25,24.0148554 33.25,33.265625 C33.25,42.5163946 40.7492304,50.015625 50,50.015625 C59.2507696,50.015625 66.75,42.5163946 66.75,33.265625 C66.75,24.0148554 59.2507696,16.515625 50,16.515625 Z" id="path-1"></path>
    </defs>
    <g id="Drupal/Checkout/login" stroke="none" stroke-width="1" fill="none" fill-rule="evenodd">
        <rect id="Rectangle" x="0" y="0" width="100" height="100"></rect>
        <g id="Group" transform="translate(-0.000000, 0.000000)">
            <mask id="mask-2" fill="white">
                <use xlink:href="#path-1"></use>
            </mask>
            <use id="Mask" fill="#333333" fill-rule="nonzero" xlink:href="#path-1"></use>
            <g mask="url(#mask-2)" fill="#282828" id="COLOUR-MASK">
                <g>
                    <rect id="Rectangle" x="0" y="0" width="100" height="100"></rect>
                </g>
            </g>
            <rect id="Rectangle" mask="url(#mask-2)" x="0" y="0" width="100" height="100"></rect>
            <rect id="Rectangle" mask="url(#mask-2)" x="0" y="0" width="100" height="100"></rect>
        </g>
    </g>
</svg>