<svg xmlns="http://www.w3.org/2000/svg" width="31" height="30" viewBox="0 0 31 30">
    <g fill="none" fill-rule="evenodd">
        <path d="M0 0H30V30H0z" transform="translate(.501)"/>
        <path fill="#4a4d4e" d="M16.25 2.525c1.653 0 3.004 1.294 3.095 2.924l.005.176v.655h5.025c.331 0 .6.269.6.6 0 .298-.218.546-.503.592l-.097.008h-1.251L23.125 25c0 1.036-.84 1.875-1.875 1.875H8.75c-1.036 0-1.875-.84-1.875-1.875L6.874 7.48H5.625c-.331 0-.6-.268-.6-.6 0-.298.218-.545.503-.592l.097-.008h5.025v-.655c0-1.653 1.294-3.004 2.924-3.095l.176-.005h2.5zm2.505 8.225c-.276 0-.5.224-.5.5V22.5l.008.09c.043.233.247.41.492.41.276 0 .5-.224.5-.5V11.25l-.008-.09c-.042-.233-.246-.41-.492-.41zm-3.75 0c-.276 0-.5.224-.5.5V22.5l.008.09c.043.233.247.41.492.41.276 0 .5-.224.5-.5V11.25l-.008-.09c-.042-.233-.246-.41-.492-.41zm-3.75 0c-.276 0-.5.224-.5.5V22.5l.008.09c.043.233.247.41.492.41.276 0 .5-.224.5-.5V11.25l-.008-.09c-.042-.233-.246-.41-.492-.41zm4.995-7.025h-2.5c-1 0-1.819.772-1.894 1.752l-.006.148v.655h6.3v-.655c0-1-.772-1.819-1.752-1.894l-.148-.006z" transform="translate(.501)"/>
    </g>
</svg>
