<?xml version="1.0" encoding="UTF-8"?>
<svg width="100px" height="100px" viewBox="0 0 100 100" version="1.1" xmlns="http://www.w3.org/2000/svg" xmlns:xlink="http://www.w3.org/1999/xlink">
    <title>Drupal/Cart/info_white</title>
    <defs>
        <path d="M50,8.41666667 C72.9658408,8.41666667 91.5833333,27.0341592 91.5833333,50 C91.5833333,72.9658408 72.9658408,91.5833333 50,91.5833333 C27.0341592,91.5833333 8.41666667,72.9658408 8.41666667,50 C8.41666667,27.0341592 27.0341592,8.41666667 50,8.41666667 Z M50,40.75 L45.8333333,40.75 C44.1764791,40.75 42.8333333,42.0931458 42.8333333,43.75 C42.8333333,45.4068542 44.1764791,46.75 45.8333333,46.75 L47,46.75 L46.9996667,65.7496667 L45.8333333,65.75 C44.1764791,65.75 42.8333333,67.0931458 42.8333333,68.75 C42.8333333,70.4068542 44.1764791,71.75 45.8333333,71.75 L54.1666667,71.75 C55.8235209,71.75 57.1666667,70.4068542 57.1666667,68.75 C57.1666667,67.0931458 55.8235209,65.75 54.1666667,65.75 L52.9996667,65.7496667 L53,43.75 C53,42.0931458 51.6568542,40.75 50,40.75 Z M48.9583333,27.7291667 C46.7261825,27.7291667 44.9166667,29.5386825 44.9166667,31.7708333 C44.9166667,34.0029842 46.7261825,35.8125 48.9583333,35.8125 C51.1904842,35.8125 53,34.0029842 53,31.7708333 C53,29.5386825 51.1904842,27.7291667 48.9583333,27.7291667 Z" id="path-1"></path>
    </defs>
    <g id="Drupal/Cart/info_white" stroke="none" stroke-width="1" fill="none" fill-rule="evenodd">
        <rect id="Rectangle" x="0" y="0" width="100" height="100"></rect>
        <g id="Icons/Location-&amp;-travel/tracker/4px-colour-mask-Copy-6">
            <mask id="mask-2" fill="white">
                <use xlink:href="#path-1"></use>
            </mask>
            <use id="Combined-Shape" fill="#333333" fill-rule="nonzero" xlink:href="#path-1"></use>
            <g id="Group" mask="url(#mask-2)" fill="#FFFFFF">
                <g id="COLOUR-MASK">
                    <rect id="Rectangle" x="0" y="0" width="100" height="100"></rect>
                </g>
            </g>
            <rect id="Rectangle" mask="url(#mask-2)" x="0" y="0" width="100" height="100"></rect>
        </g>
    </g>
</svg>