<svg width="24" height="25" viewBox="0 0 24 25" fill="none" xmlns="http://www.w3.org/2000/svg">
<path fill-rule="evenodd" clip-rule="evenodd" d="M21.9795 12.0366C21.9795 17.5484 17.5113 22.0166 11.9995 22.0166C6.48773 22.0166 2.01953 17.5484 2.01953 12.0366C2.01953 6.52484 6.48773 2.05664 11.9995 2.05664C17.5113 2.05664 21.9795 6.52484 21.9795 12.0366ZM12.7195 7.66164C12.7195 8.19736 12.2852 8.63164 11.7495 8.63164C11.2138 8.63164 10.7795 8.19736 10.7795 7.66164C10.7795 7.12592 11.2138 6.69164 11.7495 6.69164C12.2852 6.69164 12.7195 7.12592 12.7195 7.66164ZM11.2795 15.8166V11.2566H10.9995C10.6019 11.2566 10.2795 10.9343 10.2795 10.5366C10.2795 10.139 10.6019 9.81664 10.9995 9.81664H11.9995C12.3972 9.81664 12.7195 10.139 12.7195 10.5366V15.8166H12.9995C13.3972 15.8166 13.7195 16.139 13.7195 16.5366C13.7195 16.9343 13.3972 17.2566 12.9995 17.2566H10.9995C10.6019 17.2566 10.2795 16.9343 10.2795 16.5366C10.2795 16.139 10.6019 15.8166 10.9995 15.8166H11.2795Z" fill="#333333"/>
<mask id="mask0" mask-type="alpha" maskUnits="userSpaceOnUse" x="2" y="2" width="20" height="21">
<path fill-rule="evenodd" clip-rule="evenodd" d="M21.9795 12.0366C21.9795 17.5484 17.5113 22.0166 11.9995 22.0166C6.48773 22.0166 2.01953 17.5484 2.01953 12.0366C2.01953 6.52484 6.48773 2.05664 11.9995 2.05664C17.5113 2.05664 21.9795 6.52484 21.9795 12.0366ZM12.7195 7.66164C12.7195 8.19736 12.2852 8.63164 11.7495 8.63164C11.2138 8.63164 10.7795 8.19736 10.7795 7.66164C10.7795 7.12592 11.2138 6.69164 11.7495 6.69164C12.2852 6.69164 12.7195 7.12592 12.7195 7.66164ZM11.2795 15.8166V11.2566H10.9995C10.6019 11.2566 10.2795 10.9343 10.2795 10.5366C10.2795 10.139 10.6019 9.81664 10.9995 9.81664H11.9995C12.3972 9.81664 12.7195 10.139 12.7195 10.5366V15.8166H12.9995C13.3972 15.8166 13.7195 16.139 13.7195 16.5366C13.7195 16.9343 13.3972 17.2566 12.9995 17.2566H10.9995C10.6019 17.2566 10.2795 16.9343 10.2795 16.5366C10.2795 16.139 10.6019 15.8166 10.9995 15.8166H11.2795Z" fill="white"/>
</mask>
<g mask="url(#mask0)">
<rect y="0.0371094" width="24" height="24" fill="#005765"/>
</g>
</svg>
