<svg width="24" height="25" viewBox="0 0 24 25" fill="none" xmlns="http://www.w3.org/2000/svg">
<path d="M5.40039 22.0352H18.1966C19.6379 22.0352 20.8216 20.9177 20.1804 19.3539C21.6491 17.6602 20.8741 16.3789 20.8741 16.3789C20.8741 16.3789 22.2629 14.8714 20.9141 13.4039C21.2629 12.4227 21.4641 11.5552 20.1841 10.6877C18.9041 9.82016 15.8616 10.6602 14.7491 10.8014C13.2641 10.3264 17.6966 3.16016 12.9791 3.03516C12.9591 3.08641 12.4291 2.91016 12.5791 4.77016C12.5791 6.71141 8.91414 11.0352 7.71539 12.7177" stroke="#999999" stroke-width="1.5" stroke-linejoin="round"/>
<path fill-rule="evenodd" clip-rule="evenodd" d="M8.5 22.0352H5C3.61929 22.0352 2.5 20.9159 2.5 19.5352V14.5352C2.5 13.1544 3.61929 12.0352 5 12.0352H6C6.66304 12.0352 7.29893 12.2985 7.76777 12.7674C8.23661 13.2362 8.5 13.8721 8.5 14.5352V22.0352Z" stroke="#999999" stroke-width="1.5" stroke-linecap="round" stroke-linejoin="round"/>
</svg>
