<svg width="24" height="25" viewBox="0 0 24 25" fill="none" xmlns="http://www.w3.org/2000/svg">
<path d="M5.40137 22.0352H18.1976C19.6389 22.0352 20.8226 20.9177 20.1814 19.3539C21.6501 17.6602 20.8751 16.3789 20.8751 16.3789C20.8751 16.3789 22.2639 14.8714 20.9151 13.4039C21.2639 12.4227 21.4651 11.5552 20.1851 10.6877C18.9051 9.82016 15.8626 10.6602 14.7501 10.8014C13.2651 10.3264 17.6976 3.16016 12.9801 3.03516C12.9601 3.08641 12.4301 2.91016 12.5801 4.77016C12.5801 6.71141 8.91512 11.0352 7.71637 12.7177" stroke="#282828" stroke-width="1.5" stroke-linejoin="round"/>
<path fill-rule="evenodd" clip-rule="evenodd" d="M8.5 22.0352H5C3.61929 22.0352 2.5 20.9159 2.5 19.5352V14.5352C2.5 13.1544 3.61929 12.0352 5 12.0352H6C6.66304 12.0352 7.29893 12.2985 7.76777 12.7674C8.23661 13.2362 8.5 13.8721 8.5 14.5352V22.0352Z" stroke="#282828" stroke-width="1.5" stroke-linecap="round" stroke-linejoin="round"/>
</svg>
