<?xml version="1.0" encoding="UTF-8"?>
<svg width="100px" height="100px" viewBox="0 0 100 100" version="1.1" xmlns="http://www.w3.org/2000/svg" xmlns:xlink="http://www.w3.org/1999/xlink">
    <title>Icons/Location &amp; travel/location/4px colour mask</title>
    <defs>
        <path d="M50,8.41666667 C66.4812472,8.41666667 79.0833333,22.0143721 79.0833333,38.9375 C79.0833333,51.7639948 71.0362809,67.2646067 59.5022814,81.5085508 C58.7987931,82.3774513 57.5401793,83.8706405 55.8733795,85.8217264 L55.8733795,85.8217264 L55.787239,85.9225409 C54.8517838,87.0171561 53.8499459,88.1833182 52.8481681,89.3453237 C52.4975923,89.7519718 52.1720422,90.1290808 51.879842,90.4671651 C51.7044138,90.6701407 51.5791658,90.8149104 51.5119385,90.8925475 C50.7297536,91.7958493 49.335215,91.8162302 48.5269667,90.9361721 C48.4687191,90.8727495 48.3608509,90.7539088 48.2066606,90.5819165 C47.9528431,90.2987944 47.6593224,89.967076 47.3293955,89.5890243 C46.3901944,88.5128263 45.3451039,87.2786223 44.2204828,85.9044579 C41.0092106,81.9806332 37.7983437,77.7155523 34.7983699,73.2516489 C30.2368578,66.4642066 26.5780302,59.8307362 24.1504818,53.5567901 C22.0441656,48.1130614 20.9166667,43.0627175 20.9166667,38.4739583 C20.9166667,21.6392391 33.4492035,8.41666667 50,8.41666667 Z M50,12.4166667 C35.7077076,12.4166667 24.9166667,23.8018572 24.9166667,38.4739583 C24.9166667,42.513986 25.9395934,47.0959255 27.8809696,52.1133701 C30.1879188,58.0756303 33.7095285,64.4603241 38.1182967,71.0204865 C41.0428021,75.3720942 44.1795915,79.538776 47.3159755,83.3710955 C48.2704936,84.5374126 49.1650852,85.5989612 49.9822705,86.5435968 C50.9258036,85.4487272 51.8660154,84.3540047 52.7463911,83.3238404 L52.7463911,83.3238404 L52.8320752,83.2235602 C54.4760892,81.2991464 55.7195274,79.8239605 56.3935977,78.9913926 C67.3948683,65.4053575 75.0833333,50.5954898 75.0833333,38.9375 C75.0833333,24.1584273 64.2013004,12.4166667 50,12.4166667 Z M50,20.9166667 C59.1587221,20.9166667 66.5833333,28.3412779 66.5833333,37.5 C66.5833333,46.6587221 59.1587221,54.0833333 50,54.0833333 C40.8412779,54.0833333 33.4166667,46.6587221 33.4166667,37.5 C33.4166667,28.3412779 40.8412779,20.9166667 50,20.9166667 Z M50,24.9166667 C43.0504169,24.9166667 37.4166667,30.5504169 37.4166667,37.5 C37.4166667,44.4495831 43.0504169,50.0833333 50,50.0833333 C56.9495831,50.0833333 62.5833333,44.4495831 62.5833333,37.5 C62.5833333,30.5504169 56.9495831,24.9166667 50,24.9166667 Z" id="path-1"></path>
    </defs>
    <g id="Icons/Location-&amp;-travel/location/4px-colour-mask" stroke="none" stroke-width="1" fill="none" fill-rule="evenodd">
        <mask id="mask-2" fill="white">
            <use xlink:href="#path-1"></use>
        </mask>
        <use id="Mask" fill="#ffffff" fill-rule="nonzero" xlink:href="#path-1"></use>
        <g id="Group" mask="url(#mask-2)" fill="#ffffff">
            <g id="COLOUR-MASK">
                <rect id="Rectangle" x="0" y="0" width="100" height="100"></rect>
            </g>
        </g>
        <rect id="Rectangle" mask="url(#mask-2)" x="0" y="0" width="100" height="100"></rect>
    </g>
</svg>