<svg width="100" height="100" viewBox="0 0 100 100" fill="none" xmlns="http://www.w3.org/2000/svg">
<path fill-rule="evenodd" clip-rule="evenodd" d="M80.2016 54.6191C82.1908 50.022 83.25 45.6909 83.25 41.6667C83.25 23.3032 68.3635 8.41666 50 8.41666C31.6365 8.41666 16.75 23.3032 16.75 41.6667C16.75 45.6909 17.8092 50.022 19.7984 54.6191C22.5751 61.0363 27.0807 67.8084 32.8386 74.7179C36.3036 78.8759 40.0112 82.8307 43.719 86.456C45.0172 87.7254 46.2236 88.8637 47.3077 89.8549C47.6885 90.2031 48.0273 90.5085 48.3203 90.7689C48.4983 90.9271 48.6229 91.0364 48.6901 91.0947C49.4419 91.7462 50.5581 91.7462 51.3099 91.0947C51.3771 91.0364 51.5017 90.9271 51.6797 90.7689C51.9727 90.5085 52.3115 90.2031 52.6923 89.8549C53.7764 88.8637 54.9828 87.7254 56.281 86.456C59.9888 82.8307 63.6964 78.8759 67.1614 74.7179C72.9193 67.8084 77.4249 61.0363 80.2016 54.6191ZM66.5833 41.6667C66.5833 50.8254 59.1587 58.25 50 58.25C40.8413 58.25 33.4167 50.8254 33.4167 41.6667C33.4167 32.5079 40.8413 25.0833 50 25.0833C59.1587 25.0833 66.5833 32.5079 66.5833 41.6667Z" fill="#333333"/>
<mask id="mask0" mask-type="alpha" maskUnits="userSpaceOnUse" x="16" y="8" width="68" height="84">
<path fill-rule="evenodd" clip-rule="evenodd" d="M80.2016 54.6191C82.1908 50.022 83.25 45.6909 83.25 41.6667C83.25 23.3032 68.3635 8.41666 50 8.41666C31.6365 8.41666 16.75 23.3032 16.75 41.6667C16.75 45.6909 17.8092 50.022 19.7984 54.6191C22.5751 61.0363 27.0807 67.8084 32.8386 74.7179C36.3036 78.8759 40.0112 82.8307 43.719 86.456C45.0172 87.7254 46.2236 88.8637 47.3077 89.8549C47.6885 90.2031 48.0273 90.5085 48.3203 90.7689C48.4983 90.9271 48.6229 91.0364 48.6901 91.0947C49.4419 91.7462 50.5581 91.7462 51.3099 91.0947C51.3771 91.0364 51.5017 90.9271 51.6797 90.7689C51.9727 90.5085 52.3115 90.2031 52.6923 89.8549C53.7764 88.8637 54.9828 87.7254 56.281 86.456C59.9888 82.8307 63.6964 78.8759 67.1614 74.7179C72.9193 67.8084 77.4249 61.0363 80.2016 54.6191ZM66.5833 41.6667C66.5833 50.8254 59.1587 58.25 50 58.25C40.8413 58.25 33.4167 50.8254 33.4167 41.6667C33.4167 32.5079 40.8413 25.0833 50 25.0833C59.1587 25.0833 66.5833 32.5079 66.5833 41.6667Z" fill="white"/>
</mask>
<g mask="url(#mask0)">
<rect width="100" height="100" fill="white"/>
</g>
</svg>
