<svg width="60" height="60" viewBox="0 0 60 60" fill="none" xmlns="http://www.w3.org/2000/svg">
<path fill-rule="evenodd" clip-rule="evenodd" d="M17.25 22.8696C13.1793 23.4519 10.05 26.9528 10.05 31.1846V46.7846C10.05 51.4238 13.8109 55.1846 18.45 55.1846H41.55C46.1892 55.1846 49.95 51.4238 49.95 46.7846V31.1846C49.95 27.1632 47.1243 23.8019 43.35 22.9779V17.2346C43.35 10.0273 37.5074 4.18457 30.3 4.18457C23.0927 4.18457 17.25 10.0273 17.25 17.2346V22.8696ZM20.85 22.7846H39.75V17.2346C39.75 12.0155 35.5191 7.78457 30.3 7.78457C25.081 7.78457 20.85 12.0155 20.85 17.2346V22.7846ZM28.65 31.7846V46.7846C28.65 47.4473 29.1873 47.9846 29.85 47.9846C30.5128 47.9846 31.05 47.4473 31.05 46.7846V31.7846C31.05 31.1218 30.5128 30.5846 29.85 30.5846C29.1873 30.5846 28.65 31.1218 28.65 31.7846Z" fill="#333333"/>
<mask id="mask0" mask-type="alpha" maskUnits="userSpaceOnUse" x="10" y="4" width="40" height="52">
<path fill-rule="evenodd" clip-rule="evenodd" d="M17.25 22.8696C13.1793 23.4519 10.05 26.9528 10.05 31.1846V46.7846C10.05 51.4238 13.8109 55.1846 18.45 55.1846H41.55C46.1892 55.1846 49.95 51.4238 49.95 46.7846V31.1846C49.95 27.1632 47.1243 23.8019 43.35 22.9779V17.2346C43.35 10.0273 37.5074 4.18457 30.3 4.18457C23.0927 4.18457 17.25 10.0273 17.25 17.2346V22.8696ZM20.85 22.7846H39.75V17.2346C39.75 12.0155 35.5191 7.78457 30.3 7.78457C25.081 7.78457 20.85 12.0155 20.85 17.2346V22.7846ZM28.65 31.7846V46.7846C28.65 47.4473 29.1873 47.9846 29.85 47.9846C30.5128 47.9846 31.05 47.4473 31.05 46.7846V31.7846C31.05 31.1218 30.5128 30.5846 29.85 30.5846C29.1873 30.5846 28.65 31.1218 28.65 31.7846Z" fill="white"/>
</mask>
<g mask="url(#mask0)">
<rect width="60" height="60" fill="#282828"/>
</g>
</svg>
