<svg xmlns="http://www.w3.org/2000/svg" xmlns:xlink="http://www.w3.org/1999/xlink" width="30" height="30" viewBox="0 0 30 30">
    <defs>
        <path id="prefix__a" d="M15 21.275c1.367 0 2.475 1.108 2.475 2.475S16.367 26.225 15 26.225s-2.475-1.108-2.475-2.475 1.108-2.475 2.475-2.475zm0-8.75c1.367 0 2.475 1.108 2.475 2.475S16.367 17.475 15 17.475 12.525 16.367 12.525 15s1.108-2.475 2.475-2.475zm0-8.75c1.367 0 2.475 1.108 2.475 2.475S16.367 8.725 15 8.725s-2.475-1.108-2.475-2.475S13.633 3.775 15 3.775z"/>
    </defs>
    <g fill="none" fill-rule="evenodd">
        <path d="M0 0H30V30H0z"/>
        <use fill="#000" fill-rule="nonzero" xlink:href="#prefix__a"/>
    </g>
</svg>
