<svg xmlns="http://www.w3.org/2000/svg" width="30" height="30" viewBox="0 0 30 30">
    <g fill="none" fill-rule="evenodd">
        <path d="M0 0H30V30H0z"/>
        <path fill="#000" fill-rule="nonzero" d="M6.157 2.792C4.423 3.968 2.35 5.907 2.375 7.047c.011.505.04.857.148 1.4.156.782.44 1.644.884 2.604 1.162 2.512 3.292 5.423 6.63 8.78 3.338 3.355 6.246 5.51 8.763 6.703.962.456 1.828.751 2.613.919.546.117.906.152 1.41.171 1.144.044 3.12-1.956 4.35-3.663.674-.933.578-2.137-.192-2.686l-.356-.243c-1.113-.753-4.296-2.872-4.717-3.136-.597-.364-1.398-.28-2.147.104l-.11.069-1.57 1.185-.352-.254c-.599-.433-1.197-.878-1.754-1.31l-.477-.375c-.591-.471-1.07-.882-1.405-1.21l-.119-.118c-1.175-1.183-2.07-2.192-2.724-3.029l-.23-.3-.215-.294 1.141-1.954.094-.17c.404-.749.502-1.55.131-2.141L9.477 3.974c-.245-.37-.443-.669-.556-.835l-.083-.121c-.548-.748-1.739-.865-2.681-.226zm1.47 1.112l.871 1.31c.893 1.355 2.167 3.305 2.403 3.681.026.042-.007.31-.181.633l-.288.508-1.155 1.965c-.138.233-.14.521-.006.756l.099.162c.12.187.304.45.563.788l.135.175c.63.805 1.458 1.748 2.514 2.829l.323.328c.385.394.948.883 1.657 1.448l.494.389c.38.295.78.596 1.184.894l1.015.737.411.291.104.06c.25.121.55.095.777-.077l1.946-1.47-.047.023c.332-.17.613-.2.674-.162l1.274.838c1.407.933 3.471 2.312 3.716 2.487.043.03.063.287-.153.586l-.211.281c-.91 1.167-2.525 2.774-2.866 2.762-1.014-.039-1.935-.235-3.438-.948-2.35-1.113-5.119-3.165-8.342-6.405-3.222-3.24-5.249-6.011-6.332-8.351-.691-1.495-.871-2.4-.893-3.407-.008-.354 1.947-2.183 3.124-2.982.31-.21.59-.183.629-.129z"/>
    </g>
</svg>
