<?xml version="1.0" encoding="UTF-8"?>
<svg width="100px" height="101px" viewBox="0 0 100 101" version="1.1" xmlns="http://www.w3.org/2000/svg" xmlns:xlink="http://www.w3.org/1999/xlink">
    <title>Drupal/Deal details/phone</title>
    <defs>
        <path d="M65.8054535,60.6276927 C65.8972404,60.5584062 65.9948322,60.4971655 66.0971441,60.4446514 C68.4569063,59.233446 70.9519422,58.9757522 72.7603009,60.0763305 C74.3805296,61.0921479 88.3879671,70.4280671 89.6454694,71.3246718 C91.9703804,72.9823438 92.2642527,76.6792088 90.1740275,79.5764197 C86.1982491,85.0871505 79.6494468,91.7163167 76.0962712,91.5819038 C74.441193,91.519294 73.2681734,91.4027098 71.4797405,91.0210647 C68.901182,90.4708096 66.0533649,89.4988334 62.8792951,87.9948765 C54.5452308,84.04598 44.9004118,76.8969142 33.8112242,65.7490165 C22.7217121,54.6007924 15.6575106,44.942621 11.8104865,36.62826 C10.3451091,33.4612207 9.41258679,30.6248401 8.90202754,28.060353 C8.54841003,26.2841683 8.45285309,25.1373321 8.41676083,23.4805865 C8.34051858,19.9423782 15.2100203,13.5160179 20.8040805,9.72004845 C23.7335068,7.73222344 27.399577,8.09373532 29.0683945,10.3714929 C29.9158763,11.554137 38.9222467,25.3075811 40.1477536,27.2607332 C41.2690157,29.0496168 40.9621984,31.5425066 39.6927228,33.8970648 C39.3229118,34.5829713 38.5138986,35.9862855 37.3796426,37.9209519 L37.3261775,38.0121279 C36.7716522,38.9575966 36.1778292,39.9645316 35.584049,40.9677037 C35.530627,41.0579584 35.4781853,41.1465264 35.4268077,41.2332688 C35.867545,41.8726647 36.4235356,42.6287888 37.1056174,43.5012995 C39.3001697,46.3085441 42.2956811,49.685093 46.2226147,53.6391797 C47.3608249,54.8048166 49.1173409,56.3281777 51.3468202,58.1073257 C51.8581368,58.5153617 52.3910955,58.9342547 52.9434625,59.3625935 C54.8051965,60.8062948 56.8036017,62.2935406 58.8024782,63.7395016 C59.3248944,64.1174106 59.8193604,64.472201 60.278858,64.7995197 L65.8054535,60.6276927 Z M61.5226715,68.8723073 C60.8317656,69.3938471 59.8837563,69.4117009 59.1737031,68.9165452 C59.0353683,68.8200775 58.7793625,68.6402187 58.422434,68.3873318 C57.8293842,67.9671508 57.1690135,67.4947378 56.458036,66.980426 C54.4257357,65.5102866 52.3929641,63.9974648 50.4922665,62.5235488 C49.9256472,62.0841579 49.3781428,61.6538323 48.8518346,61.2338328 C46.5040127,59.3602462 44.6388061,57.7426218 43.3726072,56.4458093 C39.3488502,52.3943341 36.2486584,48.8997892 33.9542784,45.9648463 C32.5499771,44.1684811 31.7167851,42.937653 31.3373945,42.2752131 C30.9789504,41.6493472 30.9852484,40.878967 31.3538771,40.2590451 C31.3929737,40.1932965 31.3929737,40.1932965 31.5702478,39.8947161 C31.7426876,39.6041503 31.9348671,39.2799289 32.1418418,38.930252 C32.7331045,37.9313331 33.3243246,36.9288117 33.8758395,35.9884758 L33.9289606,35.8978865 C35.0358788,34.0098493 35.8338876,32.6256233 36.1718605,31.9987685 C36.8296817,30.7786757 36.9613638,29.7087588 36.7589972,29.3858988 C35.5741689,27.4975786 26.6056613,13.8019541 25.8294258,12.718541 C25.527546,12.3065416 24.2952427,12.1850239 23.0500862,13.0299515 C21.5933285,14.0184657 18.7917503,16.2736211 16.6377583,18.2886623 C14.0397658,20.7190621 12.4036928,22.8310393 12.415689,23.3939402 C12.4903439,26.814707 13.1044519,29.8993088 15.4407231,34.9485629 C19.0767277,42.806859 25.8680201,52.0919093 36.6471091,62.9280668 C47.4289266,73.7669672 56.7062095,80.6436027 64.5920591,84.3801235 C69.6677533,86.7851195 72.8046636,87.4545248 76.2474788,87.5852351 C76.843991,87.6073283 79.0019903,86.0278799 81.5094802,83.4896192 C83.5741256,81.3996375 85.8914537,78.6757773 86.9301392,77.2360803 C87.8021093,76.0274635 87.7090366,74.8566239 87.3232806,74.5815782 C86.1323518,73.7324406 72.1905823,64.440289 70.6582785,63.4793861 C70.2939192,63.2576769 69.2561807,63.3547401 68.0689747,63.9307398 L61.5226715,68.8723073 Z" id="path-1"></path>
    </defs>
    <g id="Drupal/Deal-details/phone" stroke="none" stroke-width="1" fill="none" fill-rule="evenodd" transform="translate(0.000000, 1.000000)">
        <rect id="Rectangle" x="0" y="0" width="100" height="100"></rect>
        <g id="Group">
            <rect id="Rectangle" x="0" y="0" width="100" height="100"></rect>
            <mask id="mask-2" fill="white">
                <use xlink:href="#path-1"></use>
            </mask>
            <use id="Mask" fill="#333333" fill-rule="nonzero" xlink:href="#path-1"></use>
            <g mask="url(#mask-2)" fill="#282828" id="COLOUR-MASK">
                <g>
                    <rect id="Rectangle" x="0" y="0" width="100" height="100"></rect>
                </g>
            </g>
        </g>
    </g>
</svg>