<svg xmlns="http://www.w3.org/2000/svg" xmlns:xlink="http://www.w3.org/1999/xlink" width="84" height="84" viewBox="0 0 84 84">
    <defs>
        <path id="prefix__a" d="M.327 3.68v.37c0 1.028.833 1.86 1.86 1.86 1.027 0 1.859-.83 1.86-1.856v-.431c.01-1.269.742-2.408 1.883-2.937 1.116-.49 2.193-.188 3.544.922l35.914 26.72 1.013.763.108.076c.8.518 1.286 1.405 1.29 2.359.004.953-.473 1.844-1.27 2.369l-.09.064-1.06.794L9.413 61.492l-.65.467c-.574.436-1.232.644-1.902.62-1.58-.09-2.838-1.44-2.815-3.06V4.054v-.381-.407c0-1.027-.832-1.86-1.86-1.86-.892 0-1.638.63-1.818 1.468-.026.236-.04.474-.042.714v.091z"/>
        <path id="prefix__c" d="M42 .417C64.966.417 83.583 19.034 83.583 42c0 22.966-18.617 41.583-41.583 41.583C19.034 83.583.417 64.966.417 42 .417 19.034 19.034.417 42 .417zm-13.124 15.59c-1.89.843-3.167 2.591-3.415 4.588-.03.135-.045.276-.045.42v41.787c-.03 2.995 2.314 5.502 5.324 5.674 1.34.045 2.605-.364 3.628-1.153l.457-.322 26.87-19.899.75-.557c1.52-1.015 2.435-2.722 2.435-4.553 0-1.828-.913-3.534-2.43-4.549l-.71-.535-26.775-19.802c-1.806-1.48-3.873-2.053-6.089-1.1zm3.634 4.255l26.837 19.851.746.562.115.08c.419.273.672.738.672 1.237 0 .5-.253.965-.672 1.237l-.104.072-.792.589-26.836 19.873-.488.346c-.351.269-.706.383-1.068.371-.83-.048-1.513-.779-1.504-1.658v-41.51c.001-.711.418-1.353 1.065-1.642.601-.258 1.189-.095 2.029.592z"/>
    </defs>
    <g fill="none" fill-rule="evenodd">
        <g transform="translate(20 10)">
            <mask id="prefix__b" fill="#fff">
                <use xlink:href="#prefix__a"/>
            </mask>
            <use fill="#333" fill-rule="nonzero" xlink:href="#prefix__a"/>
            <g fill="#FFF" mask="url(#prefix__b)">
                <path d="M0 0H93V93H0z" transform="translate(-23 -15)"/>
            </g>
            <path d="M-23 -15H70V78H-23z" mask="url(#prefix__b)"/>
        </g>
        <mask id="prefix__d" fill="#fff">
            <use xlink:href="#prefix__c"/>
        </mask>
        <use fill="#333" fill-rule="nonzero" xlink:href="#prefix__c"/>
        <g fill="#E60000" mask="url(#prefix__d)">
            <path d="M0 0H100V100H0z" transform="translate(-8 -8)"/>
        </g>
        <path d="M-8 -8H92V92H-8z" mask="url(#prefix__d)"/>
    </g>
</svg>
