<?xml version="1.0" encoding="UTF-8"?>
<svg width="100px" height="100px" viewBox="0 0 100 100" version="1.1" xmlns="http://www.w3.org/2000/svg" xmlns:xlink="http://www.w3.org/1999/xlink">
    <title>Icons/Buying &amp; shopping/price-tag/Solid colour mask</title>
    <defs>
        <path d="M88.0804162,9.17449005 C88.8613753,8.39335204 90.1277053,8.39320703 90.9088433,9.17416617 C91.6899813,9.95512532 91.6901263,11.2214553 90.9091672,12.0025933 L90.9091672,12.0025933 L82.5770646,20.3367943 C82.9421052,21.1243635 83.1458333,22.0019318 83.1458333,22.9270833 L83.1458333,22.9270833 L83.1458333,48.8705172 C83.1409832,50.5022729 82.4896004,52.0655918 81.3360886,53.2162969 L81.3360886,53.2162969 L46.523125,88.0292603 C44.1152192,90.4355883 40.2129058,90.4355883 37.8045364,88.0287969 L37.8045364,88.0287969 L11.850948,62.0752083 C9.44462003,59.6673025 9.44462003,55.7649891 11.8519405,53.356091 L11.8519405,53.356091 L46.6803227,18.5537506 C47.8377875,17.3975718 49.4072438,16.7487148 51.04247,16.749997 L51.04247,16.749997 L76.9791667,16.7604167 C77.9992832,16.7604167 78.9615464,17.008116 79.8090923,17.4466506 Z M66.7552083,25.2135417 C62.2707712,25.2135417 58.6354167,28.8488962 58.6354167,33.3333333 C58.6354167,37.8177704 62.2707712,41.453125 66.7552083,41.453125 C71.2396454,41.453125 74.875,37.8177704 74.875,33.3333333 C74.875,31.8159861 74.4588012,30.3958473 73.7343366,29.1808501 L70.7171104,32.1998615 C70.8199397,32.5599647 70.875,32.940219 70.875,33.3333333 C70.875,35.6086314 69.0305064,37.453125 66.7552083,37.453125 C64.4799102,37.453125 62.6354167,35.6086314 62.6354167,33.3333333 C62.6354167,31.0580352 64.4799102,29.2135417 66.7552083,29.2135417 C67.1478515,29.2135417 67.5276654,29.26847 67.8873852,29.3710618 L70.9059498,26.3531668 C69.6913372,25.6293428 68.2718305,25.2135417 66.7552083,25.2135417 Z" id="path-1"></path>
    </defs>
    <g id="Icons/Buying-&amp;-shopping/price-tag/Solid-colour-mask" stroke="none" stroke-width="1" fill="none" fill-rule="evenodd">
        <rect id="Rectangle" x="0" y="0" width="100" height="100"></rect>
        <mask id="mask-2" fill="white">
            <use xlink:href="#path-1"></use>
        </mask>
        <use id="Mask" fill="#9c2aa0" fill-rule="nonzero" xlink:href="#path-1"></use>
        <g id="Group" mask="url(#mask-2)" fill="#9c2aa0">
            <g id="COLOUR-MASK">
                <rect id="Rectangle" x="0" y="0" width="100" height="100"></rect>
            </g>
        </g>
    </g>
</svg>