<?xml version="1.0" encoding="UTF-8"?>
<svg width="100px" height="100px" viewBox="0 0 100 100" version="1.1" xmlns="http://www.w3.org/2000/svg" xmlns:xlink="http://www.w3.org/1999/xlink">
    <title>Drupal/Checkout/question</title>
    <defs>
        <path d="M50,8.41666667 C72.9658408,8.41666667 91.5833333,27.0341592 91.5833333,50 C91.5833333,72.9658408 72.9658408,91.5833333 50,91.5833333 C27.0341592,91.5833333 8.41666667,72.9658408 8.41666667,50 C8.41666667,27.0341592 27.0341592,8.41666667 50,8.41666667 Z M50,67.3125 C48.0554974,67.3125 46.4791667,68.8888308 46.4791667,70.8333333 C46.4791667,72.7778359 48.0554974,74.3541667 50,74.3541667 C51.9445026,74.3541667 53.5208333,72.7778359 53.5208333,70.8333333 C53.5208333,68.8888308 51.9445026,67.3125 50,67.3125 Z M50.0138574,26.0413258 C45.0955061,26.0189946 41.407419,27.8798066 38.9873339,30.9789499 C38.1466451,32.0555298 37.5246657,33.2003971 37.0824843,34.3493133 C36.8077448,35.0631664 36.6479234,35.6513511 36.5718746,36.0583375 C36.267545,37.6870025 37.3411309,39.2540042 38.9697959,39.5583338 C40.5984608,39.8626633 42.1654625,38.7890774 42.4697921,37.1604125 C42.4821278,37.0943959 42.5472239,36.8548254 42.6820831,36.5044217 C42.9225662,35.8795767 43.2642295,35.2506827 43.7163096,34.6717522 C45.014043,33.0098843 46.9609004,32.027604 49.9862556,32.0414647 C55.7338836,32.068014 58.5886814,39.5108245 55.2041631,42.9543965 C53.3873231,44.811108 51.7015283,46.4845163 49.9924683,48.1455304 C48.0689848,50.0375587 46.9951416,52.6067285 47.0000049,55.2866941 L47,59.3072917 C47,60.9641459 48.3431458,62.3072917 50,62.3072917 C51.6568542,62.3072917 53,60.9641459 53,59.3072917 L53,55.28125 C52.9980574,54.2080181 53.4259124,53.184375 54.1871372,52.4355684 C55.91696,50.7544512 57.6374848,49.0465681 59.487974,47.1554584 C66.514526,40.006316 61.1779092,26.0930968 50.0138574,26.0413258 Z" id="path-1"></path>
    </defs>
    <g id="Drupal/Checkout/question" stroke="none" stroke-width="1" fill="none" fill-rule="evenodd">
        <rect id="Rectangle" x="0" y="0" width="100" height="100"></rect>
        <g id="Group" transform="translate(-0.000000, 0.000000)">
            <mask id="mask-2" fill="white">
                <use xlink:href="#path-1"></use>
            </mask>
            <use id="Mask" fill="#333333" fill-rule="nonzero" xlink:href="#path-1"></use>
            <g mask="url(#mask-2)" fill="#282828" id="COLOUR-MASK">
                <g>
                    <rect id="Rectangle" x="0" y="0" width="100" height="100"></rect>
                </g>
            </g>
            <rect id="Rectangle" mask="url(#mask-2)" x="0" y="0" width="100" height="100"></rect>
        </g>
    </g>
</svg>