<svg xmlns="http://www.w3.org/2000/svg" xmlns:xlink="http://www.w3.org/1999/xlink" width="30" height="30" viewBox="0 0 30 30">
    <defs>
        <path id="oss9k2e4za" d="M17.936 2.525c.331 0 .6.269.6.6v3.007c.895.353 1.732.838 2.484 1.438l2.63-1.49c.286-.163.65-.064.815.22l2.93 5.06c.166.289.066.658-.224.823l-2.65 1.503c.133.937.124 1.89-.026 2.824l2.622 1.521c.288.167.385.538.215.825l-2.978 5.03c-.168.284-.533.38-.817.214l-2.322-1.345c-.795.588-1.706 1-2.673 1.208v2.912c0 .331-.268.6-.6.6H12.05c-.331 0-.6-.269-.6-.6V23.89c-.88-.343-1.706-.814-2.45-1.397l-2.65 1.495c-.287.162-.65.063-.815-.222l-2.93-5.06c-.166-.287-.066-.657.224-.821l2.602-1.48c-.14-.928-.14-1.873 0-2.802l-2.607-1.509c-.289-.167-.385-.538-.215-.825l2.984-5.031c.168-.283.533-.378.817-.213L8.99 7.52c.744-.585 1.571-1.058 2.454-1.402V3.125c0-.331.268-.6.6-.6zm-.6 1.2h-4.692v2.814c0 .257-.164.486-.408.568-1.026.348-1.975.89-2.796 1.596-.194.167-.472.193-.693.064L6.322 7.361 3.95 11.36l2.444 1.414c.222.129.338.384.288.636-.207 1.054-.207 2.139 0 3.193.05.253-.067.51-.292.637L3.947 18.63l2.33 4.023 2.49-1.406c.22-.124.494-.097.686.067.82.703 1.767 1.242 2.79 1.589.243.083.407.311.407.568v2.805h4.692v-2.816c0-.3.222-.553.519-.594 1.075-.147 2.086-.596 2.917-1.293.194-.163.468-.187.687-.06l2.159 1.252 2.367-3.999-2.464-1.429c-.224-.13-.339-.388-.286-.641.22-1.059.23-2.15.03-3.214-.047-.252.07-.506.294-.633l2.487-1.41-2.328-4.021-2.473 1.402c-.222.126-.5.097-.691-.07-.825-.721-1.783-1.275-2.819-1.632-.242-.083-.405-.31-.405-.567V3.725zm-2.013 6.31c2.493.163 4.479 2.149 4.641 4.642.135 2.066-1.025 4-2.912 4.855-1.887.855-4.105.45-5.57-1.014-1.465-1.465-1.869-3.683-1.014-5.57.854-1.887 2.789-3.047 4.855-2.912zm-3.762 3.408c-.648 1.431-.342 3.115.77 4.226 1.11 1.112 2.795 1.418 4.226.77 1.432-.648 2.312-2.116 2.21-3.684-.123-1.892-1.63-3.399-3.522-3.522-1.568-.102-3.036.778-3.684 2.21z"/>
    </defs>
    <g fill="none" fill-rule="evenodd">
        <mask id="9jwkfu5v3b" fill="#fff">
            <use xlink:href="#oss9k2e4za"/>
        </mask>
        <use fill="#333" fill-rule="nonzero" xlink:href="#oss9k2e4za"/>
        <g fill="#FFF" mask="url(#9jwkfu5v3b)">
            <path d="M0 0H30V30H0z"/>
        </g>
        <path d="M0 0H30V30H0z" mask="url(#9jwkfu5v3b)"/>
    </g>
</svg>
