<svg xmlns="http://www.w3.org/2000/svg" width="30" height="30" viewBox="0 0 30 30">
    <g fill="none" fill-rule="evenodd">
        <path d="M0 0H30V30H0z"/>
        <path fill="#000" fill-rule="nonzero" d="M11.875 2.525c5.164 0 9.35 4.186 9.35 9.35 0 2.366-.879 4.527-2.328 6.174l8.402 8.402c.235.234.235.614 0 .848-.208.209-.531.232-.765.07l-.083-.07-8.402-8.402c-1.647 1.45-3.808 2.328-6.174 2.328-5.164 0-9.35-4.186-9.35-9.35s4.186-9.35 9.35-9.35zm0 1.2c-4.501 0-8.15 3.649-8.15 8.15s3.649 8.15 8.15 8.15c2.246 0 4.279-.908 5.753-2.377.002-.005.006-.008.009-.011l.01-.009c1.47-1.474 2.378-3.507 2.378-5.753 0-4.501-3.649-8.15-8.15-8.15z"/>
    </g>
</svg>
