<?xml version="1.0" encoding="UTF-8"?>
<svg width="40px" height="40px" viewBox="0 0 40 40" version="1.1" xmlns="http://www.w3.org/2000/svg" xmlns:xlink="http://www.w3.org/1999/xlink">
    <title>Icons/Devices/Devices &amp; accessories/Devices/Smart watch</title>
    <g id="Icons/Devices/Devices-&amp;-accessories/Devices/Smart-watch" stroke="none" stroke-width="1" fill="none" fill-rule="evenodd">
        <g id="Devices/Phones/Samsung/Galaxy-S20/Cosmic-Black/H:-180px-W:-202px/Angle">
            <rect id="Rectangle" x="0" y="0" width="39.5238095" height="40"></rect>
            <path d="M14.8214286,29.1666667 L15.5089782,34.7375 C15.5862702,35.3670513 16.1172753,35.8381744 16.7440972,35.8333703 L22.7879464,35.8333703 C23.4147683,35.8381744 23.9457734,35.3670513 24.0230655,34.7375 L24.702381,29.1666667" id="Path" stroke="#FFFFFF" stroke-width="1.2" stroke-linecap="round" stroke-linejoin="round"></path>
            <rect id="Rectangle" stroke="#FFFFFF" stroke-width="1.2" stroke-linecap="round" stroke-linejoin="round" x="10.7043651" y="10.8333333" width="18.1150794" height="18.3333333" rx="9.05753968"></rect>
            <path d="M14.8214286,10.8333333 L15.5089782,5.2625 C15.5862702,4.63294868 16.1172753,4.16182557 16.7440972,4.1666297 L22.7879464,4.1666297 C23.4147683,4.16182557 23.9457734,4.63294868 24.0230655,5.2625 L24.702381,10.8333333" id="Path" stroke="#FFFFFF" stroke-width="1.2" stroke-linecap="round" stroke-linejoin="round"></path>
            <path d="M20.0151042,17.4375 C19.9450407,17.2052217 19.8387121,16.9857823 19.7001488,16.7875 C19.2847276,16.1901121 18.6083855,15.8342702 17.8865823,15.8333333 C16.6514633,15.8333333 15.5666171,16.8541667 15.6489583,18.1083333 C15.8506944,21.0416667 19.7619048,24.1666667 19.7619048,24.1666667 C24.1074653,20.6708333 23.8789683,18.1625 23.8789683,18.1625 C23.8789683,16.9125 22.9299851,15.8333333 21.7010417,15.8333333 C20.9138557,15.8380441 20.193116,16.2808224 19.8257192,16.9854167" id="5a24c8ed-b8b3-40ca-8900-60e17e434bcc" stroke="#FFFFFF" stroke-width="1.2" stroke-linecap="round" stroke-linejoin="round"></path>
        </g>
    </g>
</svg>