<?xml version="1.0" encoding="UTF-8"?>
<svg width="100px" height="100px" viewBox="0 0 100 100" version="1.1" xmlns="http://www.w3.org/2000/svg" xmlns:xlink="http://www.w3.org/1999/xlink">
    <title>Drupal/Deal details/sms</title>
    <defs>
        <path d="M41.019494,12.6654527 C45.4576167,12.3845369 49.9121135,12.8148428 54.2044255,13.9375035 C58.1434621,14.9460861 61.8788523,16.6270117 65.2446749,18.9052951 C68.3723023,21.018447 71.0270421,23.7577546 73.041037,26.9496928 C73.4338335,27.5136598 73.9714528,28.4286352 74.5034861,29.6157478 C75.6153025,32.0965155 76.1886279,34.6748723 75.918708,37.2370189 C79.1981752,38.4868993 82.2674446,40.23429 85.019165,42.4176446 L85.019165,42.4176446 L85.1107286,42.4948748 C86.595506,43.8253299 87.8817779,45.3618719 88.9263518,47.0512811 C91.5498291,51.259345 92.279224,56.3779056 90.9337227,61.1579129 C90.414249,62.9793129 89.6322549,64.7153398 88.6139343,66.3088673 C87.5710873,67.9460383 86.3253633,69.4447401 84.9093259,70.7665752 C83.7966402,71.8093985 82.5986006,72.7558632 81.3282189,73.5962597 C81.7520831,74.5087398 82.63377,75.5729568 83.8783153,76.6632217 C84.5807265,77.2785584 85.3413422,77.8549233 86.1022321,78.3715005 C86.5553584,78.6791332 86.9007363,78.8941624 87.0820146,78.9993674 C88.6703099,79.9211351 88.2807937,82.3168026 86.4822884,82.687904 C84.1784927,83.1632663 81.8246839,83.3514205 79.4873019,83.2485858 C77.4459847,83.17178 75.4197066,82.8664246 73.43658,82.3355793 C71.7376159,81.8715377 70.0853968,81.2507834 68.5022151,80.4818045 C67.4013768,79.947885 66.3349876,79.3461392 65.3091769,78.6801167 C61.9277354,78.859241 58.5382938,78.515114 55.2658481,77.6605076 C52.1307942,76.8514253 49.1601736,75.5037317 46.4917586,73.6811141 C44.4749908,72.31291 42.7055412,70.6185192 41.2500809,68.6648633 C38.6690786,70.0766536 36.5839006,71.1445419 34.9457103,71.9165802 C33.8439648,72.4358054 33.1486793,72.7272734 32.8017586,72.8507696 C30.8278024,73.5605878 28.7939461,74.0912394 26.7193335,74.4372052 C23.804262,74.9150101 20.8415957,75.0335168 17.8976742,74.7900715 C15.9553467,74.6294523 15.3665297,72.0687413 17.0436189,71.0758633 C17.1020435,71.0412745 17.2353905,70.9580816 17.4327954,70.8277365 C17.7755807,70.6013978 18.1611686,70.3305978 18.5786805,70.016914 C19.7785586,69.1154248 20.9802865,68.0594047 22.0974497,66.8641487 C23.2555526,65.6250913 24.2483976,64.3144062 25.0355804,62.9419101 C24.3986205,62.6582009 23.8759267,62.4184374 23.2769681,62.135656 C22.4175245,61.7298939 21.6438639,61.3438416 20.953081,60.9719675 C20.0146544,60.4667775 19.2404076,59.9941267 18.6412581,59.5472661 C16.7001904,58.1161333 14.9523705,56.4399609 13.4402438,54.5591545 C11.9715874,52.7292847 10.7829578,50.6913601 9.9111791,48.5068266 C9.04107058,46.3082999 8.53705304,43.982065 8.41874715,41.6120343 C8.24822076,37.8763505 9.01715536,34.157539 10.6570959,30.7919434 C12.3386113,27.3598012 14.7027423,24.3068476 17.600136,21.8239241 C20.708862,19.1431482 24.2508123,17.0105212 28.0697022,15.5191286 C32.2114567,13.8892454 36.5853004,12.9258924 41.019494,12.6654527 Z M72.9013722,40.4300173 C69.9116973,39.6500461 66.8163849,39.3540013 63.7223629,39.553796 C60.6259201,39.7371104 57.578345,40.4117895 54.6911601,41.5536126 C52.0786199,42.5824348 49.6605084,44.0489445 47.5343254,45.8956491 C45.6326244,47.5334706 44.0847984,49.5418069 42.9901229,51.7882183 C41.9787441,53.8926201 41.508699,56.2162096 41.6226207,58.5483068 C41.7358396,60.8673516 42.4335728,63.1201226 43.643373,65.0849715 C44.9554588,67.1819308 46.690396,68.9822471 48.742622,70.3745185 C51.0335922,71.9393182 53.5790475,73.0941254 56.2709763,73.7888563 C59.2602053,74.5694925 62.3553136,74.8655177 65.438321,74.665648 L65.438321,74.665648 L65.5677083,74.6614583 L65.8854167,74.6614583 C66.2872449,74.6614583 66.6797557,74.7824981 67.0117973,75.0088039 C68.043183,75.7117536 69.1247481,76.3380928 70.2488121,76.8832774 C71.6103504,77.5445999 73.0303395,78.0781032 74.4806719,78.4742623 C76.1652472,78.9251683 77.8950532,79.1858461 79.650372,79.2519313 C80.0339092,79.2687987 80.4175627,79.2766332 80.8010162,79.2756692 C78.558719,77.2091694 77.1578521,75.0689585 77.0490817,72.7553825 C77.0141325,72.0120051 77.3948227,71.3106975 78.0372328,70.9350103 C79.5271089,70.0637175 80.9146868,69.0282596 82.1769167,67.845287 C83.3493134,66.7508799 84.3785858,65.512586 85.2418017,64.1574229 C86.0525393,62.8887302 86.6741672,61.5087164 87.0852315,60.0674689 C88.1239182,56.3774126 87.5600597,52.4205112 85.5280802,49.1611852 C84.6911394,47.8076058 83.6667035,46.5795119 82.4853727,45.5134578 C79.9007172,43.4710653 77.0006179,41.8630934 73.8988754,40.7527862 C73.8196779,40.7244365 73.7433725,40.6916062 73.6701426,40.6546829 L73.6701426,40.6546829 L73.1724743,40.5096362 C73.1311662,40.4990271 73.0904623,40.4871778 73.0503952,40.4741363 Z M53.2022658,17.8099149 C49.3123793,16.792534 45.2848738,16.4034756 41.2631093,16.658017 C37.2416597,16.8942331 33.2830338,17.766133 29.5296346,19.2431816 C26.128328,20.5715017 22.9776633,22.4685334 20.2076683,24.8571958 C17.7187795,26.9900615 15.6912545,29.6083343 14.2510445,32.5479375 C12.9059666,35.3084049 12.2745592,38.3620914 12.4141788,41.4211073 C12.5102905,43.346223 12.9211691,45.2425858 13.6283801,47.0295373 C14.351194,48.8407713 15.3391052,50.5345608 16.5587081,52.0541241 C17.8536772,53.6648254 19.3515295,55.1012771 21.0237728,56.334245 C21.4496899,56.6518782 22.0686672,57.0297423 22.8491409,57.4499004 C23.4717461,57.7850719 24.1844602,58.1407122 24.9846963,58.5185212 C26.0305144,59.0122746 26.8452434,59.3741919 28.5580249,60.1190527 C29.5655631,60.5572147 30.0310049,61.7260825 29.6004459,62.7368932 C28.5399889,65.2264964 26.9661069,67.5130656 25.0197298,69.5954998 C24.6384316,70.0034519 24.2494848,70.3965376 23.8551068,70.774645 C24.5952198,70.7057185 25.332957,70.6110738 26.0668459,70.4907854 C27.8991473,70.1852209 29.7002164,69.7153056 31.4542221,69.0845905 C31.4903755,69.0717196 31.6075911,69.026098 31.8131243,68.9399373 C32.1828615,68.7849412 32.6561829,68.5736318 33.2404877,68.2982635 C34.7743309,67.5754014 36.7433208,66.5681378 39.1974391,65.2279331 C38.2724542,63.1909167 37.7371256,60.9912774 37.627382,58.7434159 C37.4809752,55.7463143 38.0850695,52.7600747 39.3895951,50.0457827 C40.7271645,47.3008405 42.6103165,44.8574119 44.9176695,42.8702496 C47.3806207,40.7310167 50.1901146,39.0271458 53.2228038,37.8328706 C56.5017449,36.5361133 59.9660824,35.7691703 63.4752677,35.5614497 C66.3150608,35.3780453 69.1637917,35.5636675 71.9795545,36.1195472 C72.0061108,34.5542468 71.5891868,32.8936051 70.8533105,31.2516627 C70.6007525,30.6881366 70.3302343,30.1728398 70.0617993,29.7199271 C69.9069455,29.4586525 69.793405,29.2847318 69.7416221,29.2114479 L69.7416221,29.2114479 L69.6815411,29.1213391 C67.9601373,26.3816806 65.6863324,24.0311022 63.0039078,22.2187465 C60.0178649,20.197532 56.7053491,18.7068999 53.2022658,17.8099149 Z" id="path-1"></path>
    </defs>
    <g id="Drupal/Deal-details/sms" stroke="none" stroke-width="1" fill="none" fill-rule="evenodd">
        <rect id="Rectangle" x="0" y="0" width="100" height="100"></rect>
        <g id="Group">
            <mask id="mask-2" fill="white">
                <use xlink:href="#path-1"></use>
            </mask>
            <use id="Mask" fill="#333333" fill-rule="nonzero" xlink:href="#path-1"></use>
            <g mask="url(#mask-2)" fill="#282828" id="COLOUR-MASK">
                <g>
                    <rect id="Rectangle" x="0" y="0" width="100" height="100"></rect>
                </g>
            </g>
            <rect id="Rectangle" mask="url(#mask-2)" x="0" y="0" width="100" height="100"></rect>
        </g>
    </g>
</svg>