<?xml version="1.0" encoding="UTF-8"?>
<svg width="100px" height="100px" viewBox="0 0 100 100" version="1.1" xmlns="http://www.w3.org/2000/svg" xmlns:xlink="http://www.w3.org/1999/xlink">
    <title>Icons/More/Security &amp; protection/lock/Solid colour mask</title>
    <defs>
        <path d="M50.5,6.97395833 C62.5121933,6.97395833 72.25,16.711765 72.25,28.7239583 L72.25,28.7239583 L72.2506694,38.296284 C78.5406981,39.6698758 83.25,45.2719589 83.25,51.9739583 L83.25,77.9739583 C83.25,85.7059448 76.9819865,91.9739583 69.25,91.9739583 L30.75,91.9739583 C23.0180135,91.9739583 16.75,85.7059448 16.75,77.9739583 L16.75,51.9739583 C16.75,44.9209592 21.9654935,39.0861039 28.7501595,38.1157132 L28.75,28.7239583 C28.75,16.711765 38.4878067,6.97395833 50.5,6.97395833 Z M49.75,50.9739583 C48.6454305,50.9739583 47.75,51.8693888 47.75,52.9739583 L47.75,77.9739583 C47.75,79.0785278 48.6454305,79.9739583 49.75,79.9739583 C50.8545695,79.9739583 51.75,79.0785278 51.75,77.9739583 L51.75,52.9739583 C51.75,51.8693888 50.8545695,50.9739583 49.75,50.9739583 Z M50.5,12.9739583 C41.8015152,12.9739583 34.75,20.0254735 34.75,28.7239583 L34.75,28.7239583 L34.75,37.9739583 L66.25,37.9739583 L66.25,28.7239583 C66.25,20.1315526 59.3694243,13.1461914 50.8174926,12.9770947 Z" id="path-1"></path>
    </defs>
    <g id="Icons/...More/Security-&amp;-protection/lock/Solid-colour-mask" stroke="none" stroke-width="1" fill="none" fill-rule="evenodd">
        <mask id="mask-2" fill="white">
            <use xlink:href="#path-1"></use>
        </mask>
        <use id="Mask" fill="#333333" fill-rule="nonzero" xlink:href="#path-1"></use>
        <g id="Group" mask="url(#mask-2)" fill="#282828">
            <g id="COLOUR-MASK">
                <rect id="Rectangle" x="0" y="0" width="100" height="100"></rect>
            </g>
        </g>
        <rect id="Rectangle" mask="url(#mask-2)" x="0" y="0" width="100" height="100"></rect>
    </g>
</svg>