<?xml version="1.0" encoding="UTF-8"?>
<svg width="100px" height="100px" viewBox="0 0 100 100" version="1.1" xmlns="http://www.w3.org/2000/svg" xmlns:xlink="http://www.w3.org/1999/xlink">
    <title>Icons/Sorting/sort/4px colour mask</title>
    <defs>
        <path d="M31.25,20.9166667 C32.3545695,20.9166667 33.25,21.8120972 33.25,22.9166667 L33.25,22.9166667 L33.2491193,80.3773333 L46.742185,66.0556442 C47.4597455,65.2939804 48.6335469,65.2200218 49.4387157,65.8583621 L49.5693558,65.9713517 C50.3733342,66.7287766 50.4110733,67.9945441 49.6536483,68.7985225 L49.6536483,68.7985225 L32.7057317,86.7881058 C32.7021716,86.7918847 32.6986004,86.7956466 32.6950184,86.7993914 C32.6686559,86.8269293 32.641701,86.8535382 32.6140119,86.8793703 C32.6039544,86.8888751 32.5936847,86.8982771 32.5833412,86.9075524 L32.5621469,86.9261004 C32.5476477,86.9387152 32.532965,86.9511246 32.5181033,86.963324 C32.4728665,87.0007926 32.4261114,87.0358879 32.3782404,87.0686674 C32.3635528,87.0783401 32.3484172,87.0884042 32.3331385,87.0982657 C32.3074408,87.1152316 32.281887,87.1309016 32.2560667,87.1459447 C32.2397277,87.1551113 32.2228956,87.1646076 32.2059145,87.1738649 C32.1804777,87.1880416 32.154847,87.2012721 32.128999,87.2139116 C32.1073256,87.2242731 32.085609,87.2344325 32.0636841,87.244209 C32.0408041,87.2545722 32.0174661,87.2644233 31.9939853,87.2738117 C31.9669736,87.2845418 31.939701,87.2947899 31.9121529,87.3044521 C31.8943754,87.3106786 31.8766575,87.3165946 31.8588757,87.3222559 C31.8198452,87.334759 31.7801536,87.3460919 31.7399788,87.3562094 C31.7327032,87.3579206 31.7256708,87.3596472 31.718631,87.3613351 C31.6809404,87.3705135 31.6426326,87.3785359 31.6039392,87.3854456 C31.5874196,87.3882638 31.5707353,87.3910293 31.5540248,87.3935829 C31.5360956,87.3964377 31.5184832,87.398881 31.500799,87.4010934 C31.470356,87.4048158 31.4395874,87.4079631 31.4087728,87.4103998 L31.25,87.4166667 L31.25,87.4166667 L31.0907092,87.4103585 C31.056211,87.4076215 31.0217706,87.4039938 30.9874257,87.3994754 C30.9742483,87.3978555 30.9612978,87.3960261 30.9483878,87.3940734 C30.928066,87.3908701 30.9077152,87.3874649 30.8874112,87.3837444 C30.8524477,87.3774717 30.8181559,87.3702376 30.7842001,87.3621376 C30.7717481,87.359049 30.7586934,87.3558041 30.7456662,87.352426 C30.7116445,87.3436858 30.6786588,87.334178 30.646035,87.3238563 C30.6227532,87.3164733 30.5990259,87.3085013 30.5754261,87.3000724 C30.5541457,87.2924198 30.5335355,87.2846398 30.5130907,87.2765324 C30.4862969,87.2660373 30.4593035,87.2546777 30.4325208,87.2426994 C30.4097211,87.232286 30.3872932,87.2217175 30.3650981,87.2107492 C30.3434032,87.2003223 30.3213976,87.1889632 30.2995661,87.1771685 C30.2743399,87.1631817 30.2499611,87.1493066 30.2259093,87.1349408 C30.2081397,87.1247107 30.1905228,87.1138196 30.1730428,87.1026295 C30.1441946,87.0837836 30.1152788,87.0641978 30.086916,87.0438889 C30.0603549,87.0252263 30.0340108,87.005349 30.0080629,86.9847339 C29.9783382,86.9608533 29.9495169,86.9366333 29.9214056,86.9116323 L29.921167,86.9115838 C29.8838967,86.8782736 29.8476517,86.8435246 29.8127514,86.8074662 L29.7939121,86.7877276 L12.9970371,68.9491859 C12.2398211,68.1450107 12.277889,66.8792531 13.0820641,66.1220371 C13.8862393,65.3648211 15.1519969,65.402889 15.9092129,66.2070641 L15.9092129,66.2070641 L29.2491193,80.3743333 L29.25,22.9166667 C29.25,21.8623049 30.0658778,20.9985015 31.1007377,20.9221524 Z M68.7554681,12.5833334 L68.8010595,12.5839724 C68.8360487,12.5848492 68.8708147,12.5866246 68.9053353,12.5892763 C68.9286095,12.5906772 68.9516831,12.5928048 68.974721,12.5953314 C69.0022625,12.5988982 69.0295527,12.6025255 69.0566634,12.6066972 C69.4825988,12.6705723 69.8915085,12.8726529 70.2112963,13.2122724 L70.2112963,13.2122724 L87.0081713,31.0508141 C87.7653873,31.8549893 87.7273194,33.1207469 86.9231442,33.8779629 C86.1189691,34.6351789 84.8532114,34.597111 84.0959954,33.7929359 L84.0959954,33.7929359 L70.7491193,19.6193333 L70.75,77.0833333 C70.75,78.1376951 69.9341222,79.0014985 68.8992623,79.0778476 L68.75,79.0833333 C67.6454305,79.0833333 66.75,78.1879028 66.75,77.0833333 L66.75,77.0833333 L66.7491193,19.6283333 L53.2630233,33.9443558 C52.5454629,34.7060196 51.3716614,34.7799782 50.5664926,34.1416379 L50.4358525,34.0286483 C49.6318741,33.2712234 49.5941351,32.0054559 50.35156,31.2014775 L50.35156,31.2014775 L67.2197325,13.2955209 C67.5866085,12.8600236 68.135992,12.5833333 68.75,12.5833333 L68.75,12.5833333 L68.7554681,12.5833334 Z" id="path-1"></path>
    </defs>
    <g id="Icons/Sorting/sort/4px-colour-mask" stroke="none" stroke-width="1" fill="none" fill-rule="evenodd">
        <rect id="Rectangle" x="0" y="0" width="100" height="100"></rect>
        <mask id="mask-2" fill="white">
            <use xlink:href="#path-1"></use>
        </mask>
        <use id="Mask" fill="#000000" fill-rule="nonzero" xlink:href="#path-1"></use>
        <g id="Group" mask="url(#mask-2)" fill="#000000">
            <g id="COLOUR-MASK">
                <rect id="Rectangle" x="0" y="0" width="100" height="100" fill="#000000"></rect>
            </g>
        </g>
    </g>
</svg>