<?xml version="1.0" encoding="UTF-8"?>
<svg width="100px" height="100px" viewBox="0 0 100 100" version="1.1" xmlns="http://www.w3.org/2000/svg" xmlns:xlink="http://www.w3.org/1999/xlink">
    <title>Icons/Location &amp; travel/tracker/Solid colour mask</title>
    <defs>
        <path d="M50,8.41666667 C68.3634679,8.41666667 83.25,23.3031987 83.25,41.6666667 C83.25,45.6908683 82.1907552,50.0220024 80.2016291,54.6190939 C77.4249416,61.0363274 72.919311,67.8084267 67.1614426,74.7178688 C63.6963788,78.8759453 59.9887862,82.8307108 56.2810478,86.456055 C54.9828188,87.7254344 53.776444,88.8637574 52.6923118,89.8549639 C52.3114787,90.2031541 51.9726673,90.5084739 51.6796798,90.7689072 C51.5016784,90.9271306 51.3771374,91.0364053 51.3098611,91.0947115 C50.5581352,91.7462073 49.4418648,91.7462073 48.6901389,91.0947115 C48.6228626,91.0364053 48.4983216,90.9271306 48.3203202,90.7689072 C48.0273327,90.5084739 47.6885213,90.2031541 47.3076882,89.8549639 C46.223556,88.8637574 45.0171812,87.7254344 43.7189522,86.456055 C40.0112138,82.8307108 36.3036212,78.8759453 32.8385574,74.7178688 C27.080689,67.8084267 22.5750584,61.0363274 19.7983709,54.6190939 C17.8092448,50.0220024 16.75,45.6908683 16.75,41.6666667 C16.75,23.3031987 31.6365321,8.41666667 50,8.41666667 Z M50,25.0833333 C40.8412779,25.0833333 33.4166667,32.5079446 33.4166667,41.6666667 C33.4166667,50.8253888 40.8412779,58.25 50,58.25 C59.1587221,58.25 66.5833333,50.8253888 66.5833333,41.6666667 C66.5833333,32.5079446 59.1587221,25.0833333 50,25.0833333 Z" id="path-1"></path>
    </defs>
    <g id="Icons/Location-&amp;-travel/tracker/Solid-colour-mask" stroke="none" stroke-width="1" fill="none" fill-rule="evenodd">
        <rect id="Rectangle" x="0" y="0" width="100" height="100"></rect>
        <mask id="mask-2" fill="white">
            <use xlink:href="#path-1"></use>
        </mask>
        <use id="Mask" fill="#333333" fill-rule="nonzero" xlink:href="#path-1"></use>
        <g id="Group" mask="url(#mask-2)" fill="#000000">
            <g id="COLOUR-MASK">
                <rect id="Rectangle" x="0" y="0" width="100" height="100"></rect>
            </g>
        </g>
    </g>
</svg>