<svg xmlns="http://www.w3.org/2000/svg" width="24" height="25" fill="none" viewBox="0 0 24 25">
    <path fill="#fff" fill-rule="evenodd" d="M21.98 12.597c0 5.512-4.468 9.98-9.98 9.98-5.511 0-9.98-4.468-9.98-9.98 0-5.512 4.469-9.98 9.98-9.98 5.512 0 9.98 4.468 9.98 9.98zm-15.049-.171c.282-.282.737-.282 1.019 0l2.254 2.254 5.71-5.71c.281-.28.737-.28 1.018 0 .281.282.281.738 0 1.019l-6.219 6.219c-.28.28-.737.28-1.018 0l-2.764-2.764c-.28-.281-.28-.737 0-1.019z" clip-rule="evenodd"/>
    <mask id="vgi34qlvea" width="20" height="21" x="2" y="2" maskUnits="userSpaceOnUse">
        <path fill="#fff" fill-rule="evenodd" d="M21.98 12.597c0 5.512-4.468 9.98-9.98 9.98-5.511 0-9.98-4.468-9.98-9.98 0-5.512 4.469-9.98 9.98-9.98 5.512 0 9.98 4.468 9.98 9.98zm-15.049-.171c.282-.282.737-.282 1.019 0l2.254 2.254 5.71-5.71c.281-.28.737-.28 1.018 0 .281.282.281.738 0 1.019l-6.219 6.219c-.28.28-.737.28-1.018 0l-2.764-2.764c-.28-.281-.28-.737 0-1.019z" clip-rule="evenodd"/>
    </mask>
    <g mask="url(#vgi34qlvea)">
        <path fill="#fff" d="M0 0.6H24V24.6H0z"/>
    </g>
</svg>
