<svg width="24" height="25" viewBox="0 0 24 25" fill="none" xmlns="http://www.w3.org/2000/svg">
<path fill-rule="evenodd" clip-rule="evenodd" d="M21.9795 12.5191C21.9795 18.0309 17.5113 22.4991 11.9995 22.4991C6.48773 22.4991 2.01953 18.0309 2.01953 12.5191C2.01953 7.00726 6.48773 2.53906 11.9995 2.53906C17.5113 2.53906 21.9795 7.00726 21.9795 12.5191ZM6.93038 12.3474C7.21156 12.0662 7.66744 12.0662 7.94862 12.3474L10.2033 14.6021L15.9129 8.89245C16.1941 8.61127 16.65 8.61127 16.9312 8.89245C17.2123 9.17362 17.2123 9.6295 16.9312 9.91068L10.7124 16.1294C10.4312 16.4106 9.97536 16.4106 9.69418 16.1294L6.93038 13.3656C6.64921 13.0844 6.64921 12.6286 6.93038 12.3474Z" fill="#333333"/>
<mask id="mask0" mask-type="alpha" maskUnits="userSpaceOnUse" x="2" y="2" width="20" height="21">
<path fill-rule="evenodd" clip-rule="evenodd" d="M21.9795 12.5191C21.9795 18.0309 17.5113 22.4991 11.9995 22.4991C6.48773 22.4991 2.01953 18.0309 2.01953 12.5191C2.01953 7.00726 6.48773 2.53906 11.9995 2.53906C17.5113 2.53906 21.9795 7.00726 21.9795 12.5191ZM6.93038 12.3474C7.21156 12.0662 7.66744 12.0662 7.94862 12.3474L10.2033 14.6021L15.9129 8.89245C16.1941 8.61127 16.65 8.61127 16.9312 8.89245C17.2123 9.17362 17.2123 9.6295 16.9312 9.91068L10.7124 16.1294C10.4312 16.4106 9.97536 16.4106 9.69418 16.1294L6.93038 13.3656C6.64921 13.0844 6.64921 12.6286 6.93038 12.3474Z" fill="white"/>
</mask>
<g mask="url(#mask0)">
<rect y="0.521484" width="24" height="24" fill="#428600"/>
</g>
</svg>
