<svg xmlns="http://www.w3.org/2000/svg" width="30" height="30" viewBox="0 0 30 30">
    <g fill="none" fill-rule="evenodd">
        <path fill="#428600" fill-rule="nonzero" d="M13 .522c6.89 0 12.475 5.585 12.475 12.475S19.89 25.472 13 25.472.525 19.887.525 12.997 6.11.522 13 .522zm0 1.2c-6.227 0-11.275 5.048-11.275 11.275S6.773 24.272 13 24.272s11.275-5.048 11.275-11.275S19.227 1.722 13 1.722zm5.104 6.954c.234-.235.614-.235.848 0 .235.234.235.614 0 .848l-7.773 7.774c-.234.234-.614.234-.849 0l-3.454-3.455c-.235-.234-.235-.614 0-.849.234-.234.614-.234.848 0l3.03 3.03z" transform="translate(2 2)"/>
        <path d="M-2 -2H28V28H-2z" transform="translate(2 2)"/>
    </g>
</svg>
