<?xml version="1.0" encoding="UTF-8"?>
<svg width="84px" height="84px" viewBox="0 0 84 84" version="1.1" xmlns="http://www.w3.org/2000/svg" xmlns:xlink="http://www.w3.org/1999/xlink">
    <title>Icons/Status/success-circle/Solid colour mask</title>
    <defs>
        <path d="M50,8.40625 C72.9658408,8.40625 91.5833333,27.0237425 91.5833333,49.9895833 C91.5833333,72.9554242 72.9658408,91.5729167 50,91.5729167 C27.0341592,91.5729167 8.41666667,72.9554242 8.41666667,49.9895833 C8.41666667,27.0237425 27.0341592,8.40625 50,8.40625 Z M66.3059747,34.8786797 L42.515837,58.6688173 L33.1213203,49.2743006 C31.9497475,48.1027278 30.0502525,48.1027278 28.8786797,49.2743006 C27.7071068,50.4458735 27.7071068,52.3453684 28.8786797,53.5169413 L40.3945167,65.0327783 C41.5660896,66.2043512 43.4655845,66.2043512 44.6371574,65.0327783 L70.5486154,39.1213203 C71.7201882,37.9497475 71.7201882,36.0502525 70.5486154,34.8786797 C69.3770425,33.7071068 67.4775476,33.7071068 66.3059747,34.8786797 Z" id="path-1"></path>
    </defs>
    <g id="Product-details" stroke="none" stroke-width="1" fill="none" fill-rule="evenodd">
        <g id="Product-details/Desktop/Notify-me-popup---Out-of-stock-(confirm)" transform="translate(-678.000000, -473.000000)">
            <g id="🧩-Components/Modals:-Popups/Desktop/Success/1-CTA/1-line-heading" transform="translate(0.000000, 114.000000)">
                <g id="Group" transform="translate(0.000000, -0.002222)">
                    <g id="Group-12" transform="translate(440.000000, 319.000000)">
                        <g id="Icons/Status/success-circle/Solid-colour-mask" transform="translate(230.000000, 32.002222)">
                            <mask id="mask-2" fill="white">
                                <use xlink:href="#path-1"></use>
                            </mask>
                            <use id="Mask" fill="#333333" fill-rule="nonzero" xlink:href="#path-1"></use>
                            <g id="Group" mask="url(#mask-2)" fill="#428600">
                                <g id="COLOUR-MASK">
                                    <rect id="Rectangle" x="0" y="0" width="100" height="100"></rect>
                                </g>
                            </g>
                            <rect id="Rectangle" mask="url(#mask-2)" x="0" y="0" width="100" height="100"></rect>
                        </g>
                    </g>
                </g>
            </g>
        </g>
    </g>
</svg>