<svg width="21" height="21" viewBox="0 0 100 100" fill="none" xmlns="http://www.w3.org/2000/svg">
<path fill-rule="evenodd" clip-rule="evenodd" d="M91.5834 50C91.5834 72.9659 72.9659 91.5834 50 91.5834C27.0342 91.5834 8.41669 72.9659 8.41669 50C8.41669 27.0342 27.0342 8.41669 50 8.41669C72.9659 8.41669 91.5834 27.0342 91.5834 50ZM53 31.7709C53 34.003 51.1905 35.8125 48.9584 35.8125C46.7262 35.8125 44.9167 34.003 44.9167 31.7709C44.9167 29.5387 46.7262 27.7292 48.9584 27.7292C51.1905 27.7292 53 29.5387 53 31.7709ZM53 65.75H54.1667C55.8235 65.75 57.1667 67.0932 57.1667 68.75C57.1667 70.4069 55.8235 71.75 54.1667 71.75H45.8334C44.1765 71.75 42.8334 70.4069 42.8334 68.75C42.8334 67.0932 44.1765 65.75 45.8334 65.75H47V46.75H45.8334C44.1765 46.75 42.8334 45.4069 42.8334 43.75C42.8334 42.0932 44.1765 40.75 45.8334 40.75H50C51.6569 40.75 53 42.0932 53 43.75V65.75Z" fill="#333333"/>
<mask id="mask0" mask-type="alpha" maskUnits="userSpaceOnUse" x="8" y="8" width="84" height="84">
<path fill-rule="evenodd" clip-rule="evenodd" d="M91.5834 50C91.5834 72.9659 72.9659 91.5834 50 91.5834C27.0342 91.5834 8.41669 72.9659 8.41669 50C8.41669 27.0342 27.0342 8.41669 50 8.41669C72.9659 8.41669 91.5834 27.0342 91.5834 50ZM53 31.7709C53 34.003 51.1905 35.8125 48.9584 35.8125C46.7262 35.8125 44.9167 34.003 44.9167 31.7709C44.9167 29.5387 46.7262 27.7292 48.9584 27.7292C51.1905 27.7292 53 29.5387 53 31.7709ZM53 65.75H54.1667C55.8235 65.75 57.1667 67.0932 57.1667 68.75C57.1667 70.4069 55.8235 71.75 54.1667 71.75H45.8334C44.1765 71.75 42.8334 70.4069 42.8334 68.75C42.8334 67.0932 44.1765 65.75 45.8334 65.75H47V46.75H45.8334C44.1765 46.75 42.8334 45.4069 42.8334 43.75C42.8334 42.0932 44.1765 40.75 45.8334 40.75H50C51.6569 40.75 53 42.0932 53 43.75V65.75Z" fill="white"/>
</mask>
<g mask="url(#mask0)">
<rect width="100" height="100" fill="#282828"/>
</g>
</svg>
