<svg width="40" height="41" viewBox="0 0 40 41" fill="none" xmlns="http://www.w3.org/2000/svg">
<path fill-rule="evenodd" clip-rule="evenodd" d="M13.2332 3.8667H26.7665C28.5338 3.8667 29.9665 5.29939 29.9665 7.0667V33.9334C29.9665 35.7007 28.5338 37.1334 26.7665 37.1334H13.2332C11.4659 37.1334 10.0332 35.7007 10.0332 33.9334V7.0667C10.0332 5.29939 11.4659 3.8667 13.2332 3.8667ZM13.2332 5.4667C12.3495 5.4667 11.6332 6.18304 11.6332 7.0667V33.9334C11.6332 34.817 12.3495 35.5334 13.2332 35.5334H26.7665C27.6502 35.5334 28.3665 34.817 28.3665 33.9334V7.0667C28.3665 6.18304 27.6502 5.4667 26.7665 5.4667H13.2332ZM24.2005 13.8683C23.8878 14.1804 23.3813 14.18 23.0691 13.8673L20.7999 11.5942V21.3334C20.7999 21.7752 20.4417 22.1334 19.9999 22.1334C19.5581 22.1334 19.1999 21.7752 19.1999 21.3334V11.6019L16.9297 13.8683C16.617 14.1804 16.1104 14.18 15.7983 13.8673C15.4861 13.5546 15.4866 13.0481 15.7993 12.7359L19.3783 9.16301C19.525 8.98223 19.749 8.8667 19.9999 8.8667L20.003 8.8667C20.209 8.86591 20.4152 8.94419 20.5723 9.1015L24.2015 12.7369C24.5136 13.0496 24.5132 13.5561 24.2005 13.8683ZM22.4999 33.8C22.9417 33.8 23.2999 33.4419 23.2999 33C23.2999 32.5582 22.9417 32.2 22.4999 32.2H17.4999C17.0581 32.2 16.6999 32.5582 16.6999 33C16.6999 33.4419 17.0581 33.8 17.4999 33.8H22.4999Z" fill="#333333"/>
<mask id="mask0" mask-type="alpha" maskUnits="userSpaceOnUse" x="10" y="3" width="20" height="35">
<path fill-rule="evenodd" clip-rule="evenodd" d="M13.2332 3.8667H26.7665C28.5338 3.8667 29.9665 5.29939 29.9665 7.0667V33.9334C29.9665 35.7007 28.5338 37.1334 26.7665 37.1334H13.2332C11.4659 37.1334 10.0332 35.7007 10.0332 33.9334V7.0667C10.0332 5.29939 11.4659 3.8667 13.2332 3.8667ZM13.2332 5.4667C12.3495 5.4667 11.6332 6.18304 11.6332 7.0667V33.9334C11.6332 34.817 12.3495 35.5334 13.2332 35.5334H26.7665C27.6502 35.5334 28.3665 34.817 28.3665 33.9334V7.0667C28.3665 6.18304 27.6502 5.4667 26.7665 5.4667H13.2332ZM24.2005 13.8683C23.8878 14.1804 23.3813 14.18 23.0691 13.8673L20.7999 11.5942V21.3334C20.7999 21.7752 20.4417 22.1334 19.9999 22.1334C19.5581 22.1334 19.1999 21.7752 19.1999 21.3334V11.6019L16.9297 13.8683C16.617 14.1804 16.1104 14.18 15.7983 13.8673C15.4861 13.5546 15.4866 13.0481 15.7993 12.7359L19.3783 9.16301C19.525 8.98223 19.749 8.8667 19.9999 8.8667L20.003 8.8667C20.209 8.86591 20.4152 8.94419 20.5723 9.1015L24.2015 12.7369C24.5136 13.0496 24.5132 13.5561 24.2005 13.8683ZM22.4999 33.8C22.9417 33.8 23.2999 33.4419 23.2999 33C23.2999 32.5582 22.9417 32.2 22.4999 32.2H17.4999C17.0581 32.2 16.6999 32.5582 16.6999 33C16.6999 33.4419 17.0581 33.8 17.4999 33.8H22.4999Z" fill="white"/>
</mask>
<g mask="url(#mask0)">
<rect y="0.5" width="40" height="40" fill="#282828"/>
</g>
</svg>
