<svg xmlns="http://www.w3.org/2000/svg" width="30" height="30" fill="none" viewBox="0 0 30 30">
    <path fill="#333" fill-rule="evenodd" d="M20.075 2.525H9.925c-1.325 0-2.4 1.075-2.4 2.4v20.15c0 1.326 1.075 2.4 2.4 2.4h10.15c1.326 0 2.4-1.075 2.4-2.4V4.925c0-1.325-1.074-2.4-2.4-2.4zm-1.924 7.501c-.235.234-.615.234-.849 0L15.6 8.32v7.304c0 .331-.268.6-.6.6-.331 0-.6-.269-.6-.6V8.326l-1.702 1.7c-.235.234-.615.234-.849 0-.234-.235-.234-.615 0-.849l2.685-2.68c.11-.135.278-.222.466-.222h.003c.154 0 .309.058.427.176l2.722 2.727c.234.234.233.614-.001.848zm-1.276 14.949h-3.75c-.331 0-.6-.269-.6-.6 0-.331.269-.6.6-.6h3.75c.332 0 .6.269.6.6 0 .331-.268.6-.6.6z" clip-rule="evenodd"/>
    <mask id="4haph66w7a" width="16" height="26" x="7" y="2" maskUnits="userSpaceOnUse">
        <path fill="#fff" fill-rule="evenodd" d="M20.075 2.525H9.925c-1.325 0-2.4 1.075-2.4 2.4v20.15c0 1.326 1.075 2.4 2.4 2.4h10.15c1.326 0 2.4-1.075 2.4-2.4V4.925c0-1.325-1.074-2.4-2.4-2.4zm-1.924 7.501c-.235.234-.615.234-.849 0L15.6 8.32v7.304c0 .331-.268.6-.6.6-.331 0-.6-.269-.6-.6V8.326l-1.702 1.7c-.235.234-.615.234-.849 0-.234-.235-.234-.615 0-.849l2.685-2.68c.11-.135.278-.222.466-.222h.003c.154 0 .309.058.427.176l2.722 2.727c.234.234.233.614-.001.848zm-1.276 14.949h-3.75c-.331 0-.6-.269-.6-.6 0-.331.269-.6.6-.6h3.75c.332 0 .6.269.6.6 0 .331-.268.6-.6.6z" clip-rule="evenodd"/>
    </mask>
    <g mask="url(#4haph66w7a)">
        <path fill="#fff" d="M0 0H30V30H0z"/>
    </g>
</svg>
