<svg xmlns="http://www.w3.org/2000/svg" width="40" height="41" fill="none" viewBox="0 0 40 41">
    <path fill="#333" fill-rule="evenodd" d="M13.235 3.867H26.77c1.767 0 3.2 1.433 3.2 3.2v26.867c0 1.767-1.433 3.2-3.2 3.2H13.234c-1.767 0-3.2-1.433-3.2-3.2V7.067c0-1.767 1.433-3.2 3.2-3.2zm0 1.6c-.883 0-1.6.717-1.6 1.6v26.867c0 .884.716 1.6 1.6 1.6H26.77c.883 0 1.6-.716 1.6-1.6V7.067c0-.883-.717-1.6-1.6-1.6H13.234zm10.967 8.402c-.312.312-.819.312-1.13-.001l-2.27-2.273v9.739c0 .442-.358.8-.8.8-.442 0-.8-.358-.8-.8v-9.732l-2.27 2.267c-.313.312-.82.312-1.132-.001-.312-.313-.312-.82.001-1.132l3.58-3.573c.146-.18.37-.296.62-.296h.004c.206 0 .412.078.57.235l3.628 3.635c.313.313.312.82 0 1.132zm-1.7 19.931c.442 0 .8-.358.8-.8 0-.441-.358-.8-.8-.8h-5c-.442 0-.8.359-.8.8 0 .442.358.8.8.8h5z" clip-rule="evenodd"/>
    <mask id="gnv9c6wfia" width="20" height="35" x="10" y="3" maskUnits="userSpaceOnUse">
        <path fill="#fff" fill-rule="evenodd" d="M13.235 3.867H26.77c1.767 0 3.2 1.433 3.2 3.2v26.867c0 1.767-1.433 3.2-3.2 3.2H13.234c-1.767 0-3.2-1.433-3.2-3.2V7.067c0-1.767 1.433-3.2 3.2-3.2zm0 1.6c-.883 0-1.6.717-1.6 1.6v26.867c0 .884.716 1.6 1.6 1.6H26.77c.883 0 1.6-.716 1.6-1.6V7.067c0-.883-.717-1.6-1.6-1.6H13.234zm10.967 8.402c-.312.312-.819.312-1.13-.001l-2.27-2.273v9.739c0 .442-.358.8-.8.8-.442 0-.8-.358-.8-.8v-9.732l-2.27 2.267c-.313.312-.82.312-1.132-.001-.312-.313-.312-.82.001-1.132l3.58-3.573c.146-.18.37-.296.62-.296h.004c.206 0 .412.078.57.235l3.628 3.635c.313.313.312.82 0 1.132zm-1.7 19.931c.442 0 .8-.358.8-.8 0-.441-.358-.8-.8-.8h-5c-.442 0-.8.359-.8.8 0 .442.358.8.8.8h5z" clip-rule="evenodd"/>
    </mask>
    <g mask="url(#gnv9c6wfia)">
        <path fill="#282828" d="M0 0.5H40V40.5H0z"/>
    </g>
</svg>
