<?xml version="1.0" encoding="UTF-8"?>
<svg width="84px" height="84px" viewBox="0 0 84 84" version="1.1" xmlns="http://www.w3.org/2000/svg" xmlns:xlink="http://www.w3.org/1999/xlink">
    <title>999AC084-8E26-4C3E-B0D9-80182B41FFB7</title>
    <defs>
        <path d="M0.32749999,3.67913794 C0.32749999,3.68165705 0.32749999,3.68417796 0.32749999,3.68669908 L0.32749999,4.05046875 C0.32749999,5.07771838 1.16025037,5.91046875 2.1875,5.91046875 C3.21367458,5.91046875 4.04575678,5.07946047 4.04749726,4.05369326 L4.04749876,3.62264589 C4.05696652,2.35431638 4.78875308,1.21503885 5.92976497,0.685721687 C7.04609937,0.195553797 8.122509,0.497939925 9.47375967,1.60789583 L45.3879415,28.3278134 L46.4007799,29.0910867 L46.5094789,29.1670767 C47.3098663,29.6851416 47.7948143,30.5721156 47.7990406,31.5255603 C47.8030585,32.4789016 47.3257985,33.3700358 46.5299208,33.8950024 L46.4391505,33.9588409 L45.3783693,34.7532159 L9.41384277,61.4917087 L8.76407809,61.9588842 C8.19017845,62.3949494 7.53237451,62.6034451 6.86238677,62.5787611 C5.28153147,62.4890314 4.02383017,61.1387549 4.0473047,59.5189845 L4.04749726,4.05369329 C4.04749909,4.05261864 4.0475,4.0515438 4.0475,4.05046875 L4.0475,3.67265625 C4.04737466,3.65596462 4.04737449,3.63929414 4.04749876,3.62264589 L4.0475,3.26578125 C4.0475,2.23853162 3.21474963,1.40578125 2.1875,1.40578125 C1.2945104,1.40578125 0.54850098,2.03507823 0.368750436,2.87439349 C0.342956786,3.10993495 0.329055402,3.34818369 0.32749999,3.58839659 L0.32749999,3.67913794 Z" id="path-1"></path>
        <path d="M42,0.416666667 C64.9658408,0.416666667 83.5833333,19.0341592 83.5833333,42 C83.5833333,64.9658408 64.9658408,83.5833333 42,83.5833333 C19.0341592,83.5833333 0.416666667,64.9658408 0.416666667,42 C0.416666667,19.0341592 19.0341592,0.416666667 42,0.416666667 Z M28.8759589,16.0066922 C27.0642174,16.8147605 25.816845,18.4539636 25.4972619,20.3463678 L25.4616667,20.5886667 L25.5012169,20.4377811 C25.733638,19.6663674 26.4193688,19.0914125 27.2487694,19.0225565 L27.4164734,19.015625 C28.5210429,19.015625 29.4164734,19.9110555 29.4164734,21.015625 L29.4164734,21.015625 L29.4156667,21.3036667 L29.422971,21.1611673 C29.4781347,20.5110198 29.8805775,19.9383105 30.4814786,19.6702443 C31.082067,19.4119272 31.6695533,19.57453 32.5099601,20.2617786 L59.3472011,40.1132093 L60.0933768,40.6754954 L60.2080899,40.7557862 C60.6268934,41.0275854 60.8796363,41.4929168 60.8796363,41.9921875 C60.8796363,42.4914582 60.6268934,42.9567896 60.2080899,43.2285888 L60.1036438,43.3011957 L59.3119772,43.8897373 L32.4764204,63.7625226 L31.9879895,64.1088174 C31.6370101,64.3777631 31.2822613,64.4922502 30.9203797,64.480263 C30.0908066,64.4322473 29.4074897,63.7013338 29.4163713,62.8222897 L29.4156667,21.6006667 L29.4108205,21.7504858 C29.3370654,22.735043 28.5505039,23.5208722 27.5656278,23.5934806 L27.4164734,23.5989583 C26.3119039,23.5989583 25.4164734,22.7035278 25.4164734,21.5989583 L25.4156667,21.6006667 L25.4161817,62.8020833 C25.3861136,65.796803 27.7298302,68.3037717 30.739985,68.4759046 C32.0793505,68.5208474 33.3452937,68.112293 34.3680537,67.3226744 L34.8245105,67.0005576 L61.6954546,47.1020608 L62.4447953,46.5449891 C63.9647649,45.5304618 64.8796363,43.8227508 64.8796363,41.9921875 C64.8796363,40.16401 63.9671481,38.4583648 62.4507351,37.4433561 L61.7399565,36.907838 L34.9652989,17.1055407 C33.1587241,15.6251419 31.091636,15.0530189 28.8759589,16.0066922 Z" id="path-3"></path>
    </defs>
    <g id="CBU_Homepage" stroke="none" stroke-width="1" fill="none" fill-rule="evenodd">
        <g id="CBU/Homepage/Desktop/other-tab" transform="translate(-678.000000, -5266.000000)">
            <g id="Video-Copy" transform="translate(78.000000, 4921.000000)">
                <g id="🧬-Components/Content-page-components/Video-Player/Desktop/Not-playing" transform="translate(0.000000, 111.000000)">
                    <g id="Group">
                        <g id="Group-66" transform="translate(600.000000, 234.000000)">
                            <g id="Icons/...More/Controls/play-arrow/Solid-colour-mask" transform="translate(20.000000, 10.000000)">
                                <mask id="mask-2" fill="white">
                                    <use xlink:href="#path-1"></use>
                                </mask>
                                <use id="Mask" fill="#333333" fill-rule="nonzero" xlink:href="#path-1"></use>
                                <g id="Colours/White-|-#ffffff" mask="url(#mask-2)" fill="#FFFFFF">
                                    <g transform="translate(-23.000000, -15.000000)" id="Rectangle">
                                        <rect x="0" y="0" width="93" height="93"></rect>
                                    </g>
                                </g>
                                <rect id="Rectangle" mask="url(#mask-2)" x="-23" y="-15" width="93" height="93"></rect>
                            </g>
                            <g id="Icons/...More/Controls/play-circle/Solid-colour-mask">
                                <mask id="mask-4" fill="white">
                                    <use xlink:href="#path-3"></use>
                                </mask>
                                <use id="Mask" fill="#333333" fill-rule="nonzero" xlink:href="#path-3"></use>
                                <g id="Colours/Red-1-|-#e60000" mask="url(#mask-4)" fill="#E60000">
                                    <g transform="translate(-8.000000, -8.000000)" id="Rectangle">
                                        <rect x="0" y="0" width="100" height="100"></rect>
                                    </g>
                                </g>
                                <rect id="Rectangle" mask="url(#mask-4)" x="-8" y="-8" width="100" height="100"></rect>
                            </g>
                        </g>
                    </g>
                </g>
            </g>
        </g>
    </g>
</svg>