<svg xmlns="http://www.w3.org/2000/svg" xmlns:xlink="http://www.w3.org/1999/xlink" width="24" height="24" viewBox="0 0 24 24">
    <defs>
        <path id="prefix__a" d="M12 2.02c5.512 0 9.98 4.468 9.98 9.98 0 5.512-4.468 9.98-9.98 9.98-5.512 0-9.98-4.468-9.98-9.98 0-5.512 4.468-9.98 9.98-9.98zm0 13.58c-.464 0-.84.376-.84.84 0 .464.376.84.84.84.464 0 .84-.376.84-.84 0-.464-.376-.84-.84-.84zm0-9.12c-.398 0-.72.322-.72.72v6c0 .398.322.72.72.72.398 0 .72-.322.72-.72v-6c0-.398-.322-.72-.72-.72z"/>
    </defs>
    <g fill="none" fill-rule="evenodd">
        <path d="M0 0H24V24H0z"/>
        <mask id="prefix__b" fill="#fff">
            <use xlink:href="#prefix__a"/>
        </mask>
        <use fill="#ffffff" fill-rule="nonzero" xlink:href="#prefix__a"/>
        <g fill="#EB9700" mask="url(#prefix__b)">
            <path d="M0 0H24V24H0z"/>
        </g>
    </g>
</svg>
