<?xml version="1.0" encoding="UTF-8"?>
<svg width="26px" height="36px" viewBox="0 0 26 36" version="1.1" xmlns="http://www.w3.org/2000/svg" xmlns:xlink="http://www.w3.org/1999/xlink">
    <!-- Generator: sketchtool 53.2 (72643) - https://sketchapp.com -->
    <title>373FAF15-E8B1-4BAB-957B-A3EA19C1347E</title>
    <desc>Created with sketchtool.</desc>
    <g id="Recommendations-Maps" stroke="none" stroke-width="1" fill="none" fill-rule="evenodd">
        <g id="Map---Zoomed-View-3---View---Cost-Savings" transform="translate(-584.000000, -611.000000)">
            <g id="Icons-/-icon---location---2" transform="translate(577.000000, 609.000000)">
                <g id="ic_location_on_24px" transform="translate(8.333333, 3.333333)">
                    <path d="M11.6666667,0 C5.21666667,0 0,5.21666667 0,11.6666667 C0,20.4166667 11.6666667,33.3333333 11.6666667,33.3333333 C11.6666667,33.3333333 23.3333333,20.4166667 23.3333333,11.6666667 C23.3333333,5.21666667 18.1166667,0 11.6666667,0 Z M11.6666667,15.8333333 C9.36666667,15.8333333 7.5,13.9666667 7.5,11.6666667 C7.5,9.36666667 9.36666667,7.5 11.6666667,7.5 C13.9666667,7.5 15.8333333,9.36666667 15.8333333,11.6666667 C15.8333333,13.9666667 13.9666667,15.8333333 11.6666667,15.8333333 Z" id="Shape" fill="#B3D235"></path>
                    <path d="M11.6666667,-0.833333333 C18.576904,-0.833333333 24.1666667,4.75642938 24.1666667,11.6666667 C24.1666667,13.803059 23.5292613,16.2297521 22.3523855,18.9008399 C21.3214489,21.2406978 19.9017053,23.7115339 18.1908037,26.2473344 C16.8999556,28.1605557 15.5183487,30.0010535 14.1366317,31.7035262 C13.652811,32.2996624 13.2032517,32.836293 12.7993093,33.3051547 C12.5556823,33.587936 12.3804857,33.7862836 12.2850855,33.8919052 L11.6666667,34.5765832 L11.0482478,33.8919052 C10.9528477,33.7862836 10.777651,33.587936 10.534024,33.3051547 C10.1300817,32.836293 9.68052234,32.2996624 9.19670159,31.7035262 C7.81498465,30.0010535 6.43337772,28.1605557 5.14252963,26.2473344 C3.43162808,23.7115339 2.01188442,21.2406978 0.980947787,18.9008399 C-0.195928012,16.2297521 -0.833333333,13.803059 -0.833333333,11.6666667 C-0.833333333,4.75642938 4.75642938,-0.833333333 11.6666667,-0.833333333 Z M12.8425349,30.6532447 C14.195193,28.9865767 15.5479611,27.1844964 16.8091963,25.3151656 C18.4686844,22.8555672 19.8407876,20.4676417 20.8271969,18.2288449 C21.9186186,15.7517073 22.5,13.5383053 22.5,11.6666667 C22.5,5.67690396 17.6564294,0.833333333 11.6666667,0.833333333 C5.67690396,0.833333333 0.833333333,5.67690396 0.833333333,11.6666667 C0.833333333,13.5383053 1.41471474,15.7517073 2.50613646,18.2288449 C3.49254577,20.4676417 4.86464894,22.8555672 6.52413703,25.3151656 C7.78537228,27.1844964 9.13814035,28.9865767 10.4907984,30.6532447 C10.9125351,31.1728845 11.3071884,31.6457392 11.6666667,32.0658486 C12.0261449,31.6457392 12.4207983,31.1728845 12.8425349,30.6532447 Z M11.6666667,15 C13.5064294,15 15,13.5064294 15,11.6666667 C15,9.82690396 13.5064294,8.33333333 11.6666667,8.33333333 C9.82690396,8.33333333 8.33333333,9.82690396 8.33333333,11.6666667 C8.33333333,13.5064294 9.82690396,15 11.6666667,15 Z M11.6666667,16.6666667 C8.90642938,16.6666667 6.66666667,14.426904 6.66666667,11.6666667 C6.66666667,8.90642938 8.90642938,6.66666667 11.6666667,6.66666667 C14.426904,6.66666667 16.6666667,8.90642938 16.6666667,11.6666667 C16.6666667,14.426904 14.426904,16.6666667 11.6666667,16.6666667 Z" id="Shape" fill="#FFFFFF"></path>
                </g>
            </g>
        </g>
    </g>
</svg>